<svg width="900" height="400" viewBox="0 0 900 400" fill="none" xmlns="http://www.w3.org/2000/svg">
<path fill-rule="evenodd" clip-rule="evenodd" d="M404.055 165.705L513.717 87.8083L519.903 92.4732L456.421 180.698L468.034 180.942L445.758 204.821C437.406 217.613 417.382 246.062 408.32 258.739C394.987 275.561 330.059 331.574 313.037 346.769L358.391 261.562L360.287 240.302L325.798 197.364L385.648 204.582L404.055 165.705Z" fill="#4E89B5"/>
<path fill-rule="evenodd" clip-rule="evenodd" d="M484.772 124.028C506.976 100.646 514.891 91.968 519.827 93.0712C533.667 96.1481 568.182 139.024 573.463 132.651C578.744 126.279 624.218 89.395 642.132 71.6074C659.305 56.3529 734.061 -1.87711 735.513 0.92682C742.693 14.7822 1028.64 511.654 1028.64 511.654C1028.64 511.654 -64.6342 493.885 -36.3403 470.207C-8.04635 446.529 317.46 204.759 324.398 198.596C328.383 195.057 337.788 205.849 349.177 216.132C350.268 217.117 356.519 213.926 357.61 214.898C378.753 239.603 369.857 240.241 408.394 203.536C419.91 183.478 448.364 155.131 454.879 141.164C456.844 138.032 461.726 139.933 463.182 140.201C472.051 137.252 470.65 119.521 484.772 124.015" fill="#5799C9"/>
<path fill-rule="evenodd" clip-rule="evenodd" d="M629.667 48.2965L735.513 0.92682L626.664 131.696L647.683 135.549L552.492 256.586L537.562 292.339L537.244 307.435L467.67 365.2L508.192 291.721L526.71 239.829L507.396 219.097L553.81 166.63C565.042 143.393 614.577 70.8031 629.679 48.2968L629.667 48.2965Z" fill="#4E89B5"/>
<path fill-rule="evenodd" clip-rule="evenodd" d="M512.416 72.44L539.796 107.096L492.828 175.217L513.252 181.206L501.277 198.168L464.031 302.973L339.046 324.205C339.046 324.205 357.821 267.246 368.966 262.446C380.11 257.659 423.608 207.204 430.49 198.966C437.359 190.728 446.053 142.639 451.069 132.826C456.086 123 512.404 72.4273 512.404 72.4273" fill="#588BB5"/>
<path fill-rule="evenodd" clip-rule="evenodd" d="M688.487 17.1526C697.79 17.3483 735.057 0.642355 735.057 0.642355L680.078 110.495C686.865 154.887 693.746 135.406 669.215 184.485C663.66 199.722 638.231 274.917 635.133 283.809C632.035 292.701 533.905 387.78 533.905 387.78L483.918 335.734C483.918 335.734 515.475 304.217 522.821 286.344C530.181 268.472 533.183 208.259 553.112 201.007C573.04 193.756 601.959 165.282 601.959 165.282C601.959 165.282 599.779 149.533 602.522 138.534C605.264 127.536 660.929 53.951 660.929 53.951C659.133 43.1446 661.246 35.3187 661.347 34.0715" fill="#588BB5"/>
<path fill-rule="evenodd" clip-rule="evenodd" d="M202.339 262.478C218.439 251.898 325.711 197.949 325.711 197.949C325.711 197.949 305.544 240.325 298.517 244.15C291.491 247.975 277.853 259.106 277.853 259.106L289.404 276.539C276.186 293.213 174.86 375.707 163.508 386.25C163.508 386.25 102.397 365.326 104.059 357.553C105.709 349.793 186.238 273.058 202.351 262.478" fill="#588BB5"/>
<path fill-rule="evenodd" clip-rule="evenodd" d="M37.6463 453.311C60.599 445.999 333.203 265.23 350.73 282.463C362.701 294.233 383.958 306.361 399.176 305.057C421.471 290.434 459.229 248.566 467.703 255.528C483.434 268.451 721.005 583.301 699.863 565.729C687.634 555.552 -8.98071 572.347 -8.98071 572.347C-8.98071 572.347 14.6811 460.624 37.6463 453.311Z" fill="#4782AF"/>
<path fill-rule="evenodd" clip-rule="evenodd" d="M382.194 302.288L399.176 305.069C399.097 320.683 399.026 391.777 398.446 405.731L392.927 425.778L372.817 452.964L331.739 489.316L375.732 432.55L378.863 416.738L372.675 401.479L389.507 368.028L359.184 379.483L387.634 339.456L380.508 321.292L354.877 310.446L347.281 281.341L382.219 302.301L382.194 302.288Z" fill="#40759E"/>
<path fill-rule="evenodd" clip-rule="evenodd" d="M162.024 358.772C173.946 358.573 290.542 289.542 301.835 287.794C313.127 286.045 347.706 277.765 347.706 277.765L301.342 342.713L315.778 348.314L310.857 361.902L312.266 389.378L279.206 450.783L201.78 545.111C201.78 545.111 193.959 413.249 185.59 402.492C177.209 391.735 150.102 358.984 162.024 358.772Z" fill="#4D8CBB"/>
<path fill-rule="evenodd" clip-rule="evenodd" d="M519.578 281.379C509.078 270.977 477.418 243.215 470.094 249.357C462.769 255.499 454.047 280.538 458.283 288.822C462.518 297.107 469.791 310.652 454.339 326.63C438.875 342.607 421.086 379.423 421.086 379.423L453.535 364.902C453.535 364.902 415.618 429.729 402.714 443.961C389.809 458.194 374.237 479.291 367.56 497.427C360.869 515.563 343.851 575.719 351.564 568.936C359.265 562.164 489.611 508.176 499.661 509.65C509.712 511.123 574.366 463.949 570.157 454.403C565.948 444.858 530.09 291.769 519.591 281.367" fill="#4D8CBB"/>
</svg>
