<svg width="553" height="331" viewBox="0 0 553 331" fill="none" xmlns="http://www.w3.org/2000/svg">
<path fill-rule="evenodd" clip-rule="evenodd" d="M193.529 96.2001L256.621 51.3833L260.18 54.0672L223.657 104.826L230.338 104.967L217.522 118.706C212.717 126.065 201.196 142.433 195.983 149.727C188.311 159.405 150.956 191.631 141.162 200.374L167.256 151.351L168.347 139.119L148.504 114.415L182.939 118.568L193.529 96.2001Z" fill="#4E89B5"/>
<path fill-rule="evenodd" clip-rule="evenodd" d="M239.968 72.2218C252.743 58.7696 257.297 53.7766 260.137 54.4114C268.099 56.1816 287.957 80.8497 290.996 77.1833C294.034 73.5169 320.197 52.2962 330.503 42.0624C340.384 33.2858 383.394 -0.216164 384.23 1.39705C388.36 9.36856 552.878 295.238 552.878 295.238C552.878 295.238 -76.1267 285.015 -59.8481 271.392C-43.5695 257.769 143.707 118.67 147.699 115.124C149.991 113.088 155.402 119.297 161.955 125.213C162.583 125.78 166.179 123.944 166.807 124.503C178.971 138.717 173.853 139.084 196.025 117.966C202.65 106.426 219.021 90.1166 222.77 82.0807C223.9 80.2789 226.709 81.373 227.547 81.5271C232.649 79.8304 231.843 69.6288 239.968 72.2147" fill="#5799C9"/>
<path fill-rule="evenodd" clip-rule="evenodd" d="M323.332 28.6506L384.23 1.39705L321.604 76.6338L333.697 78.8503L278.931 148.488L270.34 169.058L270.158 177.743L230.129 210.977L253.443 168.702L264.097 138.847L252.984 126.919L279.688 96.7326C286.151 83.3632 314.65 41.5996 323.339 28.6508L323.332 28.6506Z" fill="#4E89B5"/>
<path fill-rule="evenodd" clip-rule="evenodd" d="M255.873 42.5414L271.625 62.48L244.603 101.673L256.354 105.118L249.464 114.878L228.035 175.176L156.127 187.392C156.127 187.392 166.928 154.621 173.34 151.859C179.752 149.105 204.778 120.076 208.738 115.337C212.69 110.597 217.692 82.9298 220.578 77.2837C223.464 71.6303 255.866 42.534 255.866 42.534" fill="#588BB5"/>
<path fill-rule="evenodd" clip-rule="evenodd" d="M357.174 10.7324C362.526 10.8449 383.967 1.23334 383.967 1.23334L352.336 64.4361C356.24 89.9762 360.199 78.7679 346.086 107.005C342.89 115.772 328.259 159.034 326.477 164.15C324.695 169.266 268.237 223.969 268.237 223.969L239.477 194.025C239.477 194.025 257.633 175.892 261.86 165.609C266.094 155.326 267.821 120.683 279.287 116.511C290.752 112.339 307.391 95.9567 307.391 95.9567C307.391 95.9567 306.137 86.8957 307.714 80.568C309.292 74.2402 341.318 31.9039 341.318 31.9039C340.285 25.6865 341.501 21.184 341.559 20.4665" fill="#588BB5"/>
<path fill-rule="evenodd" clip-rule="evenodd" d="M77.4734 151.877C86.7367 145.79 148.454 114.752 148.454 114.752C148.454 114.752 136.851 139.132 132.809 141.333C128.766 143.533 120.919 149.938 120.919 149.938L127.565 159.967C119.96 169.561 61.6638 217.023 55.1323 223.088C55.1323 223.088 19.9727 211.05 20.9293 206.578C21.8785 202.113 68.2102 157.965 77.4806 151.878" fill="#588BB5"/>
<path fill-rule="evenodd" clip-rule="evenodd" d="M-17.2807 261.672C-4.0751 257.464 152.765 153.461 162.849 163.376C169.736 170.148 181.966 177.125 190.722 176.375C203.548 167.962 225.272 143.874 230.148 147.879C239.198 155.314 375.883 336.46 363.718 326.35C356.683 320.495 -44.1071 330.158 -44.1071 330.158C-44.1071 330.158 -30.4935 265.879 -17.2807 261.672Z" fill="#4782AF"/>
<path fill-rule="evenodd" clip-rule="evenodd" d="M180.951 174.782L190.721 176.382C190.676 185.365 190.635 226.268 190.301 234.297L187.126 245.831L175.556 261.472L151.922 282.386L177.233 249.727L179.035 240.629L175.475 231.851L185.158 212.605L167.712 219.195L184.081 196.166L179.981 185.716L165.234 179.476L160.864 162.73L180.966 174.79L180.951 174.782Z" fill="#40759E"/>
<path fill-rule="evenodd" clip-rule="evenodd" d="M54.2788 207.28C61.138 207.165 128.22 167.449 134.717 166.443C141.214 165.437 161.109 160.673 161.109 160.673L134.434 198.04L142.739 201.262L139.908 209.08L140.719 224.888L121.698 260.217L77.1517 314.487C77.1517 314.487 72.6521 238.622 67.8372 232.433C63.0152 226.244 47.4194 207.401 54.2788 207.28Z" fill="#4D8CBB"/>
<path fill-rule="evenodd" clip-rule="evenodd" d="M259.993 162.752C253.952 156.767 235.737 140.795 231.523 144.329C227.309 147.862 222.291 162.268 224.728 167.035C227.165 171.801 231.349 179.594 222.459 188.787C213.562 197.979 203.327 219.161 203.327 219.161L221.996 210.806C221.996 210.806 200.181 248.104 192.757 256.292C185.333 264.481 176.373 276.619 172.531 287.053C168.682 297.487 158.891 332.098 163.329 328.195C167.759 324.299 242.752 293.238 248.535 294.085C254.317 294.933 291.515 267.792 289.094 262.3C286.672 256.808 266.042 168.73 260.001 162.745" fill="#4D8CBB"/>
</svg>
