<svg width="900" height="423" viewBox="0 0 900 423" fill="none" xmlns="http://www.w3.org/2000/svg">
<path fill-rule="evenodd" clip-rule="evenodd" d="M404.055 188.705L513.717 110.808L519.903 115.473L456.421 203.698L468.034 203.942L445.758 227.821C437.406 240.613 417.382 269.062 408.32 281.739C394.987 298.561 330.059 354.574 313.037 369.769L358.391 284.562L360.287 263.302L325.798 220.364L385.648 227.582L404.055 188.705Z" fill="#4E89B5"/>
<path fill-rule="evenodd" clip-rule="evenodd" d="M484.772 147.028C506.976 123.646 514.891 114.968 519.827 116.071C533.667 119.148 568.182 162.024 573.463 155.651C578.744 149.279 624.218 112.395 642.132 94.6074C659.305 79.3529 734.061 21.1229 735.513 23.9268C742.693 37.7822 1028.64 534.654 1028.64 534.654C1028.64 534.654 -64.6342 516.885 -36.3403 493.207C-8.04635 469.529 317.46 227.759 324.398 221.596C328.383 218.057 337.788 228.849 349.177 239.132C350.268 240.117 356.519 236.926 357.61 237.898C378.753 262.603 369.857 263.241 408.394 226.536C419.91 206.478 448.364 178.131 454.879 164.164C456.844 161.032 461.726 162.933 463.182 163.201C472.051 160.252 470.65 142.521 484.772 147.015" fill="#5799C9"/>
<path fill-rule="evenodd" clip-rule="evenodd" d="M629.667 71.2965L735.513 23.9268L626.664 154.696L647.683 158.549L552.492 279.586L537.562 315.339L537.244 330.435L467.67 388.2L508.192 314.721L526.71 262.829L507.396 242.097L553.81 189.63C565.042 166.393 614.577 93.8031 629.679 71.2968L629.667 71.2965Z" fill="#4E89B5"/>
<path fill-rule="evenodd" clip-rule="evenodd" d="M512.416 95.44L539.796 130.096L492.828 198.217L513.252 204.206L501.277 221.168L464.031 325.973L339.046 347.205C339.046 347.205 357.821 290.246 368.966 285.446C380.11 280.659 423.608 230.204 430.49 221.966C437.359 213.728 446.053 165.639 451.069 155.826C456.086 146 512.404 95.4273 512.404 95.4273" fill="#588BB5"/>
<path fill-rule="evenodd" clip-rule="evenodd" d="M688.487 40.1526C697.79 40.3483 735.057 23.6424 735.057 23.6424L680.078 133.495C686.865 177.887 693.746 158.406 669.215 207.485C663.66 222.722 638.231 297.917 635.133 306.809C632.035 315.701 533.905 410.78 533.905 410.78L483.918 358.734C483.918 358.734 515.475 327.217 522.821 309.344C530.181 291.472 533.183 231.259 553.112 224.007C573.04 216.756 601.959 188.282 601.959 188.282C601.959 188.282 599.779 172.533 602.522 161.534C605.264 150.536 660.929 76.951 660.929 76.951C659.133 66.1446 661.246 58.3187 661.347 57.0715" fill="#588BB5"/>
<path fill-rule="evenodd" clip-rule="evenodd" d="M202.339 285.478C218.439 274.898 325.711 220.949 325.711 220.949C325.711 220.949 305.544 263.325 298.517 267.15C291.491 270.975 277.853 282.106 277.853 282.106L289.404 299.539C276.186 316.213 174.86 398.707 163.508 409.25C163.508 409.25 102.397 388.326 104.059 380.553C105.709 372.793 186.238 296.058 202.351 285.478" fill="#588BB5"/>
<path fill-rule="evenodd" clip-rule="evenodd" d="M37.6463 476.311C60.599 468.999 333.203 288.23 350.73 305.463C362.701 317.233 383.958 329.361 399.176 328.057C421.471 313.434 459.229 271.566 467.703 278.528C483.434 291.451 721.005 606.301 699.863 588.729C687.634 578.552 -8.98071 595.347 -8.98071 595.347C-8.98071 595.347 14.6811 483.624 37.6463 476.311Z" fill="#4782AF"/>
<path fill-rule="evenodd" clip-rule="evenodd" d="M382.194 325.288L399.176 328.069C399.097 343.683 399.026 414.777 398.446 428.731L392.927 448.778L372.817 475.964L331.739 512.316L375.732 455.55L378.863 439.738L372.675 424.479L389.507 391.028L359.184 402.483L387.634 362.456L380.508 344.292L354.877 333.446L347.281 304.341L382.219 325.301L382.194 325.288Z" fill="#40759E"/>
<path fill-rule="evenodd" clip-rule="evenodd" d="M162.024 381.772C173.946 381.573 290.542 312.542 301.835 310.794C313.127 309.045 347.706 300.765 347.706 300.765L301.342 365.713L315.778 371.314L310.857 384.902L312.266 412.378L279.206 473.783L201.78 568.111C201.78 568.111 193.959 436.249 185.59 425.492C177.209 414.735 150.102 381.984 162.024 381.772Z" fill="#4D8CBB"/>
<path fill-rule="evenodd" clip-rule="evenodd" d="M519.578 304.379C509.078 293.977 477.418 266.215 470.094 272.357C462.769 278.499 454.047 303.538 458.283 311.822C462.518 320.107 469.791 333.652 454.339 349.63C438.875 365.607 421.086 402.423 421.086 402.423L453.535 387.902C453.535 387.902 415.618 452.729 402.714 466.961C389.809 481.194 374.237 502.291 367.56 520.427C360.869 538.563 343.851 598.719 351.564 591.936C359.265 585.164 489.611 531.176 499.661 532.65C509.712 534.123 574.366 486.949 570.157 477.403C565.948 467.858 530.09 314.769 519.591 304.367" fill="#4D8CBB"/>
<mask id="mask0_128_2756" style="mask-type:alpha" maskUnits="userSpaceOnUse" x="-37" y="23" width="1066" height="573">
<path fill-rule="evenodd" clip-rule="evenodd" d="M404.056 188.705L513.717 110.808L519.903 115.473L456.422 203.698L468.035 203.942L445.758 227.821C437.406 240.613 417.382 269.062 408.32 281.739C394.987 298.561 330.059 354.574 313.037 369.769L358.391 284.562L360.287 263.302L325.798 220.364L385.649 227.582L404.056 188.705Z" fill="#4E89B5"/>
<path fill-rule="evenodd" clip-rule="evenodd" d="M484.772 147.028C506.976 123.646 514.891 114.968 519.828 116.071C533.667 119.148 568.182 162.024 573.463 155.651C578.744 149.279 624.218 112.395 642.132 94.6074C659.305 79.3529 734.061 21.1229 735.514 23.9268C742.693 37.7822 1028.64 534.654 1028.64 534.654C1028.64 534.654 -64.6339 516.885 -36.34 493.207C-8.0461 469.529 317.46 227.759 324.398 221.596C328.383 218.057 337.788 228.849 349.177 239.132C350.268 240.117 356.519 236.926 357.611 237.898C378.753 262.603 369.858 263.241 408.395 226.536C419.91 206.478 448.364 178.131 454.879 164.164C456.844 161.032 461.726 162.933 463.182 163.201C472.051 160.252 470.65 142.521 484.772 147.015" fill="#5799C9"/>
<path fill-rule="evenodd" clip-rule="evenodd" d="M629.667 71.2965L735.514 23.9268L626.664 154.696L647.683 158.549L552.493 279.586L537.562 315.339L537.244 330.435L467.67 388.2L508.192 314.721L526.711 262.829L507.396 242.097L553.81 189.63C565.042 166.393 614.578 93.8031 629.68 71.2968L629.667 71.2965Z" fill="#4E89B5"/>
<path fill-rule="evenodd" clip-rule="evenodd" d="M512.416 95.44L539.796 130.096L492.828 198.217L513.252 204.206L501.277 221.168L464.032 325.973L339.047 347.205C339.047 347.205 357.822 290.246 368.966 285.446C380.11 280.659 423.608 230.204 430.49 221.966C437.359 213.728 446.054 165.639 451.07 155.826C456.086 146 512.404 95.4273 512.404 95.4273" fill="#588BB5"/>
<path fill-rule="evenodd" clip-rule="evenodd" d="M688.488 40.1526C697.791 40.3483 735.057 23.6424 735.057 23.6424L680.078 133.495C686.865 177.887 693.746 158.406 669.216 207.485C663.661 222.722 638.231 297.917 635.133 306.809C632.036 315.701 533.906 410.78 533.906 410.78L483.918 358.734C483.918 358.734 515.475 327.217 522.822 309.344C530.181 291.472 533.184 231.259 553.112 224.007C573.04 216.756 601.96 188.282 601.96 188.282C601.96 188.282 599.78 172.533 602.522 161.534C605.264 150.536 660.93 76.951 660.93 76.951C659.133 66.1446 661.247 58.3187 661.348 57.0715" fill="#588BB5"/>
<path fill-rule="evenodd" clip-rule="evenodd" d="M202.339 285.478C218.44 274.898 325.711 220.949 325.711 220.949C325.711 220.949 305.544 263.325 298.518 267.15C291.491 270.975 277.853 282.106 277.853 282.106L289.404 299.539C276.186 316.213 174.86 398.707 163.508 409.25C163.508 409.25 102.397 388.326 104.06 380.553C105.709 372.793 186.239 296.058 202.352 285.478" fill="#588BB5"/>
<path fill-rule="evenodd" clip-rule="evenodd" d="M37.6466 476.311C60.5993 468.999 333.204 288.23 350.731 305.463C362.701 317.233 383.958 329.361 399.176 328.057C421.471 313.434 459.229 271.566 467.703 278.528C483.434 291.451 721.006 606.301 699.863 588.729C687.634 578.552 -8.98046 595.347 -8.98046 595.347C-8.98046 595.347 14.6813 483.624 37.6466 476.311Z" fill="#4782AF"/>
<path fill-rule="evenodd" clip-rule="evenodd" d="M382.195 325.288L399.176 328.069C399.098 343.683 399.027 414.777 398.446 428.731L392.927 448.778L372.817 475.964L331.739 512.316L375.733 455.55L378.863 439.738L372.676 424.479L389.507 391.028L359.184 402.483L387.634 362.456L380.508 344.292L354.877 333.446L347.281 304.341L382.219 325.301L382.195 325.288Z" fill="#40759E"/>
<path fill-rule="evenodd" clip-rule="evenodd" d="M162.024 381.772C173.947 381.573 290.542 312.542 301.835 310.794C313.127 309.045 347.706 300.765 347.706 300.765L301.342 365.713L315.778 371.314L310.858 384.902L312.266 412.378L279.206 473.783L201.78 568.111C201.78 568.111 193.959 436.249 185.59 425.492C177.209 414.735 150.102 381.984 162.024 381.772Z" fill="#4D8CBB"/>
<path fill-rule="evenodd" clip-rule="evenodd" d="M519.578 304.379C509.078 293.977 477.419 266.215 470.094 272.357C462.769 278.499 454.047 303.538 458.283 311.822C462.518 320.107 469.792 333.652 454.34 349.63C438.875 365.607 421.086 402.423 421.086 402.423L453.535 387.902C453.535 387.902 415.618 452.729 402.714 466.961C389.81 481.194 374.237 502.291 367.56 520.427C360.87 538.563 343.852 598.719 351.565 591.936C359.265 585.164 489.611 531.176 499.662 532.65C509.712 534.123 574.367 486.949 570.157 477.403C565.948 467.858 530.091 314.769 519.591 304.367" fill="#4D8CBB"/>
</mask>
<g mask="url(#mask0_128_2756)">
<rect x="-99.0002" y="-75" width="1000" height="497" fill="white" fill-opacity="0.6"/>
</g>
</svg>
