<svg width="360" height="900" viewBox="0 0 360 900" fill="none" xmlns="http://www.w3.org/2000/svg">
<g clip-path="url(#clip0_323_1383)">
<rect width="360" height="900" fill="white"/>
<g clip-path="url(#clip1_323_1383)">
<path fill-rule="evenodd" clip-rule="evenodd" d="M91.5289 747.2L154.621 702.383L158.18 705.067L121.657 755.826L128.338 755.967L115.522 769.706C110.717 777.065 99.196 793.433 93.9827 800.727C86.3114 810.405 48.956 842.631 39.1625 851.374L65.2561 802.351L66.3471 790.119L46.5045 765.415L80.9386 769.568L91.5289 747.2Z" fill="#4E89B5"/>
<path fill-rule="evenodd" clip-rule="evenodd" d="M137.968 723.222C150.743 709.77 155.297 704.777 158.137 705.411C166.099 707.182 185.957 731.85 188.996 728.183C192.034 724.517 218.197 703.296 228.503 693.062C238.384 684.286 281.394 650.784 282.23 652.397C286.36 660.369 450.878 946.238 450.878 946.238C450.878 946.238 -178.127 936.015 -161.848 922.392C-145.569 908.769 41.7071 769.67 45.6988 766.124C47.9913 764.088 53.4023 770.297 59.9551 776.213C60.5828 776.78 64.1793 774.944 64.8072 775.503C76.9713 789.717 71.8533 790.084 94.0251 768.966C100.65 757.426 117.021 741.117 120.77 733.081C121.9 731.279 124.709 732.373 125.547 732.527C130.649 730.83 129.843 720.629 137.968 723.215" fill="#5799C9"/>
<path fill-rule="evenodd" clip-rule="evenodd" d="M221.332 679.651L282.23 652.397L219.604 727.634L231.697 729.85L176.931 799.488L168.34 820.058L168.158 828.743L128.129 861.977L151.443 819.702L162.097 789.847L150.984 777.919L177.688 747.733C184.151 734.363 212.65 692.6 221.339 679.651L221.332 679.651Z" fill="#4E89B5"/>
<path fill-rule="evenodd" clip-rule="evenodd" d="M153.873 693.541L169.625 713.48L142.603 752.673L154.354 756.118L147.464 765.878L126.035 826.176L54.1266 838.392C54.1266 838.392 64.9285 805.621 71.3403 802.859C77.752 800.105 102.778 771.076 106.738 766.337C110.69 761.597 115.692 733.93 118.578 728.284C121.464 722.63 153.866 693.534 153.866 693.534" fill="#588BB5"/>
<path fill-rule="evenodd" clip-rule="evenodd" d="M255.174 661.732C260.526 661.845 281.967 652.233 281.967 652.233L250.336 715.436C254.24 740.976 258.199 729.768 244.086 758.005C240.89 766.772 226.259 810.034 224.477 815.15C222.695 820.266 166.237 874.969 166.237 874.969L137.477 845.025C137.477 845.025 155.633 826.892 159.86 816.609C164.094 806.326 165.821 771.683 177.287 767.511C188.752 763.339 205.391 746.957 205.391 746.957C205.391 746.957 204.137 737.896 205.714 731.568C207.292 725.24 239.318 682.904 239.318 682.904C238.285 676.687 239.501 672.184 239.559 671.466" fill="#588BB5"/>
<path fill-rule="evenodd" clip-rule="evenodd" d="M-24.5266 802.877C-15.2633 796.79 46.4542 765.752 46.4542 765.752C46.4542 765.752 34.8512 790.132 30.8087 792.333C26.7662 794.533 18.9194 800.938 18.9194 800.938L25.5653 810.967C17.9605 820.561 -40.3362 868.023 -46.8677 874.088C-46.8677 874.088 -82.0273 862.05 -81.0707 857.578C-80.1215 853.113 -33.7898 808.965 -24.5194 802.878" fill="#588BB5"/>
<path fill-rule="evenodd" clip-rule="evenodd" d="M-119.281 912.672C-106.075 908.464 50.7648 804.461 60.8488 814.376C67.7357 821.148 79.9659 828.125 88.7216 827.375C101.548 818.962 123.272 794.874 128.148 798.879C137.198 806.314 273.883 987.46 261.718 977.35C254.683 971.495 -146.107 981.158 -146.107 981.158C-146.107 981.158 -132.494 916.879 -119.281 912.672Z" fill="#4782AF"/>
<path fill-rule="evenodd" clip-rule="evenodd" d="M78.9514 825.782L88.7214 827.382C88.6763 836.365 88.6355 877.268 88.3013 885.297L85.1263 896.831L73.5562 912.472L49.9224 933.386L75.2335 900.727L77.0348 891.629L73.4747 882.851L83.1584 863.605L65.7124 870.195L82.081 847.166L77.9811 836.716L63.2343 830.476L58.8643 813.73L78.9656 825.79L78.9514 825.782Z" fill="#40759E"/>
<path fill-rule="evenodd" clip-rule="evenodd" d="M-47.7212 858.28C-40.862 858.165 26.2201 818.449 32.7172 817.443C39.2143 816.437 59.1088 811.673 59.1088 811.673L32.4337 849.04L40.7393 852.262L37.9084 860.08L38.7187 875.888L19.6981 911.217L-24.8483 965.487C-24.8483 965.487 -29.3479 889.622 -34.1628 883.433C-38.9848 877.244 -54.5806 858.401 -47.7212 858.28Z" fill="#4D8CBB"/>
<path fill-rule="evenodd" clip-rule="evenodd" d="M157.993 813.752C151.952 807.767 133.737 791.795 129.523 795.329C125.309 798.862 120.291 813.268 122.728 818.035C125.165 822.801 129.349 830.594 120.459 839.787C111.562 848.979 101.327 870.161 101.327 870.161L119.996 861.806C119.996 861.806 98.1813 899.104 90.7569 907.292C83.3325 915.481 74.3733 927.619 70.5314 938.053C66.6823 948.487 56.891 983.098 61.3287 979.195C65.7591 975.299 140.752 944.238 146.535 945.085C152.317 945.933 189.515 918.792 187.094 913.3C184.672 907.808 164.042 819.73 158.001 813.745" fill="#4D8CBB"/>
<mask id="mask0_323_1383" style="mask-type:alpha" maskUnits="userSpaceOnUse" x="-163" y="651" width="614" height="331">
<path fill-rule="evenodd" clip-rule="evenodd" d="M91.5289 747.2L154.621 702.383L158.18 705.067L121.657 755.826L128.338 755.967L115.522 769.706C110.717 777.065 99.196 793.433 93.9827 800.727C86.3114 810.405 48.956 842.631 39.1625 851.374L65.2561 802.351L66.3471 790.119L46.5045 765.415L80.9386 769.568L91.5289 747.2Z" fill="#4E89B5"/>
<path fill-rule="evenodd" clip-rule="evenodd" d="M137.968 723.222C150.743 709.77 155.297 704.777 158.137 705.411C166.099 707.182 185.957 731.85 188.996 728.183C192.034 724.517 218.197 703.296 228.503 693.062C238.384 684.286 281.394 650.784 282.23 652.397C286.36 660.369 450.878 946.238 450.878 946.238C450.878 946.238 -178.127 936.015 -161.848 922.392C-145.569 908.769 41.7071 769.67 45.6988 766.124C47.9913 764.088 53.4023 770.297 59.9551 776.213C60.5828 776.78 64.1793 774.944 64.8072 775.503C76.9713 789.717 71.8533 790.084 94.0251 768.966C100.65 757.426 117.021 741.117 120.77 733.081C121.9 731.279 124.709 732.373 125.547 732.527C130.649 730.83 129.843 720.629 137.968 723.215" fill="#5799C9"/>
<path fill-rule="evenodd" clip-rule="evenodd" d="M221.332 679.651L282.23 652.397L219.604 727.634L231.697 729.85L176.931 799.488L168.34 820.058L168.158 828.743L128.129 861.977L151.443 819.702L162.097 789.847L150.984 777.919L177.688 747.733C184.151 734.363 212.65 692.6 221.339 679.651L221.332 679.651Z" fill="#4E89B5"/>
<path fill-rule="evenodd" clip-rule="evenodd" d="M153.873 693.541L169.625 713.48L142.603 752.673L154.354 756.118L147.464 765.878L126.035 826.176L54.1266 838.392C54.1266 838.392 64.9285 805.621 71.3403 802.859C77.752 800.105 102.778 771.076 106.738 766.337C110.69 761.597 115.692 733.93 118.578 728.284C121.464 722.63 153.866 693.534 153.866 693.534" fill="#588BB5"/>
<path fill-rule="evenodd" clip-rule="evenodd" d="M255.174 661.732C260.526 661.845 281.967 652.233 281.967 652.233L250.336 715.436C254.24 740.976 258.199 729.768 244.086 758.005C240.89 766.772 226.259 810.034 224.477 815.15C222.695 820.266 166.237 874.969 166.237 874.969L137.477 845.025C137.477 845.025 155.633 826.892 159.86 816.609C164.094 806.326 165.821 771.683 177.287 767.511C188.752 763.339 205.391 746.957 205.391 746.957C205.391 746.957 204.137 737.896 205.714 731.568C207.292 725.24 239.318 682.904 239.318 682.904C238.285 676.687 239.501 672.184 239.559 671.466" fill="#588BB5"/>
<path fill-rule="evenodd" clip-rule="evenodd" d="M-24.5266 802.877C-15.2633 796.79 46.4542 765.752 46.4542 765.752C46.4542 765.752 34.8512 790.132 30.8087 792.333C26.7662 794.533 18.9194 800.938 18.9194 800.938L25.5653 810.967C17.9605 820.561 -40.3362 868.023 -46.8677 874.088C-46.8677 874.088 -82.0273 862.05 -81.0707 857.578C-80.1215 853.113 -33.7898 808.965 -24.5194 802.878" fill="#588BB5"/>
<path fill-rule="evenodd" clip-rule="evenodd" d="M-119.281 912.672C-106.075 908.464 50.7648 804.461 60.8488 814.376C67.7357 821.148 79.9659 828.125 88.7216 827.375C101.548 818.962 123.272 794.874 128.148 798.879C137.198 806.314 273.883 987.46 261.718 977.35C254.683 971.495 -146.107 981.158 -146.107 981.158C-146.107 981.158 -132.494 916.879 -119.281 912.672Z" fill="#4782AF"/>
<path fill-rule="evenodd" clip-rule="evenodd" d="M78.9514 825.782L88.7214 827.382C88.6763 836.365 88.6355 877.268 88.3013 885.297L85.1263 896.831L73.5562 912.472L49.9224 933.386L75.2335 900.727L77.0348 891.629L73.4747 882.851L83.1584 863.605L65.7124 870.195L82.081 847.166L77.9811 836.716L63.2343 830.476L58.8643 813.73L78.9656 825.79L78.9514 825.782Z" fill="#40759E"/>
<path fill-rule="evenodd" clip-rule="evenodd" d="M-47.7212 858.28C-40.862 858.165 26.2201 818.449 32.7172 817.443C39.2143 816.437 59.1088 811.673 59.1088 811.673L32.4337 849.04L40.7393 852.262L37.9084 860.08L38.7187 875.888L19.6981 911.217L-24.8483 965.487C-24.8483 965.487 -29.3479 889.622 -34.1628 883.433C-38.9848 877.244 -54.5806 858.401 -47.7212 858.28Z" fill="#4D8CBB"/>
<path fill-rule="evenodd" clip-rule="evenodd" d="M157.993 813.752C151.952 807.767 133.737 791.795 129.523 795.329C125.309 798.862 120.291 813.268 122.728 818.035C125.165 822.801 129.349 830.594 120.459 839.787C111.562 848.979 101.327 870.161 101.327 870.161L119.996 861.806C119.996 861.806 98.1813 899.104 90.7569 907.292C83.3325 915.481 74.3733 927.619 70.5314 938.053C66.6823 948.487 56.891 983.098 61.3287 979.195C65.7591 975.299 140.752 944.238 146.535 945.085C152.317 945.933 189.515 918.792 187.094 913.3C184.672 907.808 164.042 819.73 158.001 813.745" fill="#4D8CBB"/>
</mask>
<g mask="url(#mask0_323_1383)">
<rect x="-152" y="445" width="1000" height="497" fill="white" fill-opacity="0.8"/>
</g>
</g>
<path fill-rule="evenodd" clip-rule="evenodd" d="M411.055 845.705L520.717 767.808L526.903 772.473L463.421 860.698L475.034 860.942L452.758 884.821C444.406 897.613 424.382 926.062 415.32 938.739C401.987 955.561 337.059 1011.57 320.037 1026.77L365.391 941.562L367.287 920.302L332.798 877.364L392.648 884.582L411.055 845.705Z" fill="#4E89B5"/>
<path fill-rule="evenodd" clip-rule="evenodd" d="M491.772 804.028C513.976 780.646 521.891 771.968 526.827 773.071C540.667 776.148 575.182 819.024 580.463 812.651C585.744 806.279 631.218 769.395 649.132 751.607C666.305 736.353 741.061 678.123 742.513 680.927C749.693 694.782 1035.64 1191.65 1035.64 1191.65C1035.64 1191.65 -57.6342 1173.89 -29.3403 1150.21C-1.04635 1126.53 324.46 884.759 331.398 878.596C335.383 875.057 344.788 885.849 356.177 896.132C357.268 897.117 363.519 893.926 364.61 894.898C385.753 919.603 376.857 920.241 415.394 883.536C426.91 863.478 455.364 835.131 461.879 821.164C463.844 818.032 468.726 819.933 470.182 820.201C479.051 817.252 477.65 799.521 491.772 804.015" fill="#5799C9"/>
<path fill-rule="evenodd" clip-rule="evenodd" d="M636.667 728.297L742.513 680.927L633.664 811.696L654.683 815.549L559.492 936.586L544.562 972.339L544.244 987.435L474.67 1045.2L515.192 971.721L533.71 919.829L514.396 899.097L560.81 846.63C572.042 823.393 621.577 750.803 636.679 728.297L636.667 728.297Z" fill="#4E89B5"/>
<path fill-rule="evenodd" clip-rule="evenodd" d="M519.416 752.44L546.796 787.096L499.828 855.217L520.252 861.206L508.277 878.168L471.031 982.973L346.046 1004.21C346.046 1004.21 364.821 947.246 375.966 942.446C387.11 937.659 430.608 887.204 437.49 878.966C444.359 870.728 453.053 822.639 458.069 812.826C463.086 803 519.404 752.427 519.404 752.427" fill="#588BB5"/>
<path fill-rule="evenodd" clip-rule="evenodd" d="M695.487 697.153C704.79 697.348 742.057 680.642 742.057 680.642L687.078 790.495C693.865 834.887 700.746 815.406 676.215 864.485C670.66 879.722 645.231 954.917 642.133 963.809C639.035 972.701 540.905 1067.78 540.905 1067.78L490.918 1015.73C490.918 1015.73 522.475 984.217 529.821 966.344C537.181 948.472 540.183 888.259 560.112 881.007C580.04 873.756 608.959 845.282 608.959 845.282C608.959 845.282 606.779 829.533 609.522 818.534C612.264 807.536 667.929 733.951 667.929 733.951C666.133 723.145 668.246 715.319 668.347 714.072" fill="#588BB5"/>
<path fill-rule="evenodd" clip-rule="evenodd" d="M209.339 942.478C225.439 931.898 332.711 877.949 332.711 877.949C332.711 877.949 312.544 920.325 305.517 924.15C298.491 927.975 284.853 939.106 284.853 939.106L296.404 956.539C283.186 973.213 181.86 1055.71 170.508 1066.25C170.508 1066.25 109.397 1045.33 111.059 1037.55C112.709 1029.79 193.238 953.058 209.351 942.478" fill="#588BB5"/>
<path fill-rule="evenodd" clip-rule="evenodd" d="M44.6463 1133.31C67.599 1126 340.203 945.23 357.73 962.463C369.701 974.233 390.958 986.361 406.176 985.057C428.471 970.434 466.229 928.566 474.703 935.528C490.434 948.451 728.005 1263.3 706.863 1245.73C694.634 1235.55 -1.98071 1252.35 -1.98071 1252.35C-1.98071 1252.35 21.6811 1140.62 44.6463 1133.31Z" fill="#4782AF"/>
<path fill-rule="evenodd" clip-rule="evenodd" d="M389.194 982.288L406.176 985.069C406.097 1000.68 406.026 1071.78 405.446 1085.73L399.927 1105.78L379.817 1132.96L338.739 1169.32L382.732 1112.55L385.863 1096.74L379.675 1081.48L396.507 1048.03L366.184 1059.48L394.634 1019.46L387.508 1001.29L361.877 990.446L354.281 961.341L389.219 982.301L389.194 982.288Z" fill="#40759E"/>
<path fill-rule="evenodd" clip-rule="evenodd" d="M169.024 1038.77C180.946 1038.57 297.542 969.542 308.835 967.794C320.127 966.045 354.706 957.765 354.706 957.765L308.342 1022.71L322.778 1028.31L317.857 1041.9L319.266 1069.38L286.206 1130.78L208.78 1225.11C208.78 1225.11 200.959 1093.25 192.59 1082.49C184.209 1071.73 157.102 1038.98 169.024 1038.77Z" fill="#4D8CBB"/>
<path fill-rule="evenodd" clip-rule="evenodd" d="M526.578 961.379C516.078 950.977 484.418 923.215 477.094 929.357C469.769 935.499 461.047 960.538 465.283 968.822C469.518 977.107 476.791 990.652 461.339 1006.63C445.875 1022.61 428.086 1059.42 428.086 1059.42L460.535 1044.9C460.535 1044.9 422.618 1109.73 409.714 1123.96C396.809 1138.19 381.237 1159.29 374.56 1177.43C367.869 1195.56 350.851 1255.72 358.564 1248.94C366.265 1242.16 496.611 1188.18 506.661 1189.65C516.712 1191.12 581.366 1143.95 577.157 1134.4C572.948 1124.86 537.09 971.769 526.591 961.367" fill="#4D8CBB"/>
<mask id="mask1_323_1383" style="mask-type:alpha" maskUnits="userSpaceOnUse" x="-30" y="680" width="1066" height="573">
<path fill-rule="evenodd" clip-rule="evenodd" d="M411.056 845.705L520.717 767.808L526.903 772.473L463.422 860.698L475.035 860.942L452.758 884.821C444.406 897.613 424.382 926.062 415.32 938.739C401.987 955.561 337.059 1011.57 320.037 1026.77L365.391 941.562L367.287 920.302L332.798 877.364L392.649 884.582L411.056 845.705Z" fill="#4E89B5"/>
<path fill-rule="evenodd" clip-rule="evenodd" d="M491.772 804.028C513.976 780.646 521.891 771.968 526.828 773.071C540.667 776.148 575.182 819.024 580.463 812.651C585.744 806.279 631.218 769.395 649.132 751.607C666.305 736.353 741.061 678.123 742.514 680.927C749.693 694.782 1035.64 1191.65 1035.64 1191.65C1035.64 1191.65 -57.6339 1173.89 -29.34 1150.21C-1.0461 1126.53 324.46 884.759 331.398 878.596C335.383 875.057 344.788 885.849 356.177 896.132C357.268 897.117 363.519 893.926 364.611 894.898C385.753 919.603 376.858 920.241 415.395 883.536C426.91 863.478 455.364 835.131 461.879 821.164C463.844 818.032 468.726 819.933 470.182 820.201C479.051 817.252 477.65 799.521 491.772 804.015" fill="#5799C9"/>
<path fill-rule="evenodd" clip-rule="evenodd" d="M636.667 728.297L742.514 680.927L633.664 811.696L654.683 815.549L559.493 936.586L544.562 972.339L544.244 987.435L474.67 1045.2L515.192 971.721L533.711 919.829L514.396 899.097L560.81 846.63C572.042 823.393 621.578 750.803 636.68 728.297L636.667 728.297Z" fill="#4E89B5"/>
<path fill-rule="evenodd" clip-rule="evenodd" d="M519.416 752.44L546.796 787.096L499.828 855.217L520.252 861.206L508.277 878.168L471.032 982.973L346.047 1004.21C346.047 1004.21 364.822 947.246 375.966 942.446C387.11 937.659 430.608 887.204 437.49 878.966C444.359 870.728 453.054 822.639 458.07 812.826C463.086 803 519.404 752.427 519.404 752.427" fill="#588BB5"/>
<path fill-rule="evenodd" clip-rule="evenodd" d="M695.488 697.153C704.791 697.348 742.057 680.642 742.057 680.642L687.078 790.495C693.865 834.887 700.746 815.406 676.216 864.485C670.661 879.722 645.231 954.917 642.133 963.809C639.036 972.701 540.906 1067.78 540.906 1067.78L490.918 1015.73C490.918 1015.73 522.475 984.217 529.822 966.344C537.181 948.472 540.184 888.259 560.112 881.007C580.04 873.756 608.96 845.282 608.96 845.282C608.96 845.282 606.78 829.533 609.522 818.534C612.264 807.536 667.93 733.951 667.93 733.951C666.133 723.145 668.247 715.319 668.348 714.072" fill="#588BB5"/>
<path fill-rule="evenodd" clip-rule="evenodd" d="M209.339 942.478C225.44 931.898 332.711 877.949 332.711 877.949C332.711 877.949 312.544 920.325 305.518 924.15C298.491 927.975 284.853 939.106 284.853 939.106L296.404 956.539C283.186 973.213 181.86 1055.71 170.508 1066.25C170.508 1066.25 109.397 1045.33 111.06 1037.55C112.709 1029.79 193.239 953.058 209.352 942.478" fill="#588BB5"/>
<path fill-rule="evenodd" clip-rule="evenodd" d="M44.6466 1133.31C67.5993 1126 340.204 945.23 357.731 962.463C369.701 974.233 390.958 986.361 406.176 985.057C428.471 970.434 466.229 928.566 474.703 935.528C490.434 948.451 728.006 1263.3 706.863 1245.73C694.634 1235.55 -1.98046 1252.35 -1.98046 1252.35C-1.98046 1252.35 21.6813 1140.62 44.6466 1133.31Z" fill="#4782AF"/>
<path fill-rule="evenodd" clip-rule="evenodd" d="M389.195 982.288L406.176 985.069C406.098 1000.68 406.027 1071.78 405.446 1085.73L399.927 1105.78L379.817 1132.96L338.739 1169.32L382.733 1112.55L385.863 1096.74L379.676 1081.48L396.507 1048.03L366.184 1059.48L394.634 1019.46L387.508 1001.29L361.877 990.446L354.281 961.341L389.219 982.301L389.195 982.288Z" fill="#40759E"/>
<path fill-rule="evenodd" clip-rule="evenodd" d="M169.024 1038.77C180.947 1038.57 297.542 969.542 308.835 967.794C320.127 966.045 354.706 957.765 354.706 957.765L308.342 1022.71L322.778 1028.31L317.858 1041.9L319.266 1069.38L286.206 1130.78L208.78 1225.11C208.78 1225.11 200.959 1093.25 192.59 1082.49C184.209 1071.73 157.102 1038.98 169.024 1038.77Z" fill="#4D8CBB"/>
<path fill-rule="evenodd" clip-rule="evenodd" d="M526.578 961.379C516.078 950.977 484.419 923.215 477.094 929.357C469.769 935.499 461.047 960.538 465.283 968.822C469.518 977.107 476.792 990.652 461.34 1006.63C445.875 1022.61 428.086 1059.42 428.086 1059.42L460.535 1044.9C460.535 1044.9 422.618 1109.73 409.714 1123.96C396.81 1138.19 381.237 1159.29 374.56 1177.43C367.87 1195.56 350.852 1255.72 358.565 1248.94C366.265 1242.16 496.611 1188.18 506.662 1189.65C516.712 1191.12 581.367 1143.95 577.157 1134.4C572.948 1124.86 537.091 971.769 526.591 961.367" fill="#4D8CBB"/>
</mask>
<g mask="url(#mask1_323_1383)">
<rect x="-92.0002" y="582" width="1000" height="497" fill="white" fill-opacity="0.6"/>
</g>
<g clip-path="url(#clip2_323_1383)">
<path fill-rule="evenodd" clip-rule="evenodd" d="M-275.932 1006.44C-245.482 989.477 -135.849 874.652 -110.257 874.104C-84.6805 873.55 -63.9618 889.222 -49.3571 882.976C-18.3539 865.913 20.3927 834.639 52.1733 818.787C63.8182 812.463 87.392 824.36 104.134 832.153C104.134 832.153 166.5 843.198 203.228 827.909C239.957 812.619 458.766 862.09 466.3 869.5C475.628 878.669 569.61 909 585.133 936.184C583.907 943.828 306.343 1028.34 260.063 1018.15C213.767 1007.96 -306.397 1023.4 -275.932 1006.45" fill="#009CA7"/>
<path fill-rule="evenodd" clip-rule="evenodd" d="M61.6758 817L54.1935 817.806C52.9531 818.688 49.3271 820.985 49.1627 822.07C46.2484 840.623 38.6804 872.88 29.3396 891.487C28.4429 893.274 29.2051 895.17 31.3871 896.621L42.6857 904.127C45.7495 906.163 45.9139 909.003 43.1042 911.133L2.37841 941.904C2.07951 942.13 1.81053 942.372 1.57141 942.621C-4.39174 948.855 11.6146 954.394 20.2828 949.089L88.7319 907.232C91.7359 905.391 92.2889 902.777 90.1368 900.639L77.254 887.899C74.9674 885.628 75.7296 882.851 79.167 881.017L99.642 870.079C102.84 868.37 103.752 865.811 101.944 863.619L94.3065 854.358C93.1258 852.938 93.0511 851.331 94.1421 849.888C102.153 839.433 97.544 852.369 102.864 832.209L79.167 820.81L61.6758 817Z" fill="#23353F"/>
<path fill-rule="evenodd" clip-rule="evenodd" d="M220.174 823.24L205.054 827.139C203.814 828.021 196.876 830.344 196.712 831.429C193.798 849.982 188.701 876.976 179.36 895.583C178.463 897.37 179.225 899.266 181.407 900.717L192.706 908.223C195.77 910.259 195.934 913.099 193.124 915.229L152.399 946C152.1 946.226 151.831 946.468 151.592 946.717C145.629 952.951 161.635 958.49 170.303 953.185L238.752 911.328C241.756 909.486 242.309 906.873 240.157 904.735L227.274 891.995C224.988 889.724 225.75 886.947 229.187 885.113L249.662 874.175C252.861 872.466 253.772 869.907 251.964 867.715L244.327 858.454C243.146 857.034 243.071 855.427 244.162 853.984C252.173 843.529 248.222 842.062 253.542 821.902C253.542 821.902 234.224 818.309 227.274 823.24H220.174Z" fill="#23353F"/>
<path fill-rule="evenodd" clip-rule="evenodd" d="M-66.0258 879.051C-61.8112 877.397 14.5887 836.679 21.1945 832.825C27.8003 828.971 54.3765 817.78 54.3765 817.78C50.9839 822.25 -1.37276 879.231 -1.37276 879.231L11.6894 884.091C0.854065 888.078 -54.2041 938.533 -60.2868 943.55L-111.923 970.848L-118.962 992.343L-174.02 999.934C-167.414 992.546 -92.3742 945.594 -80.5526 937.745L-86.441 926.487L-71.8545 907.2L-33.3257 892.829L-63.4552 884.06C-63.4552 884.06 -70.2404 880.697 -66.0258 879.051Z" fill="#38689B"/>
<path fill-rule="evenodd" clip-rule="evenodd" d="M103.139 831.998L129.455 835.329L156.045 836.108L154.76 857.815L152.742 875.977L117.277 917.211L143.372 940.967L43.6423 999.942L-5.88623 990.588L81.7974 940.273L23.2121 955.643L82.4699 902.247L61.3673 877.382L87.1478 864.797L81.1249 846.283L103.139 831.998Z" fill="#38689B"/>
<path fill-rule="evenodd" clip-rule="evenodd" d="M355.467 842.5L388.501 845.331L416.149 855L413.807 867.817L411.789 885.979L376.324 927.213L402.418 950.969L302.689 1009.94L253.16 1000.59L340.844 950.275L282.259 965.645L341.517 912.248L320.414 887.384L346.194 874.799L340.172 856.285L355.467 842.5Z" fill="#38689B"/>
<path fill-rule="evenodd" clip-rule="evenodd" d="M252.499 821.68L284.303 825.579L300.803 832.5L296.53 845.768L294.528 863.939L259.048 905.172L285.157 928.929L185.427 987.904L135.899 978.549L223.583 928.227L164.997 943.604L224.24 890.208L203.152 865.335L228.933 852.759L222.91 834.237L252.499 821.68Z" fill="#38689B"/>
</g>

</g>
<defs>
<clipPath id="clip0_323_1383">
<rect width="360" height="900" fill="white"/>
</clipPath>
<clipPath id="clip1_323_1383">
<rect width="613.394" height="338.218" fill="white" transform="translate(-156.268 642.658) rotate(1.2047)"/>
</clipPath>
<clipPath id="clip2_323_1383">
<rect width="1000" height="298" fill="white" transform="translate(-467 752)"/>
</clipPath>
<clipPath id="clip3_323_1383">
<rect width="240" height="55.5975" fill="white" transform="translate(60 538)"/>
</clipPath>
</defs>
</svg>
