<svg width="540" height="900" viewBox="0 0 540 900" fill="none" xmlns="http://www.w3.org/2000/svg">
<g clip-path="url(#clip0_323_1216)">
<rect width="540" height="900" fill="white"/>
<g clip-path="url(#clip1_323_1216)">
<path fill-rule="evenodd" clip-rule="evenodd" d="M100.529 742.2L163.621 697.383L167.18 700.067L130.657 750.826L137.338 750.967L124.522 764.706C119.717 772.065 108.196 788.433 102.983 795.727C95.3114 805.405 57.956 837.631 48.1625 846.374L74.2561 797.351L75.3471 785.119L55.5045 760.415L89.9386 764.568L100.529 742.2Z" fill="#4E89B5"/>
<path fill-rule="evenodd" clip-rule="evenodd" d="M146.968 718.222C159.743 704.77 164.297 699.777 167.137 700.411C175.099 702.182 194.957 726.85 197.996 723.183C201.034 719.517 227.197 698.296 237.503 688.062C247.384 679.286 290.394 645.784 291.23 647.397C295.36 655.369 459.878 941.238 459.878 941.238C459.878 941.238 -169.127 931.015 -152.848 917.392C-136.569 903.769 50.7071 764.67 54.6988 761.124C56.9913 759.088 62.4023 765.297 68.9551 771.213C69.5828 771.78 73.1793 769.944 73.8072 770.503C85.9713 784.717 80.8533 785.084 103.025 763.966C109.65 752.426 126.021 736.117 129.77 728.081C130.9 726.279 133.709 727.373 134.547 727.527C139.649 725.83 138.843 715.629 146.968 718.215" fill="#5799C9"/>
<path fill-rule="evenodd" clip-rule="evenodd" d="M230.332 674.651L291.23 647.397L228.604 722.634L240.697 724.85L185.931 794.488L177.34 815.058L177.158 823.743L137.129 856.977L160.443 814.702L171.097 784.847L159.984 772.919L186.688 742.733C193.151 729.363 221.65 687.6 230.339 674.651L230.332 674.651Z" fill="#4E89B5"/>
<path fill-rule="evenodd" clip-rule="evenodd" d="M162.873 688.541L178.625 708.48L151.603 747.673L163.354 751.118L156.464 760.878L135.035 821.176L63.1266 833.392C63.1266 833.392 73.9285 800.621 80.3403 797.859C86.752 795.105 111.778 766.076 115.738 761.337C119.69 756.597 124.692 728.93 127.578 723.284C130.464 717.63 162.866 688.534 162.866 688.534" fill="#588BB5"/>
<path fill-rule="evenodd" clip-rule="evenodd" d="M264.174 656.732C269.526 656.845 290.967 647.233 290.967 647.233L259.336 710.436C263.24 735.976 267.199 724.768 253.086 753.005C249.89 761.772 235.259 805.034 233.477 810.15C231.695 815.266 175.237 869.969 175.237 869.969L146.477 840.025C146.477 840.025 164.633 821.892 168.86 811.609C173.094 801.326 174.821 766.683 186.287 762.511C197.752 758.339 214.391 741.957 214.391 741.957C214.391 741.957 213.137 732.896 214.714 726.568C216.292 720.24 248.318 677.904 248.318 677.904C247.285 671.687 248.501 667.184 248.559 666.466" fill="#588BB5"/>
<path fill-rule="evenodd" clip-rule="evenodd" d="M-15.5266 797.877C-6.26329 791.79 55.4542 760.752 55.4542 760.752C55.4542 760.752 43.8512 785.132 39.8087 787.333C35.7662 789.533 27.9194 795.938 27.9194 795.938L34.5653 805.967C26.9605 815.561 -31.3362 863.023 -37.8677 869.088C-37.8677 869.088 -73.0273 857.05 -72.0707 852.578C-71.1215 848.113 -24.7898 803.965 -15.5194 797.878" fill="#588BB5"/>
<path fill-rule="evenodd" clip-rule="evenodd" d="M-110.281 907.672C-97.0751 903.464 59.7648 799.461 69.8488 809.376C76.7357 816.148 88.9659 823.125 97.7216 822.375C110.548 813.962 132.272 789.874 137.148 793.879C146.198 801.314 282.883 982.46 270.718 972.35C263.683 966.495 -137.107 976.158 -137.107 976.158C-137.107 976.158 -123.494 911.879 -110.281 907.672Z" fill="#4782AF"/>
<path fill-rule="evenodd" clip-rule="evenodd" d="M87.9514 820.782L97.7214 822.382C97.6763 831.365 97.6355 872.268 97.3013 880.297L94.1263 891.831L82.5562 907.472L58.9224 928.386L84.2335 895.727L86.0348 886.629L82.4747 877.851L92.1584 858.605L74.7124 865.195L91.081 842.166L86.9811 831.716L72.2343 825.476L67.8643 808.73L87.9656 820.79L87.9514 820.782Z" fill="#40759E"/>
<path fill-rule="evenodd" clip-rule="evenodd" d="M-38.7212 853.28C-31.862 853.165 35.2201 813.449 41.7172 812.443C48.2143 811.437 68.1088 806.673 68.1088 806.673L41.4337 844.04L49.7393 847.262L46.9084 855.08L47.7187 870.888L28.6981 906.217L-15.8483 960.487C-15.8483 960.487 -20.3479 884.622 -25.1628 878.433C-29.9848 872.244 -45.5806 853.401 -38.7212 853.28Z" fill="#4D8CBB"/>
<path fill-rule="evenodd" clip-rule="evenodd" d="M166.993 808.752C160.952 802.767 142.737 786.795 138.523 790.329C134.309 793.862 129.291 808.268 131.728 813.035C134.165 817.801 138.349 825.594 129.459 834.787C120.562 843.979 110.327 865.161 110.327 865.161L128.996 856.806C128.996 856.806 107.181 894.104 99.7569 902.292C92.3325 910.481 83.3733 922.619 79.5314 933.053C75.6823 943.487 65.891 978.098 70.3287 974.195C74.7591 970.299 149.752 939.238 155.535 940.085C161.317 940.933 198.515 913.792 196.094 908.3C193.672 902.808 173.042 814.73 167.001 808.745" fill="#4D8CBB"/>
<mask id="mask0_323_1216" style="mask-type:alpha" maskUnits="userSpaceOnUse" x="-154" y="646" width="614" height="331">
<path fill-rule="evenodd" clip-rule="evenodd" d="M100.529 742.2L163.621 697.383L167.18 700.067L130.657 750.826L137.338 750.967L124.522 764.706C119.717 772.065 108.196 788.433 102.983 795.727C95.3114 805.405 57.956 837.631 48.1625 846.374L74.2561 797.351L75.3471 785.119L55.5045 760.415L89.9386 764.568L100.529 742.2Z" fill="#4E89B5"/>
<path fill-rule="evenodd" clip-rule="evenodd" d="M146.968 718.222C159.743 704.77 164.297 699.777 167.137 700.411C175.099 702.182 194.957 726.85 197.996 723.183C201.034 719.517 227.197 698.296 237.503 688.062C247.384 679.286 290.394 645.784 291.23 647.397C295.36 655.369 459.878 941.238 459.878 941.238C459.878 941.238 -169.127 931.015 -152.848 917.392C-136.569 903.769 50.7071 764.67 54.6988 761.124C56.9913 759.088 62.4023 765.297 68.9551 771.213C69.5828 771.78 73.1793 769.944 73.8072 770.503C85.9713 784.717 80.8533 785.084 103.025 763.966C109.65 752.426 126.021 736.117 129.77 728.081C130.9 726.279 133.709 727.373 134.547 727.527C139.649 725.83 138.843 715.629 146.968 718.215" fill="#5799C9"/>
<path fill-rule="evenodd" clip-rule="evenodd" d="M230.332 674.651L291.23 647.397L228.604 722.634L240.697 724.85L185.931 794.488L177.34 815.058L177.158 823.743L137.129 856.977L160.443 814.702L171.097 784.847L159.984 772.919L186.688 742.733C193.151 729.363 221.65 687.6 230.339 674.651L230.332 674.651Z" fill="#4E89B5"/>
<path fill-rule="evenodd" clip-rule="evenodd" d="M162.873 688.541L178.625 708.48L151.603 747.673L163.354 751.118L156.464 760.878L135.035 821.176L63.1266 833.392C63.1266 833.392 73.9285 800.621 80.3403 797.859C86.752 795.105 111.778 766.076 115.738 761.337C119.69 756.597 124.692 728.93 127.578 723.284C130.464 717.63 162.866 688.534 162.866 688.534" fill="#588BB5"/>
<path fill-rule="evenodd" clip-rule="evenodd" d="M264.174 656.732C269.526 656.845 290.967 647.233 290.967 647.233L259.336 710.436C263.24 735.976 267.199 724.768 253.086 753.005C249.89 761.772 235.259 805.034 233.477 810.15C231.695 815.266 175.237 869.969 175.237 869.969L146.477 840.025C146.477 840.025 164.633 821.892 168.86 811.609C173.094 801.326 174.821 766.683 186.287 762.511C197.752 758.339 214.391 741.957 214.391 741.957C214.391 741.957 213.137 732.896 214.714 726.568C216.292 720.24 248.318 677.904 248.318 677.904C247.285 671.687 248.501 667.184 248.559 666.466" fill="#588BB5"/>
<path fill-rule="evenodd" clip-rule="evenodd" d="M-15.5266 797.877C-6.26329 791.79 55.4542 760.752 55.4542 760.752C55.4542 760.752 43.8512 785.132 39.8087 787.333C35.7662 789.533 27.9194 795.938 27.9194 795.938L34.5653 805.967C26.9605 815.561 -31.3362 863.023 -37.8677 869.088C-37.8677 869.088 -73.0273 857.05 -72.0707 852.578C-71.1215 848.113 -24.7898 803.965 -15.5194 797.878" fill="#588BB5"/>
<path fill-rule="evenodd" clip-rule="evenodd" d="M-110.281 907.672C-97.0751 903.464 59.7648 799.461 69.8488 809.376C76.7357 816.148 88.9659 823.125 97.7216 822.375C110.548 813.962 132.272 789.874 137.148 793.879C146.198 801.314 282.883 982.46 270.718 972.35C263.683 966.495 -137.107 976.158 -137.107 976.158C-137.107 976.158 -123.494 911.879 -110.281 907.672Z" fill="#4782AF"/>
<path fill-rule="evenodd" clip-rule="evenodd" d="M87.9514 820.782L97.7214 822.382C97.6763 831.365 97.6355 872.268 97.3013 880.297L94.1263 891.831L82.5562 907.472L58.9224 928.386L84.2335 895.727L86.0348 886.629L82.4747 877.851L92.1584 858.605L74.7124 865.195L91.081 842.166L86.9811 831.716L72.2343 825.476L67.8643 808.73L87.9656 820.79L87.9514 820.782Z" fill="#40759E"/>
<path fill-rule="evenodd" clip-rule="evenodd" d="M-38.7212 853.28C-31.862 853.165 35.2201 813.449 41.7172 812.443C48.2143 811.437 68.1088 806.673 68.1088 806.673L41.4337 844.04L49.7393 847.262L46.9084 855.08L47.7187 870.888L28.6981 906.217L-15.8483 960.487C-15.8483 960.487 -20.3479 884.622 -25.1628 878.433C-29.9848 872.244 -45.5806 853.401 -38.7212 853.28Z" fill="#4D8CBB"/>
<path fill-rule="evenodd" clip-rule="evenodd" d="M166.993 808.752C160.952 802.767 142.737 786.795 138.523 790.329C134.309 793.862 129.291 808.268 131.728 813.035C134.165 817.801 138.349 825.594 129.459 834.787C120.562 843.979 110.327 865.161 110.327 865.161L128.996 856.806C128.996 856.806 107.181 894.104 99.7569 902.292C92.3325 910.481 83.3733 922.619 79.5314 933.053C75.6823 943.487 65.891 978.098 70.3287 974.195C74.7591 970.299 149.752 939.238 155.535 940.085C161.317 940.933 198.515 913.792 196.094 908.3C193.672 902.808 173.042 814.73 167.001 808.745" fill="#4D8CBB"/>
</mask>
<g mask="url(#mask0_323_1216)">
<rect x="-143" y="440" width="1000" height="497" fill="white" fill-opacity="0.8"/>
</g>
</g>
<path fill-rule="evenodd" clip-rule="evenodd" d="M401.055 845.705L510.717 767.808L516.903 772.473L453.421 860.698L465.034 860.942L442.758 884.821C434.406 897.613 414.382 926.062 405.32 938.739C391.987 955.561 327.059 1011.57 310.037 1026.77L355.391 941.562L357.287 920.302L322.798 877.364L382.648 884.582L401.055 845.705Z" fill="#4E89B5"/>
<path fill-rule="evenodd" clip-rule="evenodd" d="M481.772 804.028C503.976 780.646 511.891 771.968 516.827 773.071C530.667 776.148 565.182 819.024 570.463 812.651C575.744 806.279 621.218 769.395 639.132 751.607C656.305 736.353 731.061 678.123 732.513 680.927C739.693 694.782 1025.64 1191.65 1025.64 1191.65C1025.64 1191.65 -67.6342 1173.89 -39.3403 1150.21C-11.0463 1126.53 314.46 884.759 321.398 878.596C325.383 875.057 334.788 885.849 346.177 896.132C347.268 897.117 353.519 893.926 354.61 894.898C375.753 919.603 366.857 920.241 405.394 883.536C416.91 863.478 445.364 835.131 451.879 821.164C453.844 818.032 458.726 819.933 460.182 820.201C469.051 817.252 467.65 799.521 481.772 804.015" fill="#5799C9"/>
<path fill-rule="evenodd" clip-rule="evenodd" d="M626.667 728.297L732.513 680.927L623.664 811.696L644.683 815.549L549.492 936.586L534.562 972.339L534.244 987.435L464.67 1045.2L505.192 971.721L523.71 919.829L504.396 899.097L550.81 846.63C562.042 823.393 611.577 750.803 626.679 728.297L626.667 728.297Z" fill="#4E89B5"/>
<path fill-rule="evenodd" clip-rule="evenodd" d="M509.416 752.44L536.796 787.096L489.828 855.217L510.252 861.206L498.277 878.168L461.031 982.973L336.046 1004.21C336.046 1004.21 354.821 947.246 365.966 942.446C377.11 937.659 420.608 887.204 427.49 878.966C434.359 870.728 443.053 822.639 448.069 812.826C453.086 803 509.404 752.427 509.404 752.427" fill="#588BB5"/>
<path fill-rule="evenodd" clip-rule="evenodd" d="M685.487 697.153C694.79 697.348 732.057 680.642 732.057 680.642L677.078 790.495C683.865 834.887 690.746 815.406 666.215 864.485C660.66 879.722 635.231 954.917 632.133 963.809C629.035 972.701 530.905 1067.78 530.905 1067.78L480.918 1015.73C480.918 1015.73 512.475 984.217 519.821 966.344C527.181 948.472 530.183 888.259 550.112 881.007C570.04 873.756 598.959 845.282 598.959 845.282C598.959 845.282 596.779 829.533 599.522 818.534C602.264 807.536 657.929 733.951 657.929 733.951C656.133 723.145 658.246 715.319 658.347 714.072" fill="#588BB5"/>
<path fill-rule="evenodd" clip-rule="evenodd" d="M199.339 942.478C215.439 931.898 322.711 877.949 322.711 877.949C322.711 877.949 302.544 920.325 295.517 924.15C288.491 927.975 274.853 939.106 274.853 939.106L286.404 956.539C273.186 973.213 171.86 1055.71 160.508 1066.25C160.508 1066.25 99.3967 1045.33 101.059 1037.55C102.709 1029.79 183.238 953.058 199.351 942.478" fill="#588BB5"/>
<path fill-rule="evenodd" clip-rule="evenodd" d="M34.6463 1133.31C57.599 1126 330.203 945.23 347.73 962.463C359.701 974.233 380.958 986.361 396.176 985.057C418.471 970.434 456.229 928.566 464.703 935.528C480.434 948.451 718.005 1263.3 696.863 1245.73C684.634 1235.55 -11.9807 1252.35 -11.9807 1252.35C-11.9807 1252.35 11.6811 1140.62 34.6463 1133.31Z" fill="#4782AF"/>
<path fill-rule="evenodd" clip-rule="evenodd" d="M379.194 982.288L396.176 985.069C396.097 1000.68 396.026 1071.78 395.446 1085.73L389.927 1105.78L369.817 1132.96L328.739 1169.32L372.732 1112.55L375.863 1096.74L369.675 1081.48L386.507 1048.03L356.184 1059.48L384.634 1019.46L377.508 1001.29L351.877 990.446L344.281 961.341L379.219 982.301L379.194 982.288Z" fill="#40759E"/>
<path fill-rule="evenodd" clip-rule="evenodd" d="M159.024 1038.77C170.946 1038.57 287.542 969.542 298.835 967.794C310.127 966.045 344.706 957.765 344.706 957.765L298.342 1022.71L312.778 1028.31L307.857 1041.9L309.266 1069.38L276.206 1130.78L198.78 1225.11C198.78 1225.11 190.959 1093.25 182.59 1082.49C174.209 1071.73 147.102 1038.98 159.024 1038.77Z" fill="#4D8CBB"/>
<path fill-rule="evenodd" clip-rule="evenodd" d="M516.578 961.379C506.078 950.977 474.418 923.215 467.094 929.357C459.769 935.499 451.047 960.538 455.283 968.822C459.518 977.107 466.791 990.652 451.339 1006.63C435.875 1022.61 418.086 1059.42 418.086 1059.42L450.535 1044.9C450.535 1044.9 412.618 1109.73 399.714 1123.96C386.809 1138.19 371.237 1159.29 364.56 1177.43C357.869 1195.56 340.851 1255.72 348.564 1248.94C356.265 1242.16 486.611 1188.18 496.661 1189.65C506.712 1191.12 571.366 1143.95 567.157 1134.4C562.948 1124.86 527.09 971.769 516.591 961.367" fill="#4D8CBB"/>
<mask id="mask1_323_1216" style="mask-type:alpha" maskUnits="userSpaceOnUse" x="-40" y="680" width="1066" height="573">
<path fill-rule="evenodd" clip-rule="evenodd" d="M401.056 845.705L510.717 767.808L516.903 772.473L453.422 860.698L465.035 860.942L442.758 884.821C434.406 897.613 414.382 926.062 405.32 938.739C391.987 955.561 327.059 1011.57 310.037 1026.77L355.391 941.562L357.287 920.302L322.798 877.364L382.649 884.582L401.056 845.705Z" fill="#4E89B5"/>
<path fill-rule="evenodd" clip-rule="evenodd" d="M481.772 804.028C503.976 780.646 511.891 771.968 516.828 773.071C530.667 776.148 565.182 819.024 570.463 812.651C575.744 806.279 621.218 769.395 639.132 751.607C656.305 736.353 731.061 678.123 732.514 680.927C739.693 694.782 1025.64 1191.65 1025.64 1191.65C1025.64 1191.65 -67.6339 1173.89 -39.34 1150.21C-11.0461 1126.53 314.46 884.759 321.398 878.596C325.383 875.057 334.788 885.849 346.177 896.132C347.268 897.117 353.519 893.926 354.611 894.898C375.753 919.603 366.858 920.241 405.395 883.536C416.91 863.478 445.364 835.131 451.879 821.164C453.844 818.032 458.726 819.933 460.182 820.201C469.051 817.252 467.65 799.521 481.772 804.015" fill="#5799C9"/>
<path fill-rule="evenodd" clip-rule="evenodd" d="M626.667 728.297L732.514 680.927L623.664 811.696L644.683 815.549L549.493 936.586L534.562 972.339L534.244 987.435L464.67 1045.2L505.192 971.721L523.711 919.829L504.396 899.097L550.81 846.63C562.042 823.393 611.578 750.803 626.68 728.297L626.667 728.297Z" fill="#4E89B5"/>
<path fill-rule="evenodd" clip-rule="evenodd" d="M509.416 752.44L536.796 787.096L489.828 855.217L510.252 861.206L498.277 878.168L461.032 982.973L336.047 1004.21C336.047 1004.21 354.822 947.246 365.966 942.446C377.11 937.659 420.608 887.204 427.49 878.966C434.359 870.728 443.054 822.639 448.07 812.826C453.086 803 509.404 752.427 509.404 752.427" fill="#588BB5"/>
<path fill-rule="evenodd" clip-rule="evenodd" d="M685.488 697.153C694.791 697.348 732.057 680.642 732.057 680.642L677.078 790.495C683.865 834.887 690.746 815.406 666.216 864.485C660.661 879.722 635.231 954.917 632.133 963.809C629.036 972.701 530.906 1067.78 530.906 1067.78L480.918 1015.73C480.918 1015.73 512.475 984.217 519.822 966.344C527.181 948.472 530.184 888.259 550.112 881.007C570.04 873.756 598.96 845.282 598.96 845.282C598.96 845.282 596.78 829.533 599.522 818.534C602.264 807.536 657.93 733.951 657.93 733.951C656.133 723.145 658.247 715.319 658.348 714.072" fill="#588BB5"/>
<path fill-rule="evenodd" clip-rule="evenodd" d="M199.339 942.478C215.44 931.898 322.711 877.949 322.711 877.949C322.711 877.949 302.544 920.325 295.518 924.15C288.491 927.975 274.853 939.106 274.853 939.106L286.404 956.539C273.186 973.213 171.86 1055.71 160.508 1066.25C160.508 1066.25 99.397 1045.33 101.06 1037.55C102.709 1029.79 183.239 953.058 199.352 942.478" fill="#588BB5"/>
<path fill-rule="evenodd" clip-rule="evenodd" d="M34.6466 1133.31C57.5993 1126 330.204 945.23 347.731 962.463C359.701 974.233 380.958 986.361 396.176 985.057C418.471 970.434 456.229 928.566 464.703 935.528C480.434 948.451 718.006 1263.3 696.863 1245.73C684.634 1235.55 -11.9805 1252.35 -11.9805 1252.35C-11.9805 1252.35 11.6813 1140.62 34.6466 1133.31Z" fill="#4782AF"/>
<path fill-rule="evenodd" clip-rule="evenodd" d="M379.195 982.288L396.176 985.069C396.098 1000.68 396.027 1071.78 395.446 1085.73L389.927 1105.78L369.817 1132.96L328.739 1169.32L372.733 1112.55L375.863 1096.74L369.676 1081.48L386.507 1048.03L356.184 1059.48L384.634 1019.46L377.508 1001.29L351.877 990.446L344.281 961.341L379.219 982.301L379.195 982.288Z" fill="#40759E"/>
<path fill-rule="evenodd" clip-rule="evenodd" d="M159.024 1038.77C170.947 1038.57 287.542 969.542 298.835 967.794C310.127 966.045 344.706 957.765 344.706 957.765L298.342 1022.71L312.778 1028.31L307.858 1041.9L309.266 1069.38L276.206 1130.78L198.78 1225.11C198.78 1225.11 190.959 1093.25 182.59 1082.49C174.209 1071.73 147.102 1038.98 159.024 1038.77Z" fill="#4D8CBB"/>
<path fill-rule="evenodd" clip-rule="evenodd" d="M516.578 961.379C506.078 950.977 474.419 923.215 467.094 929.357C459.769 935.499 451.047 960.538 455.283 968.822C459.518 977.107 466.792 990.652 451.34 1006.63C435.875 1022.61 418.086 1059.42 418.086 1059.42L450.535 1044.9C450.535 1044.9 412.618 1109.73 399.714 1123.96C386.81 1138.19 371.237 1159.29 364.56 1177.43C357.87 1195.56 340.852 1255.72 348.565 1248.94C356.265 1242.16 486.611 1188.18 496.662 1189.65C506.712 1191.12 571.367 1143.95 567.157 1134.4C562.948 1124.86 527.091 971.769 516.591 961.367" fill="#4D8CBB"/>
</mask>
<g mask="url(#mask1_323_1216)">
<rect x="-102" y="582" width="1000" height="497" fill="white" fill-opacity="0.6"/>
</g>
<g clip-path="url(#clip2_323_1216)">
<path fill-rule="evenodd" clip-rule="evenodd" d="M-48.9983 865.95C-38.3125 853.145 -36.9525 844.162 -36.7731 844.322C-31.1388 857.797 -22.0072 865.91 -12.3825 874.222L-17.9421 872.742L-7.45058 882.015L-15.5658 878.034L-8.16795 885.856L-14.5645 883.275L7.73376 910.215L3.04097 908.814L6.59794 913.005L3.04097 911.605C3.04097 911.605 18.6886 926.27 17.2688 925.29C15.849 924.309 5.10342 918.427 5.10342 918.427L28.8962 949.168L24.6219 947.627C26.7889 949.678 38.4163 959.791 37.9978 961.312C36.6677 960.661 31.7059 958.061 27.8052 956C30.2263 960.021 31.6312 962.372 31.6312 962.372L10.8872 962.162C5.02868 961.832 -13.7874 960.431 -19.3021 961.312L-54.7074 962.672C-61.9409 963.993 -64.8851 965.793 -67.1269 958.841C-67.1269 958.841 -75.84 961.442 -79.7556 963.352C-83.6862 965.263 -78.9784 957.45 -78.9784 957.45C-78.9784 957.45 -83.6862 959.521 -87.3029 962.122C-90.9197 964.723 -85.1957 957.07 -85.1957 957.07C-92.7281 955.82 -108.869 969.134 -95.1193 955.03L-105.058 960.241C-105.058 960.241 -96.3 949.088 -97.1369 949.198C-97.9738 949.298 -86.3016 938.564 -84.837 936.823C-83.3723 935.083 -91.2933 939.484 -91.8463 939.965C-88.1399 935.893 -72.1335 917.007 -69.1744 912.915C-69.1744 912.915 -71.0126 913.656 -72.836 914.556C-74.6742 915.456 -68.995 908.334 -68.1731 906.433C-67.3361 904.533 -73.3441 909.484 -75.8399 911.125C-78.3358 912.755 -74.6742 909.484 -67.1717 901.632C-59.6692 893.779 -50.9711 880.815 -50.9711 880.815C-50.9711 880.815 -53.9003 881.855 -55.365 883.055C-56.8296 884.256 -52.2713 876.343 -51.6137 874.232C-50.9561 872.122 -57.3079 877.704 -58.9369 879.144C-60.5659 880.585 -55.1408 873.302 -48.9983 865.96" fill="#009CA7"/>
<path fill-rule="evenodd" clip-rule="evenodd" d="M23.2547 877.001C34.0027 866.937 35.3707 859.876 35.5511 860.002C41.2182 870.593 50.4029 876.97 60.0837 883.504L54.4917 882.34L65.0444 889.629L56.8819 886.5L64.3228 892.649L57.889 890.62L80.3172 911.795L75.597 910.694L79.1747 913.989L75.597 912.888C75.597 912.888 91.3358 924.415 89.9077 923.645C88.4797 922.874 77.6715 918.251 77.6715 918.251L101.603 942.414L97.3036 941.203C99.4833 942.815 111.178 950.764 110.757 951.959C109.42 951.448 104.429 949.404 100.506 947.784C102.941 950.945 104.354 952.793 104.354 952.793L83.489 952.628C77.5963 952.368 58.6707 951.267 53.1238 951.959L17.5124 953.029C10.2367 954.067 7.27539 955.482 5.02055 950.017C5.02055 950.017 -3.74326 952.061 -7.68171 953.563C-11.6352 955.065 -6.90005 948.924 -6.90005 948.924C-6.90005 948.924 -11.6352 950.552 -15.273 952.596C-18.9108 954.641 -13.1535 948.625 -13.1535 948.625C-20.7297 947.642 -36.9646 958.108 -23.1349 947.021L-33.1313 951.118C-33.1313 951.118 -24.3224 942.351 -25.1642 942.437C-26.006 942.516 -14.2659 934.079 -12.7927 932.711C-11.3195 931.343 -19.2866 934.802 -19.8428 935.18C-16.1148 931.979 -0.015274 917.134 2.96111 913.918C2.96111 913.918 1.11215 914.5 -0.721786 915.208C-2.57076 915.915 3.14152 910.317 3.9683 908.823C4.8101 907.329 -1.23288 911.221 -3.74327 912.511C-6.25365 913.792 -2.57074 911.221 4.97545 905.049C12.5217 898.876 21.2704 888.686 21.2704 888.686C21.2704 888.686 18.3241 889.504 16.8509 890.447C15.3778 891.391 19.9626 885.171 20.624 883.512C21.2854 881.845 14.8967 886.24 13.2582 887.373C11.6197 888.505 17.0764 882.789 23.2547 877.009" fill="#009CA7"/>
<path fill-rule="evenodd" clip-rule="evenodd" d="M-25.4299 954.199L-48.3409 960.751L-34.0234 939.894C-34.0234 939.894 -37.2964 941.375 -38.7312 942.465C-40.1659 943.556 -34.8454 937.524 -34.0234 936.143C-33.2014 934.763 -39.5531 939.904 -39.5531 939.904L-23.487 909.654C-23.487 909.654 -27.9108 913.605 -29.0466 914.396C-30.1974 915.186 -21.3499 903.482 -20.6923 902.692C-20.0347 901.902 -22.1569 903.562 -23.4721 904.352C-24.7873 905.143 -20.1991 898.901 -20.1991 898.901C-37.4907 918.057 -6.61386 870.871 -7.80947 870.801L-13.3093 874.442L-5.85165 861.978C-5.85165 861.978 -7.55543 863.119 -8.60159 863.809C-9.64776 864.499 -3.49031 857.547 -3.10174 856.846C-2.71316 856.146 -6.37474 858.807 -8.213 860.138C-10.0513 861.468 6.05968 840.081 6.6276 839.351C6.70232 839.381 15.3257 853.405 15.4453 853.525L12.516 851.705L20.8854 869.121L16.4018 866.34C15.9385 866.54 30.1962 886.446 22.2902 878.334C22.2902 878.334 25.8322 884.156 25.3091 883.715C24.786 883.275 23.1271 882.035 23.1271 882.035C23.1271 882.035 39.0737 906.873 38.0425 905.803C37.0112 904.733 31.4068 901.031 31.4068 901.031L38.0425 909.214L35.3972 908.214C35.3972 908.214 48.5938 931.682 48.1903 930.971C47.7867 930.261 40.0451 923.079 40.4188 923.859C40.7924 924.629 43.9757 929.141 43.1238 928.661C42.272 928.19 41.4051 928.07 41.4051 928.07C41.4051 928.07 47.7569 937.534 53.9591 945.236C54.0189 945.316 48.1903 942.655 48.1903 942.655C48.25 943.926 58.1886 956.85 55.7077 956.28C53.3016 955.239 43.2434 954.209 43.2434 954.209C26.5047 954.129 -8.51192 954.139 -25.415 954.189L-25.4299 954.199Z" fill="#23353F"/>
<path fill-rule="evenodd" clip-rule="evenodd" d="M-155.932 1002.44C-125.482 985.477 -15.8493 870.652 9.74257 870.104C35.3195 869.55 56.0382 885.222 70.6429 878.976C101.646 861.913 140.393 830.639 172.173 814.787C183.818 808.463 207.392 820.36 224.134 828.153C224.134 828.153 286.5 839.198 323.228 823.909C359.957 808.619 578.766 858.09 586.3 865.5C595.628 874.669 689.61 905 705.133 932.184C703.907 939.828 426.343 1024.34 380.063 1014.15C333.767 1003.96 -186.397 1019.4 -155.932 1002.45" fill="#009CA7"/>
<path fill-rule="evenodd" clip-rule="evenodd" d="M181.676 813L174.194 813.806C172.953 814.688 169.327 816.985 169.163 818.07C166.248 836.623 158.68 868.88 149.34 887.487C148.443 889.274 149.205 891.17 151.387 892.621L162.686 900.127C165.749 902.163 165.914 905.003 163.104 907.133L122.378 937.904C122.08 938.13 121.811 938.372 121.571 938.621C115.608 944.855 131.615 950.394 140.283 945.089L208.732 903.232C211.736 901.391 212.289 898.777 210.137 896.639L197.254 883.899C194.967 881.628 195.73 878.851 199.167 877.017L219.642 866.079C222.84 864.37 223.752 861.811 221.944 859.619L214.307 850.358C213.126 848.938 213.051 847.331 214.142 845.888C222.153 835.433 217.544 848.369 222.864 828.209L199.167 816.81L181.676 813Z" fill="#23353F"/>
<path fill-rule="evenodd" clip-rule="evenodd" d="M340.174 819.24L325.054 823.139C323.814 824.021 316.876 826.344 316.712 827.429C313.798 845.982 308.701 872.976 299.36 891.583C298.463 893.37 299.225 895.266 301.407 896.717L312.706 904.223C315.77 906.259 315.934 909.099 313.124 911.229L272.399 942C272.1 942.226 271.831 942.468 271.592 942.717C265.629 948.951 281.635 954.49 290.303 949.185L358.752 907.328C361.756 905.486 362.309 902.873 360.157 900.735L347.274 887.995C344.988 885.724 345.75 882.947 349.187 881.113L369.662 870.175C372.861 868.466 373.772 865.907 371.964 863.715L364.327 854.454C363.146 853.034 363.071 851.427 364.162 849.984C372.173 839.529 368.222 838.062 373.542 817.902C373.542 817.902 354.224 814.309 347.274 819.24H340.174Z" fill="#23353F"/>
<path fill-rule="evenodd" clip-rule="evenodd" d="M592.199 841.601L577.08 845.501C575.839 846.383 568.747 855 547.684 853.5C544.77 872.053 560.726 895.338 551.385 913.945C550.489 915.732 551.251 917.628 553.433 919.079L564.732 926.584C567.795 928.621 567.96 931.461 565.15 933.591L524.424 964.361C524.125 964.588 523.856 964.829 523.617 965.079C517.654 971.313 533.66 976.852 542.329 971.547L610.778 929.69C613.782 927.848 614.335 925.235 612.183 923.097L599.3 910.356C597.013 908.086 597.775 905.309 601.213 903.475L621.688 892.537C624.886 890.828 625.798 888.269 623.989 886.077L616.352 876.816C615.172 875.396 615.097 873.789 616.188 872.345C624.199 861.891 620.247 860.424 625.568 840.264C625.568 840.264 606.249 836.671 599.3 841.601H592.199Z" fill="#23353F"/>
<path fill-rule="evenodd" clip-rule="evenodd" d="M21.8719 867.413L14.9223 868.724L3.11562 874.973L16.2824 899.651L-12.0538 925.888L-45.0827 943.006L-46.6819 951.588L-75.1974 984.863C-64.1828 974.861 -36.9824 950.847 -21.5291 942.936L31.7507 924.305L47.4581 913.031L53.481 906.212C58.0842 903.817 84.8511 890.702 87.9447 888.088L46.666 877.61L34.2914 870.261L21.8569 867.413H21.8719Z" fill="#23353F"/>
<path fill-rule="evenodd" clip-rule="evenodd" d="M53.9742 875.051C58.1888 873.397 134.589 832.679 141.195 828.825C147.8 824.971 174.376 813.78 174.376 813.78C170.984 818.25 118.627 875.231 118.627 875.231L131.689 880.091C120.854 884.078 65.7959 934.533 59.7132 939.55L8.0774 966.848L1.0382 988.343L-54.02 995.934C-47.4142 988.546 27.6258 941.594 39.4474 933.745L33.559 922.487L48.1455 903.2L86.6743 888.829L56.5448 880.06C56.5448 880.06 49.7596 876.697 53.9742 875.051Z" fill="#38689B"/>
<path fill-rule="evenodd" clip-rule="evenodd" d="M223.139 827.998L249.455 831.329L276.045 832.108L274.76 853.815L272.742 871.977L237.277 913.211L263.372 936.967L163.642 995.942L114.114 986.588L201.797 936.273L143.212 951.643L202.47 898.247L181.367 873.382L207.148 860.797L201.125 842.283L223.139 827.998Z" fill="#38689B"/>
<path fill-rule="evenodd" clip-rule="evenodd" d="M475.467 838.5L508.501 841.331L536.149 851L533.807 863.817L531.789 881.979L496.324 923.213L522.418 946.969L422.689 1005.94L373.16 996.59L460.844 946.275L402.259 961.645L461.517 908.248L440.414 883.384L466.194 870.799L460.172 852.285L475.467 838.5Z" fill="#38689B"/>
<path fill-rule="evenodd" clip-rule="evenodd" d="M372.499 817.68L404.303 821.579L420.803 828.5L416.53 841.768L414.528 859.939L379.048 901.172L405.157 924.929L305.427 983.904L255.899 974.549L343.583 924.227L284.997 939.604L344.24 886.208L323.152 861.335L348.933 848.759L342.91 830.237L372.499 817.68Z" fill="#38689B"/>
<path fill-rule="evenodd" clip-rule="evenodd" d="M624.525 840.042L656.329 843.941L665.208 845.959L668.556 864.13L666.553 882.301L631.073 923.534L657.183 947.291L557.453 1006.27L507.925 996.911L595.608 946.588L537.023 961.966L596.266 908.57L575.178 883.697L600.959 871.121L594.936 852.599L624.525 840.042Z" fill="#38689B"/>
</g>

</g>
<defs>
<clipPath id="clip0_323_1216">
<rect width="540" height="900" fill="white"/>
</clipPath>
<clipPath id="clip1_323_1216">
<rect width="613.394" height="338.218" fill="white" transform="translate(-147.268 637.658) rotate(1.2047)"/>
</clipPath>
<clipPath id="clip2_323_1216">
<rect width="1000" height="298" fill="white" transform="translate(-347 748)"/>
</clipPath>
<clipPath id="clip3_323_1216">
<rect width="240" height="55.5975" fill="white" transform="translate(150 538)"/>
</clipPath>
</defs>
</svg>
