<svg width="900" height="900" viewBox="0 0 900 900" fill="none" xmlns="http://www.w3.org/2000/svg">
<g clip-path="url(#clip0_323_1049)">
<rect width="900" height="900" fill="white"/>
<g clip-path="url(#clip1_323_1049)">
<path fill-rule="evenodd" clip-rule="evenodd" d="M193.529 664.2L256.621 619.383L260.18 622.067L223.657 672.826L230.338 672.967L217.522 686.706C212.717 694.065 201.196 710.433 195.983 717.727C188.311 727.405 150.956 759.631 141.162 768.374L167.256 719.351L168.347 707.119L148.504 682.415L182.939 686.568L193.529 664.2Z" fill="#4E89B5"/>
<path fill-rule="evenodd" clip-rule="evenodd" d="M239.968 640.222C252.743 626.77 257.297 621.777 260.137 622.411C268.099 624.182 287.957 648.85 290.996 645.183C294.034 641.517 320.197 620.296 330.503 610.062C340.384 601.286 383.394 567.784 384.23 569.397C388.36 577.369 552.878 863.238 552.878 863.238C552.878 863.238 -76.1267 853.015 -59.8481 839.392C-43.5695 825.769 143.707 686.67 147.699 683.124C149.991 681.088 155.402 687.297 161.955 693.213C162.583 693.78 166.179 691.944 166.807 692.503C178.971 706.717 173.853 707.084 196.025 685.966C202.65 674.426 219.021 658.117 222.77 650.081C223.9 648.279 226.709 649.373 227.547 649.527C232.649 647.83 231.843 637.629 239.968 640.215" fill="#5799C9"/>
<path fill-rule="evenodd" clip-rule="evenodd" d="M323.332 596.651L384.23 569.397L321.604 644.634L333.697 646.85L278.931 716.488L270.34 737.058L270.158 745.743L230.129 778.977L253.443 736.702L264.097 706.847L252.984 694.919L279.688 664.733C286.151 651.363 314.65 609.6 323.339 596.651L323.332 596.651Z" fill="#4E89B5"/>
<path fill-rule="evenodd" clip-rule="evenodd" d="M255.873 610.541L271.625 630.48L244.603 669.673L256.354 673.118L249.464 682.878L228.035 743.176L156.127 755.392C156.127 755.392 166.928 722.621 173.34 719.859C179.752 717.105 204.778 688.076 208.738 683.337C212.69 678.597 217.692 650.93 220.578 645.284C223.464 639.63 255.866 610.534 255.866 610.534" fill="#588BB5"/>
<path fill-rule="evenodd" clip-rule="evenodd" d="M357.174 578.732C362.526 578.845 383.967 569.233 383.967 569.233L352.336 632.436C356.24 657.976 360.199 646.768 346.086 675.005C342.89 683.772 328.259 727.034 326.477 732.15C324.695 737.266 268.237 791.969 268.237 791.969L239.477 762.025C239.477 762.025 257.633 743.892 261.86 733.609C266.094 723.326 267.821 688.683 279.287 684.511C290.752 680.339 307.391 663.957 307.391 663.957C307.391 663.957 306.137 654.896 307.714 648.568C309.292 642.24 341.318 599.904 341.318 599.904C340.285 593.687 341.501 589.184 341.559 588.466" fill="#588BB5"/>
<path fill-rule="evenodd" clip-rule="evenodd" d="M77.4734 719.877C86.7367 713.79 148.454 682.752 148.454 682.752C148.454 682.752 136.851 707.132 132.809 709.333C128.766 711.533 120.919 717.938 120.919 717.938L127.565 727.967C119.96 737.561 61.6638 785.023 55.1323 791.088C55.1323 791.088 19.9727 779.05 20.9293 774.578C21.8785 770.113 68.2102 725.965 77.4806 719.878" fill="#588BB5"/>
<path fill-rule="evenodd" clip-rule="evenodd" d="M-17.2807 829.672C-4.0751 825.464 152.765 721.461 162.849 731.376C169.736 738.148 181.966 745.125 190.722 744.375C203.548 735.962 225.272 711.874 230.148 715.879C239.198 723.314 375.883 904.46 363.718 894.35C356.683 888.495 -44.1071 898.158 -44.1071 898.158C-44.1071 898.158 -30.4935 833.879 -17.2807 829.672Z" fill="#4782AF"/>
<path fill-rule="evenodd" clip-rule="evenodd" d="M180.951 742.782L190.721 744.382C190.676 753.365 190.635 794.268 190.301 802.297L187.126 813.831L175.556 829.472L151.922 850.386L177.233 817.727L179.035 808.629L175.475 799.851L185.158 780.605L167.712 787.195L184.081 764.166L179.981 753.716L165.234 747.476L160.864 730.73L180.966 742.79L180.951 742.782Z" fill="#40759E"/>
<path fill-rule="evenodd" clip-rule="evenodd" d="M54.2788 775.28C61.138 775.165 128.22 735.449 134.717 734.443C141.214 733.437 161.109 728.673 161.109 728.673L134.434 766.04L142.739 769.262L139.908 777.08L140.719 792.888L121.698 828.217L77.1517 882.487C77.1517 882.487 72.6521 806.622 67.8372 800.433C63.0152 794.244 47.4194 775.401 54.2788 775.28Z" fill="#4D8CBB"/>
<path fill-rule="evenodd" clip-rule="evenodd" d="M259.993 730.752C253.952 724.767 235.737 708.795 231.523 712.329C227.309 715.862 222.291 730.268 224.728 735.035C227.165 739.801 231.349 747.594 222.459 756.787C213.562 765.979 203.327 787.161 203.327 787.161L221.996 778.806C221.996 778.806 200.181 816.104 192.757 824.292C185.333 832.481 176.373 844.619 172.531 855.053C168.682 865.487 158.891 900.098 163.329 896.195C167.759 892.299 242.752 861.238 248.535 862.085C254.317 862.933 291.515 835.792 289.094 830.3C286.672 824.808 266.042 736.73 260.001 730.745" fill="#4D8CBB"/>
<mask id="mask0_323_1049" style="mask-type:alpha" maskUnits="userSpaceOnUse" x="-61" y="568" width="614" height="331">
<path fill-rule="evenodd" clip-rule="evenodd" d="M193.529 664.2L256.621 619.383L260.18 622.067L223.657 672.826L230.338 672.967L217.522 686.706C212.717 694.065 201.196 710.433 195.983 717.727C188.311 727.405 150.956 759.631 141.162 768.374L167.256 719.351L168.347 707.119L148.504 682.415L182.939 686.568L193.529 664.2Z" fill="#4E89B5"/>
<path fill-rule="evenodd" clip-rule="evenodd" d="M239.968 640.222C252.743 626.77 257.297 621.777 260.137 622.411C268.099 624.182 287.957 648.85 290.996 645.183C294.034 641.517 320.197 620.296 330.503 610.062C340.384 601.286 383.394 567.784 384.23 569.397C388.36 577.369 552.878 863.238 552.878 863.238C552.878 863.238 -76.1267 853.015 -59.8481 839.392C-43.5695 825.769 143.707 686.67 147.699 683.124C149.991 681.088 155.402 687.297 161.955 693.213C162.583 693.78 166.179 691.944 166.807 692.503C178.971 706.717 173.853 707.084 196.025 685.966C202.65 674.426 219.021 658.117 222.77 650.081C223.9 648.279 226.709 649.373 227.547 649.527C232.649 647.83 231.843 637.629 239.968 640.215" fill="#5799C9"/>
<path fill-rule="evenodd" clip-rule="evenodd" d="M323.332 596.651L384.23 569.397L321.604 644.634L333.697 646.85L278.931 716.488L270.34 737.058L270.158 745.743L230.129 778.977L253.443 736.702L264.097 706.847L252.984 694.919L279.688 664.733C286.151 651.363 314.65 609.6 323.339 596.651L323.332 596.651Z" fill="#4E89B5"/>
<path fill-rule="evenodd" clip-rule="evenodd" d="M255.873 610.541L271.625 630.48L244.603 669.673L256.354 673.118L249.464 682.878L228.035 743.176L156.127 755.392C156.127 755.392 166.928 722.621 173.34 719.859C179.752 717.105 204.778 688.076 208.738 683.337C212.69 678.597 217.692 650.93 220.578 645.284C223.464 639.63 255.866 610.534 255.866 610.534" fill="#588BB5"/>
<path fill-rule="evenodd" clip-rule="evenodd" d="M357.174 578.732C362.526 578.845 383.967 569.233 383.967 569.233L352.336 632.436C356.24 657.976 360.199 646.768 346.086 675.005C342.89 683.772 328.259 727.034 326.477 732.15C324.695 737.266 268.237 791.969 268.237 791.969L239.477 762.025C239.477 762.025 257.633 743.892 261.86 733.609C266.094 723.326 267.821 688.683 279.287 684.511C290.752 680.339 307.391 663.957 307.391 663.957C307.391 663.957 306.137 654.896 307.714 648.568C309.292 642.24 341.318 599.904 341.318 599.904C340.285 593.687 341.501 589.184 341.559 588.466" fill="#588BB5"/>
<path fill-rule="evenodd" clip-rule="evenodd" d="M77.4734 719.877C86.7367 713.79 148.454 682.752 148.454 682.752C148.454 682.752 136.851 707.132 132.809 709.333C128.766 711.533 120.919 717.938 120.919 717.938L127.565 727.967C119.96 737.561 61.6638 785.023 55.1323 791.088C55.1323 791.088 19.9727 779.05 20.9293 774.578C21.8785 770.113 68.2102 725.965 77.4806 719.878" fill="#588BB5"/>
<path fill-rule="evenodd" clip-rule="evenodd" d="M-17.2807 829.672C-4.0751 825.464 152.765 721.461 162.849 731.376C169.736 738.148 181.966 745.125 190.722 744.375C203.548 735.962 225.272 711.874 230.148 715.879C239.198 723.314 375.883 904.46 363.718 894.35C356.683 888.495 -44.1071 898.158 -44.1071 898.158C-44.1071 898.158 -30.4935 833.879 -17.2807 829.672Z" fill="#4782AF"/>
<path fill-rule="evenodd" clip-rule="evenodd" d="M180.951 742.782L190.721 744.382C190.676 753.365 190.635 794.268 190.301 802.297L187.126 813.831L175.556 829.472L151.922 850.386L177.233 817.727L179.035 808.629L175.475 799.851L185.158 780.605L167.712 787.195L184.081 764.166L179.981 753.716L165.234 747.476L160.864 730.73L180.966 742.79L180.951 742.782Z" fill="#40759E"/>
<path fill-rule="evenodd" clip-rule="evenodd" d="M54.2788 775.28C61.138 775.165 128.22 735.449 134.717 734.443C141.214 733.437 161.109 728.673 161.109 728.673L134.434 766.04L142.739 769.262L139.908 777.08L140.719 792.888L121.698 828.217L77.1517 882.487C77.1517 882.487 72.6521 806.622 67.8372 800.433C63.0152 794.244 47.4194 775.401 54.2788 775.28Z" fill="#4D8CBB"/>
<path fill-rule="evenodd" clip-rule="evenodd" d="M259.993 730.752C253.952 724.767 235.737 708.795 231.523 712.329C227.309 715.862 222.291 730.268 224.728 735.035C227.165 739.801 231.349 747.594 222.459 756.787C213.562 765.979 203.327 787.161 203.327 787.161L221.996 778.806C221.996 778.806 200.181 816.104 192.757 824.292C185.333 832.481 176.373 844.619 172.531 855.053C168.682 865.487 158.891 900.098 163.329 896.195C167.759 892.299 242.752 861.238 248.535 862.085C254.317 862.933 291.515 835.792 289.094 830.3C286.672 824.808 266.042 736.73 260.001 730.745" fill="#4D8CBB"/>
</mask>
<g mask="url(#mask0_323_1049)">
<rect x="-50" y="362" width="1000" height="497" fill="white" fill-opacity="0.8"/>
</g>
</g>
<path fill-rule="evenodd" clip-rule="evenodd" d="M404.055 665.705L513.717 587.808L519.903 592.473L456.421 680.698L468.034 680.942L445.758 704.821C437.406 717.613 417.382 746.062 408.32 758.739C394.987 775.561 330.059 831.574 313.037 846.769L358.391 761.562L360.287 740.302L325.798 697.364L385.648 704.582L404.055 665.705Z" fill="#4E89B5"/>
<path fill-rule="evenodd" clip-rule="evenodd" d="M484.772 624.028C506.976 600.646 514.891 591.968 519.827 593.071C533.667 596.148 568.182 639.024 573.463 632.651C578.744 626.279 624.218 589.395 642.132 571.607C659.305 556.353 734.061 498.123 735.513 500.927C742.693 514.782 1028.64 1011.65 1028.64 1011.65C1028.64 1011.65 -64.6342 993.885 -36.3403 970.207C-8.04635 946.529 317.46 704.759 324.398 698.596C328.383 695.057 337.788 705.849 349.177 716.132C350.268 717.117 356.519 713.926 357.61 714.898C378.753 739.603 369.857 740.241 408.394 703.536C419.91 683.478 448.364 655.131 454.879 641.164C456.844 638.032 461.726 639.933 463.182 640.201C472.051 637.252 470.65 619.521 484.772 624.015" fill="#5799C9"/>
<path fill-rule="evenodd" clip-rule="evenodd" d="M629.667 548.297L735.513 500.927L626.664 631.696L647.683 635.549L552.492 756.586L537.562 792.339L537.244 807.435L467.67 865.2L508.192 791.721L526.71 739.829L507.396 719.097L553.81 666.63C565.042 643.393 614.577 570.803 629.679 548.297L629.667 548.297Z" fill="#4E89B5"/>
<path fill-rule="evenodd" clip-rule="evenodd" d="M512.416 572.44L539.796 607.096L492.828 675.217L513.252 681.206L501.277 698.168L464.031 802.973L339.046 824.205C339.046 824.205 357.821 767.246 368.966 762.446C380.11 757.659 423.608 707.204 430.49 698.966C437.359 690.728 446.053 642.639 451.069 632.826C456.086 623 512.404 572.427 512.404 572.427" fill="#588BB5"/>
<path fill-rule="evenodd" clip-rule="evenodd" d="M688.487 517.153C697.79 517.348 735.057 500.642 735.057 500.642L680.078 610.495C686.865 654.887 693.746 635.406 669.215 684.485C663.66 699.722 638.231 774.917 635.133 783.809C632.035 792.701 533.905 887.78 533.905 887.78L483.918 835.734C483.918 835.734 515.475 804.217 522.821 786.344C530.181 768.472 533.183 708.259 553.112 701.007C573.04 693.756 601.959 665.282 601.959 665.282C601.959 665.282 599.779 649.533 602.522 638.534C605.264 627.536 660.929 553.951 660.929 553.951C659.133 543.145 661.246 535.319 661.347 534.072" fill="#588BB5"/>
<path fill-rule="evenodd" clip-rule="evenodd" d="M202.339 762.478C218.439 751.898 325.711 697.949 325.711 697.949C325.711 697.949 305.544 740.325 298.517 744.15C291.491 747.975 277.853 759.106 277.853 759.106L289.404 776.539C276.186 793.213 174.86 875.707 163.508 886.25C163.508 886.25 102.397 865.326 104.059 857.553C105.709 849.793 186.238 773.058 202.351 762.478" fill="#588BB5"/>
<path fill-rule="evenodd" clip-rule="evenodd" d="M37.6463 953.311C60.599 945.999 333.203 765.23 350.73 782.463C362.701 794.233 383.958 806.361 399.176 805.057C421.471 790.434 459.229 748.566 467.703 755.528C483.434 768.451 721.005 1083.3 699.863 1065.73C687.634 1055.55 -8.98071 1072.35 -8.98071 1072.35C-8.98071 1072.35 14.6811 960.624 37.6463 953.311Z" fill="#4782AF"/>
<path fill-rule="evenodd" clip-rule="evenodd" d="M382.194 802.288L399.176 805.069C399.097 820.683 399.026 891.777 398.446 905.731L392.927 925.778L372.817 952.964L331.739 989.316L375.732 932.55L378.863 916.738L372.675 901.479L389.507 868.028L359.184 879.483L387.634 839.456L380.508 821.292L354.877 810.446L347.281 781.341L382.219 802.301L382.194 802.288Z" fill="#40759E"/>
<path fill-rule="evenodd" clip-rule="evenodd" d="M162.024 858.772C173.946 858.573 290.542 789.542 301.835 787.794C313.127 786.045 347.706 777.765 347.706 777.765L301.342 842.713L315.778 848.314L310.857 861.902L312.266 889.378L279.206 950.783L201.78 1045.11C201.78 1045.11 193.959 913.249 185.59 902.492C177.209 891.735 150.102 858.984 162.024 858.772Z" fill="#4D8CBB"/>
<path fill-rule="evenodd" clip-rule="evenodd" d="M519.578 781.379C509.078 770.977 477.418 743.215 470.094 749.357C462.769 755.499 454.047 780.538 458.283 788.822C462.518 797.107 469.791 810.652 454.339 826.63C438.875 842.607 421.086 879.423 421.086 879.423L453.535 864.902C453.535 864.902 415.618 929.729 402.714 943.961C389.809 958.194 374.237 979.291 367.56 997.427C360.869 1015.56 343.851 1075.72 351.564 1068.94C359.265 1062.16 489.611 1008.18 499.661 1009.65C509.712 1011.12 574.366 963.949 570.157 954.403C565.948 944.858 530.09 791.769 519.591 781.367" fill="#4D8CBB"/>
<mask id="mask1_323_1049" style="mask-type:alpha" maskUnits="userSpaceOnUse" x="-37" y="500" width="1066" height="573">
<path fill-rule="evenodd" clip-rule="evenodd" d="M404.056 665.705L513.717 587.808L519.903 592.473L456.422 680.698L468.035 680.942L445.758 704.821C437.406 717.613 417.382 746.062 408.32 758.739C394.987 775.561 330.059 831.574 313.037 846.769L358.391 761.562L360.287 740.302L325.798 697.364L385.649 704.582L404.056 665.705Z" fill="#4E89B5"/>
<path fill-rule="evenodd" clip-rule="evenodd" d="M484.772 624.028C506.976 600.646 514.891 591.968 519.828 593.071C533.667 596.148 568.182 639.024 573.463 632.651C578.744 626.279 624.218 589.395 642.132 571.607C659.305 556.353 734.061 498.123 735.514 500.927C742.693 514.782 1028.64 1011.65 1028.64 1011.65C1028.64 1011.65 -64.6339 993.885 -36.34 970.207C-8.0461 946.529 317.46 704.759 324.398 698.596C328.383 695.057 337.788 705.849 349.177 716.132C350.268 717.117 356.519 713.926 357.611 714.898C378.753 739.603 369.858 740.241 408.395 703.536C419.91 683.478 448.364 655.131 454.879 641.164C456.844 638.032 461.726 639.933 463.182 640.201C472.051 637.252 470.65 619.521 484.772 624.015" fill="#5799C9"/>
<path fill-rule="evenodd" clip-rule="evenodd" d="M629.667 548.297L735.514 500.927L626.664 631.696L647.683 635.549L552.493 756.586L537.562 792.339L537.244 807.435L467.67 865.2L508.192 791.721L526.711 739.829L507.396 719.097L553.81 666.63C565.042 643.393 614.578 570.803 629.68 548.297L629.667 548.297Z" fill="#4E89B5"/>
<path fill-rule="evenodd" clip-rule="evenodd" d="M512.416 572.44L539.796 607.096L492.828 675.217L513.252 681.206L501.277 698.168L464.032 802.973L339.047 824.205C339.047 824.205 357.822 767.246 368.966 762.446C380.11 757.659 423.608 707.204 430.49 698.966C437.359 690.728 446.054 642.639 451.07 632.826C456.086 623 512.404 572.427 512.404 572.427" fill="#588BB5"/>
<path fill-rule="evenodd" clip-rule="evenodd" d="M688.488 517.153C697.791 517.348 735.057 500.642 735.057 500.642L680.078 610.495C686.865 654.887 693.746 635.406 669.216 684.485C663.661 699.722 638.231 774.917 635.133 783.809C632.036 792.701 533.906 887.78 533.906 887.78L483.918 835.734C483.918 835.734 515.475 804.217 522.822 786.344C530.181 768.472 533.184 708.259 553.112 701.007C573.04 693.756 601.96 665.282 601.96 665.282C601.96 665.282 599.78 649.533 602.522 638.534C605.264 627.536 660.93 553.951 660.93 553.951C659.133 543.145 661.247 535.319 661.348 534.072" fill="#588BB5"/>
<path fill-rule="evenodd" clip-rule="evenodd" d="M202.339 762.478C218.44 751.898 325.711 697.949 325.711 697.949C325.711 697.949 305.544 740.325 298.518 744.15C291.491 747.975 277.853 759.106 277.853 759.106L289.404 776.539C276.186 793.213 174.86 875.707 163.508 886.25C163.508 886.25 102.397 865.326 104.06 857.553C105.709 849.793 186.239 773.058 202.352 762.478" fill="#588BB5"/>
<path fill-rule="evenodd" clip-rule="evenodd" d="M37.6466 953.311C60.5993 945.999 333.204 765.23 350.731 782.463C362.701 794.233 383.958 806.361 399.176 805.057C421.471 790.434 459.229 748.566 467.703 755.528C483.434 768.451 721.006 1083.3 699.863 1065.73C687.634 1055.55 -8.98046 1072.35 -8.98046 1072.35C-8.98046 1072.35 14.6813 960.624 37.6466 953.311Z" fill="#4782AF"/>
<path fill-rule="evenodd" clip-rule="evenodd" d="M382.195 802.288L399.176 805.069C399.098 820.683 399.027 891.777 398.446 905.731L392.927 925.778L372.817 952.964L331.739 989.316L375.733 932.55L378.863 916.738L372.676 901.479L389.507 868.028L359.184 879.483L387.634 839.456L380.508 821.292L354.877 810.446L347.281 781.341L382.219 802.301L382.195 802.288Z" fill="#40759E"/>
<path fill-rule="evenodd" clip-rule="evenodd" d="M162.024 858.772C173.947 858.573 290.542 789.542 301.835 787.794C313.127 786.045 347.706 777.765 347.706 777.765L301.342 842.713L315.778 848.314L310.858 861.902L312.266 889.378L279.206 950.783L201.78 1045.11C201.78 1045.11 193.959 913.249 185.59 902.492C177.209 891.735 150.102 858.984 162.024 858.772Z" fill="#4D8CBB"/>
<path fill-rule="evenodd" clip-rule="evenodd" d="M519.578 781.379C509.078 770.977 477.419 743.215 470.094 749.357C462.769 755.499 454.047 780.538 458.283 788.822C462.518 797.107 469.792 810.652 454.34 826.63C438.875 842.607 421.086 879.423 421.086 879.423L453.535 864.902C453.535 864.902 415.618 929.729 402.714 943.961C389.81 958.194 374.237 979.291 367.56 997.427C360.87 1015.56 343.852 1075.72 351.565 1068.94C359.265 1062.16 489.611 1008.18 499.662 1009.65C509.712 1011.12 574.367 963.949 570.157 954.403C565.948 944.858 530.091 791.769 519.591 781.367" fill="#4D8CBB"/>
</mask>
<g mask="url(#mask1_323_1049)">
<rect x="-99.0002" y="402" width="1000" height="497" fill="white" fill-opacity="0.6"/>
</g>
<g clip-path="url(#clip2_323_1049)">
<path fill-rule="evenodd" clip-rule="evenodd" d="M253.002 812.95C263.688 800.145 265.048 791.162 265.227 791.322C270.861 804.797 279.993 812.91 289.617 821.222L284.058 819.742L294.549 829.015L286.434 825.034L293.832 832.856L287.435 830.275L309.734 857.215L305.041 855.814L308.598 860.005L305.041 858.605C305.041 858.605 320.689 873.27 319.269 872.29C317.849 871.309 307.103 865.427 307.103 865.427L330.896 896.168L326.622 894.627C328.789 896.678 340.416 906.791 339.998 908.312C338.668 907.661 333.706 905.061 329.805 903C332.226 907.021 333.631 909.372 333.631 909.372L312.887 909.162C307.029 908.832 288.213 907.431 282.698 908.312L247.293 909.672C240.059 910.993 237.115 912.793 234.873 905.841C234.873 905.841 226.16 908.442 222.244 910.352C218.314 912.263 223.022 904.45 223.022 904.45C223.022 904.45 218.314 906.521 214.697 909.122C211.08 911.723 216.804 904.07 216.804 904.07C209.272 902.82 193.131 916.134 206.881 902.03L196.942 907.241C196.942 907.241 205.7 896.088 204.863 896.198C204.026 896.298 215.698 885.564 217.163 883.823C218.628 882.083 210.707 886.484 210.154 886.965C213.86 882.893 229.866 864.007 232.826 859.915C232.826 859.915 230.987 860.656 229.164 861.556C227.326 862.456 233.005 855.334 233.827 853.433C234.664 851.533 228.656 856.484 226.16 858.125C223.664 859.755 227.326 856.484 234.828 848.632C242.331 840.779 251.029 827.815 251.029 827.815C251.029 827.815 248.1 828.855 246.635 830.055C245.17 831.256 249.729 823.343 250.386 821.232C251.044 819.122 244.692 824.704 243.063 826.144C241.434 827.585 246.859 820.302 253.002 812.96" fill="#009CA7"/>
<path fill-rule="evenodd" clip-rule="evenodd" d="M325.255 824.001C336.003 813.937 337.371 806.876 337.551 807.002C343.218 817.593 352.403 823.97 362.084 830.504L356.492 829.34L367.044 836.629L358.882 833.5L366.323 839.649L359.889 837.62L382.317 858.795L377.597 857.694L381.175 860.989L377.597 859.888C377.597 859.888 393.336 871.415 391.908 870.645C390.48 869.874 379.671 865.251 379.671 865.251L403.603 889.414L399.304 888.203C401.483 889.815 413.178 897.764 412.757 898.959C411.42 898.448 406.429 896.404 402.506 894.784C404.941 897.945 406.354 899.793 406.354 899.793L385.489 899.628C379.596 899.368 360.671 898.267 355.124 898.959L319.512 900.029C312.237 901.067 309.275 902.482 307.021 897.017C307.021 897.017 298.257 899.061 294.318 900.563C290.365 902.065 295.1 895.924 295.1 895.924C295.1 895.924 290.365 897.552 286.727 899.596C283.089 901.641 288.847 895.625 288.847 895.625C281.27 894.642 265.035 905.108 278.865 894.021L268.869 898.118C268.869 898.118 277.678 889.351 276.836 889.437C275.994 889.516 287.734 881.079 289.207 879.711C290.68 878.343 282.713 881.802 282.157 882.18C285.885 878.979 301.985 864.134 304.961 860.918C304.961 860.918 303.112 861.5 301.278 862.208C299.429 862.915 305.142 857.317 305.968 855.823C306.81 854.329 300.767 858.221 298.257 859.511C295.746 860.792 299.429 858.221 306.975 852.049C314.522 845.876 323.27 835.686 323.27 835.686C323.27 835.686 320.324 836.504 318.851 837.447C317.378 838.391 321.963 832.171 322.624 830.512C323.285 828.845 316.897 833.24 315.258 834.373C313.62 835.505 319.076 829.789 325.255 824.009" fill="#009CA7"/>
<path fill-rule="evenodd" clip-rule="evenodd" d="M276.57 901.199L253.659 907.751L267.977 886.894C267.977 886.894 264.704 888.375 263.269 889.465C261.834 890.556 267.155 884.524 267.977 883.143C268.799 881.763 262.447 886.904 262.447 886.904L278.513 856.654C278.513 856.654 274.089 860.605 272.953 861.396C271.803 862.186 280.65 850.482 281.308 849.692C281.965 848.902 279.843 850.562 278.528 851.352C277.213 852.143 281.801 845.901 281.801 845.901C264.509 865.057 295.386 817.871 294.191 817.801L288.691 821.442L296.148 808.978C296.148 808.978 294.445 810.119 293.398 810.809C292.352 811.499 298.51 804.547 298.898 803.846C299.287 803.146 295.625 805.807 293.787 807.138C291.949 808.468 308.06 787.081 308.628 786.351C308.702 786.381 317.326 800.405 317.445 800.525L314.516 798.705L322.885 816.121L318.402 813.34C317.938 813.54 332.196 833.446 324.29 825.334C324.29 825.334 327.832 831.156 327.309 830.715C326.786 830.275 325.127 829.035 325.127 829.035C325.127 829.035 341.074 853.873 340.042 852.803C339.011 851.733 333.407 848.031 333.407 848.031L340.042 856.214L337.397 855.214C337.397 855.214 350.594 878.682 350.19 877.971C349.787 877.261 342.045 870.079 342.419 870.859C342.792 871.629 345.976 876.141 345.124 875.661C344.272 875.19 343.405 875.07 343.405 875.07C343.405 875.07 349.757 884.534 355.959 892.236C356.019 892.316 350.19 889.655 350.19 889.655C350.25 890.926 360.189 903.85 357.708 903.28C355.302 902.239 345.243 901.209 345.243 901.209C328.505 901.129 293.488 901.139 276.585 901.189L276.57 901.199Z" fill="#23353F"/>
<path fill-rule="evenodd" clip-rule="evenodd" d="M170.697 802.026C170.697 802.026 185.2 819.144 185.22 819.183L181.115 816.873L187.524 824.516L182.76 821.817L196.025 843.918L191.571 841.336L201.311 853.003L198.271 851.03L200.285 855.027L197.922 853.405L207.566 863.891L203.867 861.477C205.281 863.45 207.604 867.706 208.572 869.809L204.758 866.383L216.434 881.969L212.329 878.309L229.582 901.449L223.754 898.749L227.743 904.135L223.095 901.462L243.408 925.445L238.257 922.395L242.207 929.844L235.604 925.847L245.906 942.121H243.582C245.228 946.157 246.835 948.467 245.325 947.909L245.422 948C232.738 946.43 90.9761 944.859 90.6856 944.756L86.3868 944.704L106.583 916.23L98.6248 920.098L105.247 909.625L101.936 910.572L113.303 900.982L107.28 903.097L113.612 896.154L106.68 898.983L125.908 875.415L122.384 876.557L126.818 871.833L122.016 874.195L127.942 869.497H126.838L128.561 866.538L123.759 870.471L147.15 843.711L143.239 845.06L146.783 841.141L142.619 843.373L148.951 836.443L146.182 838.247L155.361 826.23L152.379 828.604L159.756 816.457L157.549 817.015C157.665 816.898 170.581 802.104 170.677 802" fill="#009CA7"/>
<path fill-rule="evenodd" clip-rule="evenodd" d="M188.961 908.652L166.05 915.204L180.368 894.347C180.368 894.347 177.095 895.827 175.66 896.918C174.225 898.008 179.546 891.976 180.368 890.596C181.19 889.215 174.838 894.357 174.838 894.357L190.904 864.107C190.904 864.107 186.48 868.058 185.344 868.848C184.194 869.639 193.041 857.935 193.699 857.144C194.356 856.354 192.234 858.015 190.919 858.805C189.604 859.595 194.192 853.353 194.192 853.353C176.9 872.51 207.777 825.324 206.581 825.254L201.082 828.895L208.539 816.431C208.539 816.431 206.836 817.571 205.789 818.261C204.743 818.952 210.901 811.999 211.289 811.299C211.678 810.599 208.016 813.26 206.178 814.59C204.34 815.921 220.451 794.533 221.019 793.803C221.093 793.833 229.717 807.858 229.836 807.978L226.907 806.157L235.276 823.573L230.793 820.792C230.329 820.992 244.587 840.899 236.681 832.786C236.681 832.786 240.223 838.608 239.7 838.168C239.177 837.728 237.518 836.488 237.518 836.488C237.518 836.488 253.465 861.326 252.433 860.256C251.402 859.185 245.798 855.484 245.798 855.484L252.433 863.667L249.788 862.666C249.788 862.666 262.985 886.134 262.581 885.424C262.178 884.714 254.436 877.531 254.81 878.312C255.183 879.082 258.367 883.593 257.515 883.113C256.663 882.643 255.796 882.523 255.796 882.523C255.796 882.523 262.148 891.986 268.35 899.689C268.41 899.769 262.581 897.108 262.581 897.108C262.641 898.378 272.58 911.303 270.099 910.732C267.707 909.692 257.634 908.662 257.634 908.662C240.896 908.582 205.879 908.592 188.976 908.642L188.961 908.652Z" fill="#23353F"/>
<path fill-rule="evenodd" clip-rule="evenodd" d="M158.04 884.969L153.935 881.309L171.188 904.449L165.36 901.749L169.348 907.135L164.701 904.462L185.014 928.445L179.863 925.395L183.813 932.844L177.21 928.847L187.512 945.121H185.188C186.834 949.157 188.441 951.467 186.931 950.909L187.028 951C174.344 949.43 32.5819 947.859 32.2914 947.756L27.9927 947.704L48.1891 919.23L40.2112 923.098L46.8337 912.625L43.5224 913.572L54.889 903.981L48.8669 906.097L55.1988 899.154L48.2666 901.983L67.4948 878.415L63.9706 879.557L68.4049 874.833L63.6027 877.195L69.528 872.497H68.4243L70.1477 869.538L65.3261 873.471L88.7176 846.711L84.8061 848.06L88.3497 844.141L84.1864 846.373L90.5184 839.443L87.7494 841.247L96.9278 829.23L93.9458 831.604L101.323 819.457L99.1159 820.015C99.2321 819.898 112.148 805.104 112.245 805" fill="#23353F"/>
<path fill-rule="evenodd" clip-rule="evenodd" d="M111.971 805C111.971 805 125.996 821.13 126.015 821.169L121.899 818.857L128.326 826.506L123.549 823.805L136.85 845.922L132.384 843.338L142.15 855.013L139.102 853.039L141.121 857.039L138.752 855.416L148.422 865.909L144.713 863.493C146.131 865.468 148.461 869.727 149.451 871.831L145.626 868.403L157.334 884" fill="#23353F"/>
<path fill-rule="evenodd" clip-rule="evenodd" d="M15.6854 765.026C15.6854 765.026 30.1888 782.144 30.2082 782.183L26.1031 779.873L32.5125 787.516L27.749 784.817L41.0132 806.918L36.5595 804.336L46.2995 816.003L43.2594 814.03L45.2733 818.027L42.9302 816.405L52.5928 826.891L48.8943 824.477C50.3078 826.45 52.6315 830.706 53.5997 832.809L49.785 829.383L61.4614 844.969L57.3563 841.309L74.6094 864.449L68.7809 861.749L72.7699 867.135L68.1225 864.462L88.4352 888.445L83.2844 885.395L87.2346 892.844L80.6316 888.847L90.9331 905.121H88.6095C90.2554 909.157 91.8626 911.467 90.3522 910.909L90.449 911C77.7657 909.43 -63.9967 907.859 -64.2872 907.756L-68.5859 907.704L-48.3895 879.23L-56.3674 883.098L-49.745 872.625L-53.0562 873.572L-41.6896 863.981L-47.7118 866.097L-41.3798 859.154L-48.312 861.983L-29.0838 838.415L-32.608 839.557L-28.1737 834.833L-32.9759 837.195L-27.0506 832.497H-28.1543L-26.4309 829.538L-31.2525 833.471L-7.86104 806.711L-11.7725 808.06L-8.22895 804.141L-12.3922 806.373L-6.07956 799.443L-8.84859 801.247L0.329857 789.23L-2.65217 791.604L4.72544 779.457L2.51797 780.015C2.63415 779.898 15.5498 765.104 15.6466 765" fill="#23353F"/>
<path fill-rule="evenodd" clip-rule="evenodd" d="M46.5328 818.181C55.9683 806.825 57.1502 798.858 57.3245 799.002C62.2845 810.945 70.3444 818.142 78.8305 825.509L73.9287 824.192L83.1705 832.419L76.0212 828.886L82.5505 835.822L76.9124 833.528L96.5778 857.414L92.4316 856.175L95.5703 859.891L92.4316 858.652C92.4316 858.652 106.226 871.652 104.986 870.791C103.727 869.918 94.2528 864.702 94.2528 864.702L115.236 891.952L111.477 890.596C113.473 892.461 123.528 901.327 123.276 902.735C122.094 902.161 117.716 899.854 114.286 898.028C116.418 901.601 117.658 903.674 117.658 903.674L99.3484 903.478C94.1753 903.192 77.5906 901.94 72.7275 902.722L41.4954 903.922C35.2567 905.121 32.3699 906.595 30.5486 900.532C30.5486 900.532 22.8762 902.839 19.4081 904.534C15.9401 906.229 20.1056 899.306 20.1056 899.306C20.1056 899.306 15.9594 901.144 12.7626 903.452C9.56576 905.747 14.6226 898.967 14.6226 898.967C8.67452 897.676 -6.41842 909.645 5.86518 897.155L-2.89221 901.77C-2.89221 901.77 4.83832 891.887 4.10208 891.979C3.36584 892.07 13.6538 882.552 14.9519 881C16.2307 879.462 9.25576 883.36 8.7714 883.79C12.0457 880.166 26.1506 863.438 28.7661 859.813C28.7661 859.813 27.158 860.465 25.5306 861.26C23.9225 862.055 28.9211 855.745 29.638 854.063C30.3743 852.368 25.0849 856.762 22.8762 858.222C20.6675 859.669 23.9031 856.775 30.5293 849.812C37.1554 842.85 44.8084 831.35 44.8084 831.35C44.8084 831.35 42.2316 832.276 40.9335 833.332C39.6354 834.401 43.6653 827.386 44.2272 825.509C44.8084 823.631 39.1898 828.586 37.756 829.864C36.3223 831.141 41.1079 824.687 46.5134 818.168" fill="#38689B"/>
<path fill-rule="evenodd" clip-rule="evenodd" d="M-50.5598 851.673L-72.7573 858L-58.8887 837.882C-58.8887 837.882 -62.0653 839.303 -63.4405 840.362C-64.8352 841.407 -59.6635 835.597 -58.8887 834.254C-58.0945 832.924 -64.2347 837.882 -64.2347 837.882L-48.6809 808.7C-48.6809 808.7 -52.9616 812.509 -54.0657 813.271C-55.1697 814.033 -46.6084 802.747 -45.9692 801.986C-45.33 801.224 -47.4025 802.825 -48.6615 803.587C-49.9206 804.349 -45.4849 798.319 -45.4849 798.319C-62.3752 816.848 -32.2361 771.241 -33.4951 771.215L-38.8218 774.727L-31.5969 762.706C-31.5969 762.706 -33.2433 763.803 -34.2699 764.475C-35.2771 765.146 -29.3307 758.432 -28.9433 757.76C-28.5559 757.089 -32.1199 759.646 -33.8825 760.937C-35.6064 762.383 -19.9364 741 -19.4328 741L-10.9683 754.558L-13.7962 752.802L-5.69975 769.601L-10.0385 766.915C-10.484 767.109 3.32649 786.31 -4.3245 778.485C-4.3245 778.485 -0.896088 784.102 -1.3997 783.676C-1.90331 783.25 -3.51099 782.062 -3.51099 782.062C-3.51099 782.062 11.946 806.014 10.9387 804.994C9.93152 803.961 4.50803 800.397 4.50803 800.397L10.9387 808.287L8.36259 807.331C8.36259 807.331 21.1465 829.967 20.7591 829.283C20.3717 828.598 12.8757 821.677 13.2244 822.413C13.573 823.162 16.6721 827.501 15.8393 827.049C15.0064 826.597 14.1735 826.481 14.1735 826.481C14.1735 826.481 20.333 835.61 26.3376 843.047C26.3957 843.125 20.7591 840.555 20.7591 840.555C20.9141 842.027 30.289 853.829 28.0421 853.7C18.706 850.524 -3.80153 851.983 -13.3895 851.634L-50.5404 851.686L-50.5598 851.673Z" fill="#38689B"/>
<path fill-rule="evenodd" clip-rule="evenodd" d="M215.833 914.914L192.533 920.626L207.09 902.46C207.09 902.46 203.757 903.75 202.307 904.69C200.858 905.641 206.268 900.389 207.09 899.178C207.927 897.968 201.471 902.45 201.471 902.45L217.806 876.111C217.806 876.111 213.307 879.552 212.141 880.242C210.976 880.932 219.973 870.739 220.63 870.049C221.303 869.358 219.136 870.809 217.806 871.499C216.476 872.189 221.138 866.748 221.138 866.748C203.234 883.883 235.008 842.299 233.737 842.279L228.148 845.45L235.74 834.597C235.74 834.597 234.006 835.587 232.945 836.197C231.884 836.807 238.146 830.745 238.535 830.135C238.938 829.525 235.202 831.846 233.334 832.996C231.466 834.157 247.846 815.53 248.414 814.89C248.488 814.92 257.261 827.134 257.366 827.234L254.392 825.644L262.895 840.809L258.337 838.388C257.919 838.638 272.401 855.944 264.33 848.832C264.33 848.832 267.932 853.903 267.394 853.523C266.856 853.143 265.167 852.063 265.167 852.063C265.167 852.063 281.383 873.69 280.337 872.76C279.29 871.829 273.596 868.608 273.596 868.608L280.337 875.731L277.646 874.86C277.646 874.86 291.067 895.297 290.664 894.677C290.245 894.057 282.384 887.805 282.758 888.475C283.131 889.145 286.374 893.076 285.508 892.656C284.626 892.246 283.759 892.136 283.759 892.136C283.759 892.136 290.215 900.379 296.522 907.081C296.582 907.151 290.664 904.83 290.664 904.83C290.723 905.911 300.871 917.294 298.301 916.694C295.865 915.784 285.627 914.894 285.627 914.894C268.605 914.824 232.99 914.834 215.818 914.884L215.833 914.914Z" fill="#38689B"/>
<path fill-rule="evenodd" clip-rule="evenodd" d="M146.068 949.439C176.518 932.477 286.151 817.652 311.743 817.104C337.32 816.55 358.038 832.222 372.643 825.976C403.646 808.913 442.393 777.639 474.173 761.787C485.818 755.463 509.392 767.36 526.134 775.153C526.134 775.153 588.5 786.198 625.228 770.909C661.957 755.619 880.766 805.09 888.3 812.5C897.628 821.669 991.61 852 1007.13 879.184C1005.91 886.828 728.343 971.341 682.063 961.148C635.767 950.956 115.603 966.401 146.068 949.447" fill="#009CA7"/>
<path fill-rule="evenodd" clip-rule="evenodd" d="M483.676 760L476.194 760.806C474.953 761.688 471.327 763.985 471.163 765.07C468.248 783.623 460.68 815.88 451.34 834.487C450.443 836.274 451.205 838.17 453.387 839.621L464.686 847.127C467.749 849.163 467.914 852.003 465.104 854.133L424.378 884.904C424.08 885.13 423.811 885.372 423.571 885.621C417.608 891.855 433.615 897.394 442.283 892.089L510.732 850.232C513.736 848.391 514.289 845.777 512.137 843.639L499.254 830.899C496.967 828.628 497.73 825.851 501.167 824.017L521.642 813.079C524.84 811.37 525.752 808.811 523.944 806.619L516.307 797.358C515.126 795.938 515.051 794.331 516.142 792.888C524.153 782.433 519.544 795.369 524.864 775.209L501.167 763.81L483.676 760Z" fill="#23353F"/>
<path fill-rule="evenodd" clip-rule="evenodd" d="M642.174 766.24L627.054 770.139C625.814 771.021 618.876 773.344 618.712 774.429C615.798 792.982 610.701 819.976 601.36 838.583C600.463 840.37 601.225 842.266 603.407 843.717L614.706 851.223C617.77 853.259 617.934 856.099 615.124 858.229L574.399 889C574.1 889.226 573.831 889.468 573.592 889.717C567.629 895.951 583.635 901.49 592.303 896.185L660.752 854.328C663.756 852.486 664.309 849.873 662.157 847.735L649.274 834.995C646.988 832.724 647.75 829.947 651.187 828.113L671.662 817.175C674.861 815.466 675.772 812.907 673.964 810.715L666.327 801.454C665.146 800.034 665.071 798.427 666.162 796.984C674.173 786.529 670.222 785.062 675.542 764.902C675.542 764.902 656.224 761.309 649.274 766.24H642.174Z" fill="#23353F"/>
<path fill-rule="evenodd" clip-rule="evenodd" d="M894.199 788.601L879.08 792.501C877.839 793.383 870.747 802 849.684 800.5C846.77 819.053 862.726 842.338 853.385 860.945C852.489 862.732 853.251 864.628 855.433 866.079L866.732 873.584C869.795 875.621 869.96 878.461 867.15 880.591L826.424 911.361C826.125 911.588 825.856 911.829 825.617 912.079C819.654 918.313 835.66 923.852 844.329 918.547L912.778 876.69C915.782 874.848 916.335 872.235 914.183 870.097L901.3 857.356C899.013 855.086 899.775 852.309 903.213 850.475L923.688 839.537C926.886 837.828 927.798 835.269 925.989 833.077L918.352 823.816C917.172 822.396 917.097 820.789 918.188 819.345C926.199 808.891 922.247 807.424 927.568 787.264C927.568 787.264 908.249 783.671 901.3 788.601H894.199Z" fill="#23353F"/>
<path fill-rule="evenodd" clip-rule="evenodd" d="M323.872 814.413L316.922 815.724L305.116 821.973L318.282 846.651L289.946 872.888L256.917 890.006L255.318 898.588L226.803 931.863C237.817 921.861 265.018 897.847 280.471 889.936L333.751 871.305L349.458 860.031L355.481 853.212C360.084 850.817 386.851 837.702 389.945 835.088L348.666 824.61L336.291 817.261L323.857 814.413H323.872Z" fill="#23353F"/>
<path fill-rule="evenodd" clip-rule="evenodd" d="M355.974 822.051C360.189 820.397 436.589 779.679 443.195 775.825C449.8 771.971 476.376 760.78 476.376 760.78C472.984 765.25 420.627 822.231 420.627 822.231L433.689 827.091C422.854 831.078 367.796 881.533 361.713 886.55L310.077 913.848L303.038 935.343L247.98 942.934C254.586 935.546 329.626 888.594 341.447 880.745L335.559 869.487L350.146 850.2L388.674 835.829L358.545 827.06C358.545 827.06 351.76 823.697 355.974 822.051Z" fill="#38689B"/>
<path fill-rule="evenodd" clip-rule="evenodd" d="M525.139 774.998L551.455 778.329L578.045 779.108L576.76 800.815L574.742 818.977L539.277 860.211L565.372 883.967L465.642 942.942L416.114 933.588L503.797 883.273L445.212 898.643L504.47 845.247L483.367 820.382L509.148 807.797L503.125 789.283L525.139 774.998Z" fill="#38689B"/>
<path fill-rule="evenodd" clip-rule="evenodd" d="M777.467 785.5L810.501 788.331L838.149 798L835.807 810.817L833.789 828.979L798.324 870.213L824.418 893.969L724.689 952.944L675.16 943.59L762.844 893.275L704.259 908.645L763.517 855.248L742.414 830.384L768.194 817.799L762.172 799.285L777.467 785.5Z" fill="#38689B"/>
<path fill-rule="evenodd" clip-rule="evenodd" d="M674.499 764.68L706.303 768.579L722.803 775.5L718.53 788.768L716.528 806.939L681.048 848.172L707.157 871.929L607.427 930.904L557.899 921.549L645.583 871.227L586.997 886.604L646.24 833.208L625.152 808.335L650.933 795.759L644.91 777.237L674.499 764.68Z" fill="#38689B"/>
<path fill-rule="evenodd" clip-rule="evenodd" d="M926.525 787.042L958.329 790.941L967.208 792.959L970.556 811.13L968.553 829.301L933.073 870.534L959.183 894.291L859.453 953.265L809.925 943.911L897.608 893.588L839.023 908.966L898.266 855.57L877.178 830.697L902.959 818.121L896.936 799.599L926.525 787.042Z" fill="#38689B"/>
</g>
<g clip-path="url(#clip3_323_1049)">
<path fill-rule="evenodd" clip-rule="evenodd" d="M-72.62 783.15C-7.17 791.38 180.9 813.79 241.02 834.63L241.23 884.42L230.86 957.46L194.81 999.77L-56.78 976.91L-72.62 783.15Z" fill="#38689B"/>
<path d="M169.82 840.22L146.42 879.86C136.63 884.22 115.55 894.25 106.63 899.84L91.14 922.21H235.87L241.23 884.42L241.02 834.63L169.82 840.21V840.22Z" fill="#23353F"/>
<path d="M-55.47 891.22L-18.67 922.21H131.19L146.51 911.98L169.82 840.22L126.86 822.67L66.45 817.82L34.33 815.5L-59.29 787.27L-55.47 891.22Z" fill="#009CA7"/>
<path fill-rule="evenodd" clip-rule="evenodd" d="M25.88 875.35C27.28 871.43 66.46 817.82 66.46 817.82C66.46 817.82 -31.43 774.8 -35.28 774.45C-39.13 774.1 -83.98 778.3 -87.83 778.65C-91.68 779 -66.23 861.13 -66.23 861.13C-66.23 861.13 24.49 879.26 25.89 875.34" fill="#38689B"/>
<path fill-rule="evenodd" clip-rule="evenodd" d="M44.1801 943.75C34.8601 922.96 -43.9999 778.66 -54.4999 777C-80.6499 776.14 -176 758 -216.5 751.5L-265.5 736C-265.5 736 -285.57 735.66 -318 748L-336 762.5V936.26C-336 936.26 53.5001 964.53 44.1801 943.74" fill="#38689B"/>
<path fill-rule="evenodd" clip-rule="evenodd" d="M84.64 983.39C73.17 960.25 3.20988 793.84 -34.0001 775.5C-52.2101 817.75 -82.5001 795.5 -94.55 826.8C-101.16 840.24 -72.69 877.18 -66.53 890.85C-62.73 897.29 -89.72 939.59 -92.94 943.61C-96.16 947.64 -86.49 961.18 -86.49 961.18L84.64 983.38V983.39Z" fill="#009CA7"/>
</g>
<g clip-path="url(#clip4_323_1049)">
<path fill-rule="evenodd" clip-rule="evenodd" d="M156.29 795.1C156.46 796.53 156.77 811.07 156.77 811.07C156.77 811.07 163.76 811.04 165.03 814.93C165.97 817.8 166.32 820.42 165.01 820.9C163.69 821.37 142.85 819.7 142.85 819.7L140.54 793.95C140.54 793.95 156.12 793.67 156.29 795.11" fill="#009CA7"/>
<path fill-rule="evenodd" clip-rule="evenodd" d="M94.46 790L91.64 804.74C94.44 806.1 100.52 809.31 98.65 814.48C98.35 815.73 83.33 813.6 77.77 812.78L82.23 788.22L94.46 790Z" fill="#009CA7"/>
<path fill-rule="evenodd" clip-rule="evenodd" d="M188.3 639.87L188.22 820.75C187.84 820.88 184.95 821.93 185.32 819.98L186.03 639.98L188.29 639.87H188.3Z" fill="#23353F"/>
<path fill-rule="evenodd" clip-rule="evenodd" d="M188.85 638.89H185.24V655.87C185.22 656.87 186.15 657.68 187.14 657.58C188.06 657.6 188.87 656.79 188.85 655.87V638.89Z" fill="#23353F"/>
<path fill-rule="evenodd" clip-rule="evenodd" d="M128.02 707.58C128.08 704.95 135.91 738.61 139.35 746.32C136.33 765.68 136.15 799.91 142.28 799.17C150.3 798.2 158.6 800.99 158.98 799.22C160.18 793.72 158.94 756.42 155.66 744.78C156 716.25 156.45 692.45 153.96 676.47C153.96 676.47 117.35 672.89 114.22 673.04C111.1 673.19 103.66 680.69 103.66 680.69L95.3 738.06C84 763.36 76.83 788.36 80.98 789.64C80.98 789.64 92.63 793.17 95.32 792.76C102.24 783.06 120.84 727.48 128 707.59" fill="#23353F"/>
<path fill-rule="evenodd" clip-rule="evenodd" d="M87 797.89C95.79 783.45 121.07 717.62 126.88 702L128.71 707.44C104.5 778 95.5 793 95.5 793C95.5 793 91.6982 793.09 90.1543 792" fill="#009CA7"/>
<path d="M154.26 764.54C156.33 780.63 155 793.5 153.5 799.5C154.833 799.834 157.8 800.3 159 799.5C159.527 795.546 160 763.5 155.5 744.5C157 721 155.06 683.5 155.06 683.5V682.45L147.29 682.45C147.29 682.45 152.77 715.62 150.94 726.93C149.11 738.24 152.19 748.45 154.26 764.54Z" fill="#009CA7"/>
<path fill-rule="evenodd" clip-rule="evenodd" d="M179.82 642.51C181.14 639.54 179.64 634.34 183.8 636.12C184.76 636.21 185.77 633.23 187.62 634.78C189.47 636.33 190.75 641.92 189.13 643.49C187.5 645.07 184.81 645.67 184.81 645.67C184.81 645.67 178.76 644.53 179.82 642.5" fill="#D4843B"/>
<path fill-rule="evenodd" clip-rule="evenodd" d="M139.75 585.68C147.23 543.36 111.04 547.88 115.48 574.18C116.78 580.19 120.39 587.68 120.39 587.68L120.95 595.11L137.2 595.71L136.17 588.21C136.17 588.21 139.22 587.1 139.76 585.69" fill="#D4843B"/>
<path fill-rule="evenodd" clip-rule="evenodd" d="M138.59 567.38C140.8 570.61 143.62 573.07 139.87 574.67C139.87 574.67 137.38 565.12 138.59 567.38Z" fill="#D4843B"/>
<path fill-rule="evenodd" clip-rule="evenodd" d="M153.2 598.83C135.06 590.41 116.87 592.34 101.1 601.84C99.58 603.36 93.75 651.18 93.91 669.61C94.07 688.04 105.43 681.58 108.86 681.73C128.99 682.58 144.69 684.09 154.34 682.86C158.59 686.37 159.08 601.71 153.21 598.84" fill="#588BB5"/>
<path fill-rule="evenodd" clip-rule="evenodd" d="M94.43 653.96C94.55 659.34 93.09 677.78 97.38 680.88C101.67 683.99 100.75 682.56 102.36 682.69C103.97 682.82 108.94 681.56 109.83 681.82C110.72 682.08 132.24 683.43 135.46 682.9C149.2 671.08 145.97 632.64 144.3 613.53C143.74 607.19 141.01 598.54 139.58 597.57C137.65 596.26 133.7 602.54 130.37 601.99C86.28 602.13 92.45 622.77 94.44 653.95" fill="#23353F"/>
<path fill-rule="evenodd" clip-rule="evenodd" d="M151.31 632.98L137.49 658.17L138.29 663.13L152.12 637.04L151.31 632.98Z" fill="#23353F"/>
<path fill-rule="evenodd" clip-rule="evenodd" d="M145.26 596.01C140.65 596.56 137.17 597.97 134.93 602.73L130.14 597.46L133.81 593.33C136.63 590.51 146.14 593.85 145.26 596.01Z" fill="#23353F"/>
<path fill-rule="evenodd" clip-rule="evenodd" d="M136.34 563.26C143.38 562.66 146.42 551.18 139.71 548.03C138.29 547.74 138.1 549.52 137.21 550C135.37 548.73 133.27 549.02 131.34 549.93C127.43 548.43 123.01 550.04 120.92 553.74C120.54 555.01 120.31 556.74 118.55 556.09C108.87 557.31 110.97 570.26 116 575.6C116.76 578.2 116.56 581.44 118.85 583.38C123.66 586.06 130.6 581.79 132.69 577.17C133.23 574.41 133.95 571.44 133.47 568.63C132.7 566.25 134.36 564.64 136.34 563.26Z" fill="#422B26"/>
<path fill-rule="evenodd" clip-rule="evenodd" d="M133.2 581.94C133.2 581.94 144.12 628.58 137.97 674.93C136.72 684.32 85.83 682.22 84.53 677.06C77.35 648.45 75.88 591.44 83.96 584.08C93.41 575.47 135.05 575.42 133.2 581.94Z" fill="#38689B"/>
<path fill-rule="evenodd" clip-rule="evenodd" d="M127.84 580.13C125.41 580.82 119.24 588.46 118.38 594.7C117.52 600.94 135.66 685.54 111.69 681.5C107.54 680.8 140.11 685.3 142.4 679.99C144.7 674.69 139.5 614.29 138.6 600.73C136.63 583.85 136.12 578.79 127.84 580.13Z" fill="#588BB5"/>
<path fill-rule="evenodd" clip-rule="evenodd" d="M132.64 570.57C135.25 570.35 135.61 577.74 132.98 577.77C130.37 577.99 130.01 570.6 132.64 570.57Z" fill="#D4843B"/>
<path fill-rule="evenodd" clip-rule="evenodd" d="M135.16 591.79C135.16 591.79 133.39 589.59 128.7 590.34C119.74 591.77 121.07 605.4 119.41 605.84C114.63 607.09 79.3499 610.84 78.3999 607.08C75.6599 594.21 75.6699 581.56 90.5399 579.78C101.33 577.07 126.02 575.2 131.48 577.7C136.94 580.2 135.16 591.8 135.16 591.8" fill="#23353F"/>
<mask id="mask2_323_1049" style="mask-type:luminance" maskUnits="userSpaceOnUse" x="76" y="576" width="60" height="33">
<path d="M90.54 579.78C75.67 581.56 75.65 594.21 78.4 607.08C79.35 610.85 114.63 607.1 119.41 605.84C121.07 605.4 119.75 591.78 128.7 590.34C133.4 589.59 135.16 591.79 135.16 591.79C135.16 591.79 136.94 580.19 131.48 577.69C120.91 574.78 100.06 577.7 90.54 579.77" fill="white"/>
</mask>
<g mask="url(#mask2_323_1049)">
<path d="M90.6999 603.87C86.9699 603.87 83.2199 603.6 79.5299 602.95C79.5099 602.95 79.4899 602.93 79.4899 602.9C79.1999 600.56 78.6699 594.5 80.1599 588.76C81.6499 583.01 84.6399 579.48 89.0499 578.26C89.0799 578.26 89.1099 578.26 89.1199 578.3C89.1199 578.33 89.1199 578.36 89.0799 578.37C84.7099 579.58 81.7399 583.09 80.2599 588.79C78.7799 594.48 79.2899 600.49 79.5899 602.85C91.6599 604.97 104.3 603.03 115.08 600.84C114.42 597.46 114.64 593.61 115.72 589.99C116.84 586.2 118.78 582.94 121.3 580.56C124.05 577.98 128.77 575.29 135.66 577.12C135.69 577.12 135.7 577.16 135.7 577.18C135.7 577.21 135.66 577.22 135.64 577.22C128.79 575.41 124.11 578.08 121.38 580.64C118.86 583 116.94 586.25 115.82 590.02C114.75 593.64 114.52 597.5 115.2 600.87C115.2 600.9 115.19 600.93 115.16 600.93C107.64 602.45 99.2199 603.86 90.7199 603.86L90.6999 603.87Z" fill="#BCBFCC"/>
</g>
<path fill-rule="evenodd" clip-rule="evenodd" d="M156.09 659.78C151.45 658.29 139.81 607.11 139.86 602.7C140.45 598.64 140.45 596.25 145.62 596.2C157.49 593.19 163.68 626.42 167.93 637.56C173.16 638.11 178.18 639 178.18 639C179.25 637.12 188.76 642 185.57 647.42C182.8 650.61 161.92 663.3 156.09 659.79" fill="#588BB5"/>
<mask id="mask3_323_1049" style="mask-type:luminance" maskUnits="userSpaceOnUse" x="139" y="595" width="48" height="66">
<path d="M145.62 596.2C140.45 596.25 140.45 598.64 139.86 602.7C139.28 606.75 152.14 656.66 154.92 659.19C157.25 660.75 159.25 661.22 162.88 659.8C168.37 657.75 183.61 650.72 185.56 647.41C188.75 641.99 179.24 637.11 178.17 638.99C178.17 638.99 173.16 638.11 167.92 637.55C163.69 626.44 157.47 593.17 145.61 596.19" fill="white"/>
</mask>
<g mask="url(#mask3_323_1049)">
<path fill-rule="evenodd" clip-rule="evenodd" d="M140.37 599.57C140.37 599.57 153.45 650.56 158.08 653.59C162.71 656.62 187.67 644.74 187.67 644.74C187.67 644.74 184.12 654.66 178.1 658.2C172.08 661.74 154.03 669.1 150.58 661.84C147.14 654.58 134.01 600.4 137.19 595.7C140.37 591 140.36 599.56 140.36 599.56" fill="#4577A8"/>
</g>
<path fill-rule="evenodd" clip-rule="evenodd" d="M95.53 636.37C95.09 634.63 77.7 637.01 77.97 638.05L80.1 659.02C84.75 660.61 89.82 659.87 95.83 658.35C95.83 658.35 95.68 636.97 95.53 636.37Z" fill="#009CA7"/>
<mask id="mask4_323_1049" style="mask-type:luminance" maskUnits="userSpaceOnUse" x="77" y="635" width="19" height="25">
<path d="M77.97 638.04L80.1 659.01C84.75 660.6 89.82 659.86 95.83 658.35C95.83 658.35 95.68 636.97 95.53 636.37C92.03 634.44 77.58 637.42 77.97 638.04Z" fill="white"/>
</mask>
<g mask="url(#mask4_323_1049)">
<path fill-rule="evenodd" clip-rule="evenodd" d="M96.3201 635.53C94.3901 635.71 91.4401 636.81 91.2501 638.97C91.0901 641.44 94.6101 658.29 90.3301 661.02C91.3901 661.39 95.8301 662.17 96.9601 658.61C98.1001 655.06 98.2501 635.35 96.3201 635.53Z" fill="#009CA7"/>
</g>
<path fill-rule="evenodd" clip-rule="evenodd" d="M124.86 614.49C125.13 612.71 142.67 613.42 142.5 614.48L142.39 635.56C137.91 637.59 132.8 637.34 126.67 636.4C126.67 636.4 124.77 615.11 124.86 614.49Z" fill="#4577A8"/>
<path fill-rule="evenodd" clip-rule="evenodd" d="M124.86 614.49C125.13 612.71 142.67 613.42 142.5 614.48L142.39 635.56C137.91 637.59 132.8 637.34 126.67 636.4C126.67 636.4 124.77 615.11 124.86 614.49Z" fill="#009CA7"/>
<mask id="mask5_323_1049" style="mask-type:luminance" maskUnits="userSpaceOnUse" x="124" y="613" width="19" height="25">
<path d="M124.85 614.49C124.76 615.11 126.66 636.4 126.66 636.4C132.79 637.33 137.9 637.59 142.38 635.56L142.49 614.48C142.93 613.53 125.54 612.6 124.85 614.49Z" fill="white"/>
</mask>
<g mask="url(#mask5_323_1049)">
<path fill-rule="evenodd" clip-rule="evenodd" d="M123.99 613.73C125.93 613.73 128.97 614.53 129.37 616.67C129.77 619.11 127.87 636.23 132.39 638.53C131.37 639 127.03 640.2 125.56 636.77C124.09 633.34 122.05 613.74 123.99 613.73Z" fill="#009CA7"/>
</g>
<path fill-rule="evenodd" clip-rule="evenodd" d="M119.78 635.04C119.34 633.3 101.95 635.68 102.22 636.72L104.35 657.69C109 659.28 114.07 658.54 120.08 657.02C120.08 657.02 119.93 635.64 119.78 635.04Z" fill="#009CA7"/>
<mask id="mask6_323_1049" style="mask-type:luminance" maskUnits="userSpaceOnUse" x="102" y="634" width="19" height="25">
<path d="M102.22 636.72L104.35 657.69C109 659.28 114.07 658.54 120.08 657.02C120.08 657.02 119.93 635.64 119.78 635.04C116.27 633.12 101.83 636.09 102.22 636.72Z" fill="white"/>
</mask>
<g mask="url(#mask6_323_1049)">
<path fill-rule="evenodd" clip-rule="evenodd" d="M120.57 634.2C118.64 634.38 115.69 635.48 115.5 637.64C115.33 640.11 118.86 656.96 114.58 659.69C115.64 660.06 120.08 660.84 121.21 657.28C122.35 653.73 122.5 634.02 120.57 634.2Z" fill="#009CA7"/>
</g>
<path fill-rule="evenodd" clip-rule="evenodd" d="M95.63 638.32C90.02 636.94 90.34 642.49 90.31 642.65C90.12 643.85 78.27 646.09 77.63 643.48C77.01 640.93 77.45 638.02 77.81 637.05C78.4 634.72 98.73 631.29 95.62 638.31" fill="#23353F"/>
<path fill-rule="evenodd" clip-rule="evenodd" d="M124.94 616.45C130.39 614.54 130.61 620.09 130.65 620.25C130.95 621.43 142.96 622.52 143.35 619.86C143.73 617.26 143.01 614.41 142.55 613.48C141.74 611.22 121.17 609.75 124.94 616.44" fill="#23353F"/>
<path fill-rule="evenodd" clip-rule="evenodd" d="M119.88 637C114.27 635.62 114.59 641.17 114.56 641.33C114.37 642.53 102.52 644.77 101.88 642.16C101.26 639.61 101.7 636.7 102.06 635.73C102.65 633.4 122.98 629.97 119.87 636.99" fill="#23353F"/>
<path fill-rule="evenodd" clip-rule="evenodd" d="M113.66 605.17C113.42 606.49 114.39 628.16 114.39 628.16L111.46 628.3L111.17 605.06C111.17 605.06 113.9 603.85 113.66 605.16" fill="#009CA7"/>
<path fill-rule="evenodd" clip-rule="evenodd" d="M85.42 606.5C85.18 607.76 86.2 629.52 86.2 629.52C85.04 629.13 84.08 629.23 83.24 629.66L82.46 606.15C82.46 606.15 85.66 605.24 85.42 606.5Z" fill="#009CA7"/>
<path fill-rule="evenodd" clip-rule="evenodd" d="M72.76 662.32L132.1 659.46L132.91 676.42L73.57 679.27C65.4 680.21 64.53 662.15 72.76 662.31" fill="#23353F"/>
<path fill-rule="evenodd" clip-rule="evenodd" d="M132.26 659.46C140.12 658.9 140.95 676.23 133.07 676.42C125.21 676.98 124.38 659.65 132.26 659.46Z" fill="#23353F"/>
<mask id="mask7_323_1049" style="mask-type:luminance" maskUnits="userSpaceOnUse" x="126" y="659" width="13" height="18">
<path d="M132.26 659.46C124.38 659.65 125.22 676.99 133.07 676.42C140.93 676.22 140.15 658.92 132.26 659.46Z" fill="white"/>
</mask>
<g mask="url(#mask7_323_1049)">
<path fill-rule="evenodd" clip-rule="evenodd" d="M130.59 676.34C137.48 675.89 139.92 663.84 133.3 661.54C130.14 661.57 128.06 663.68 128.19 668.3C128.59 675.92 136.27 675.51 135.78 667.09C134.42 659.6 127.49 666.46 131.1 670.9C133.01 673.09 134.86 669.71 133.57 668.18C133.68 669.64 133.63 672.6 131.33 670.7C128.06 666.75 134.19 660.17 135.47 667.12C135.3 670.83 134.64 674.13 131.29 673.35C126.43 671.05 128.29 661.16 133.24 661.85C138.08 663.28 137.28 670.45 134.99 673.79C134.27 674.61 132.04 675.85 130.66 676.05C130.47 676 130.39 676.31 130.58 676.35" fill="#009CA7"/>
</g>
<path fill-rule="evenodd" clip-rule="evenodd" d="M89.56 678.95C78.94 682.21 78.29 657.92 89.26 661.29C82.82 663.2 83.19 677.02 89.56 678.95Z" fill="#009CA7"/>
<path fill-rule="evenodd" clip-rule="evenodd" d="M119.2 677.53C108.58 680.79 107.93 656.5 118.9 659.87C112.46 661.78 112.83 675.6 119.2 677.53Z" fill="#009CA7"/>
<path fill-rule="evenodd" clip-rule="evenodd" d="M184.23 635.99C184.23 635.99 186.23 634.87 187.45 638.66C188.94 643.42 186.01 644.87 188.3 645.3C188.42 644.68 190.17 640.79 189.15 638.39C187.71 634.19 185.9 633.24 184.23 635.99Z" fill="#23353F"/>
<path d="M98.87 614.26L98.89 614.76L99.69 614.69C99.29 613.19 101.19 611.87 102.37 612.99C101.68 613.25 101.12 613.85 100.98 614.57L101.82 614.5C102.15 613.47 103.81 613.24 104.27 614.28L105.11 614.2C104.89 613.4 104.11 612.85 103.27 612.83C102.11 610.85 98.71 612.04 98.88 614.26" fill="white"/>
<path d="M104.34 614.52C103.61 614.47 103.19 615.64 104.16 615.38C105.38 614.8 105.7 616.01 105.51 616.91L106.68 616.81C106.57 616.7 106.46 616.61 106.33 616.52C106.61 615.66 106.04 614.72 105.16 614.53C105.15 614.42 105.13 614.32 105.1 614.21L104.26 614.29C104.3 614.37 104.33 614.44 104.34 614.52Z" fill="white"/>
<path d="M101.54 617.22L101.58 617.26L102.27 617.2L101.87 616.83C102.31 615.64 100.26 615.49 100.31 616.66C100.31 617.31 101.06 617.43 101.53 617.22M100.83 616.62C100.81 616.27 101.41 616.19 101.42 616.57C101.44 616.92 100.84 617 100.83 616.62Z" fill="white"/>
<path d="M101.29 615.06C101.64 615.1 101.75 614.78 101.81 614.51L100.97 614.59C100.9 614.81 101.04 615.04 101.28 615.07" fill="white"/>
<path d="M99.78 617.42L99.69 614.69L98.89 614.77L98.98 617.5L99.78 617.42Z" fill="white"/>
<path d="M103.73 618.65C104.25 618.9 104.95 618.45 104.91 617.88C104.83 616.66 102.85 617.26 103.37 618.32L101.69 619.99L102.45 619.92L103.73 618.65ZM104.09 617.68C104.48 617.64 104.48 618.22 104.11 618.24C103.72 618.27 103.72 617.7 104.09 617.68Z" fill="white"/>
<path d="M99.87 620.15L99.83 618.89C99.95 618.86 101.44 618.8 101.49 618.68C101.69 618.35 103.13 617.6 102.28 617.2L101.59 617.26L101.94 617.58L101.21 618.27L99.82 618.39L99.79 617.41L98.99 617.48L99.08 620.21L99.88 620.14L99.87 620.15Z" fill="white"/>
<path d="M105.68 617.06C106.63 617.5 106.84 618.8 106.18 619.59L107.13 619.5C107.57 618.61 107.4 617.49 106.69 616.8L105.52 616.91C105.56 616.97 105.61 617.02 105.68 617.06Z" fill="white"/>
<path d="M101.43 617.27L100.84 617.32C101.03 617.38 101.26 617.36 101.43 617.27Z" fill="white"/>
<path d="M104.89 620.33C102.95 618.77 103.05 622.92 104.9 621.09C105.46 621.03 105.99 620.78 106.41 620.43C106.91 621.23 105.76 621.7 105.87 622.35L106.77 622.27C106.77 622.27 106.75 622.22 106.74 622.2C107.36 621.56 107.5 620.51 106.97 619.79C107.03 619.7 107.08 619.6 107.13 619.51L106.18 619.59C105.87 619.99 105.4 620.26 104.89 620.33ZM104.21 621.04C103.82 621.07 103.82 620.5 104.19 620.48C104.58 620.45 104.58 621.02 104.21 621.04Z" fill="white"/>
<path d="M102.41 622.23L99.9499 622.45L99.8999 620.9C100.02 620.87 101.65 620.8 101.69 620.68L102.46 619.92L101.7 619.99L101.4 620.28L99.8799 620.42V620.15L99.0699 620.22L99.1599 622.95L102.94 622.61C102.82 622.53 102.58 622.19 102.41 622.23Z" fill="white"/>
<path d="M105.9 622.41C106.41 622.99 106.11 623.95 105.42 624.26C105.26 623.5 103.74 623.3 104.34 624.26C104.65 624.47 104.85 624.82 104.84 625.19L105.64 625.12C105.64 625.12 105.64 625.04 105.64 624.99C106.68 624.58 107.29 623.28 106.77 622.28L105.87 622.36C105.87 622.36 105.89 622.4 105.9 622.42" fill="white"/>
<path d="M99.96 622.94L102.31 622.73L102.82 623.21L102.29 623.85C101.13 623.47 100.7 625.41 102.01 625.34C102.59 625.3 103 624.63 102.68 624.14C103.08 623.62 103.84 623.13 102.95 622.61L99.17 622.95L99.26 625.68L100.06 625.61L99.97 622.94H99.96ZM101.99 624.85C101.6 624.89 101.6 624.31 101.97 624.29C102.36 624.26 102.36 624.83 101.99 624.85Z" fill="white"/>
<path d="M104.54 625.98C104.14 626.48 103.49 626.51 102.91 626.37C101.73 627.81 99.9101 627.99 100.05 625.62L99.2501 625.69C98.7801 628.02 101.84 629.19 103.1 627.19C104.34 627.44 105.68 626.39 105.64 625.12L104.83 625.19C104.83 625.48 104.73 625.75 104.53 625.98" fill="white"/>
<path d="M93.59 613.7C92.76 613.87 92.02 614.56 91.85 615.39L92.69 615.31C93.02 614.27 94.7 614.07 95.14 615.09L95.98 615.02C95.79 614.33 95.19 613.83 94.49 613.69C95.49 612.4 97.57 613.28 97.27 614.9L98.07 614.83C98.45 612.19 94.64 611.39 93.59 613.7Z" fill="white"/>
<path d="M98.16 617.57L98.07 614.84L97.27 614.91L97.36 617.64L98.16 617.57Z" fill="white"/>
<path d="M91.66 617.95C91.13 617.14 91.91 616.03 92.86 616.39C93.8 616.5 93.39 615.39 92.62 615.57C92.63 615.49 92.66 615.4 92.69 615.32L91.85 615.4C91.83 615.51 91.8099 615.62 91.8099 615.73C90.9699 616.06 90.44 617.1 90.78 617.92C90.66 618.03 90.55 618.14 90.45 618.27L91.62 618.16C91.65 618.1 91.67 618.03 91.67 617.96" fill="white"/>
<path d="M95.59 617.75C96.1 617.89 96.82 617.6 96.77 616.98C96.69 615.76 94.7 616.36 95.23 617.42L94.86 617.86L95.55 617.8L95.59 617.75ZM95.95 616.78C96.34 616.74 96.34 617.32 95.97 617.34C95.58 617.38 95.58 616.8 95.95 616.78Z" fill="white"/>
<path d="M95.7 615.56C95.94 615.49 96.07 615.24 95.98 615.03L95.14 615.11C95.22 615.37 95.36 615.67 95.7 615.56Z" fill="white"/>
<path d="M95.99 617.82C96.1 617.81 96.2 617.78 96.29 617.73L95.7 617.78C95.79 617.81 95.88 617.82 95.99 617.81" fill="white"/>
<path d="M90.9999 620.77C90.2999 619.88 90.8299 618.77 91.6199 618.16L90.4499 618.26C89.8199 619.02 89.6799 620.18 90.1899 621.02L91.1399 620.93C91.0899 620.88 91.0399 620.82 90.9999 620.76" fill="white"/>
<path d="M93.9 618.87C93.06 616.58 91.02 620.34 93.51 619.57L94.87 620.6L95.63 620.53L93.85 619.18C93.89 619.08 93.91 618.98 93.91 618.87M93.1 619.22C92.71 619.26 92.71 618.68 93.08 618.66C93.47 618.62 93.47 619.2 93.1 619.22Z" fill="white"/>
<path d="M94.6 618.28C94.56 618.43 95.66 619.11 95.74 619.2C95.79 619.31 97.29 619.1 97.4 619.11L97.44 620.37L98.24 620.3L98.15 617.57L97.35 617.64L97.38 618.62L95.99 618.74L95.21 618.18L95.54 617.79L94.85 617.85C94.78 617.95 94.57 618.12 94.59 618.26" fill="white"/>
<path d="M91.6699 623.44C91.3499 622.94 90.6399 622.56 90.9699 621.82C91.4099 622.1 91.9599 622.24 92.5099 622.21C94.4999 623.7 94.2599 619.57 92.4699 621.45C91.9599 621.47 91.4799 621.28 91.1399 620.94L90.1899 621.03C90.2399 621.12 90.2999 621.2 90.3699 621.28C89.9099 622.04 90.0699 623.08 90.7699 623.64C90.7599 623.67 90.7499 623.69 90.7399 623.72L91.6399 623.64C91.6699 623.58 91.6799 623.52 91.6799 623.45M93.1799 621.47C93.5699 621.44 93.5699 622.01 93.1999 622.03C92.8099 622.06 92.8099 621.49 93.1799 621.47Z" fill="white"/>
<path d="M97.4501 620.37V620.64L95.9401 620.78L95.6201 620.54L94.8601 620.61C94.9801 620.67 95.7001 621.33 95.8501 621.27L97.4701 621.13L97.5201 622.68C97.0001 622.81 94.7301 622.64 94.5601 623.38L98.3401 623.04L98.2501 620.31L97.4501 620.38V620.37Z" fill="white"/>
<path d="M94.56 623.37C93.73 624.05 94.41 624.32 94.93 624.84C94.64 625.35 95.07 625.98 95.67 625.91C96.94 625.79 96.46 623.89 95.29 624.48L94.72 623.94L95.2 623.37L97.55 623.16L97.64 625.83L98.44 625.76L98.35 623.03L94.57 623.37H94.56ZM95.64 624.86C96.03 624.82 96.03 625.4 95.66 625.42C95.27 625.45 95.27 624.88 95.64 624.86Z" fill="white"/>
<path d="M92.84 626.16C92.84 625.82 93 625.48 93.28 625.24C93.81 624.15 92.28 624.7 92.21 625.44C91.43 625.22 91.17 624.26 91.64 623.62L90.74 623.7C90.3 624.73 90.95 625.97 92.05 626.19C92.05 626.23 92.05 626.28 92.05 626.32L92.86 626.25C92.86 626.25 92.86 626.19 92.86 626.15" fill="white"/>
<path d="M97.66 626.59C97.33 628.5 95.9 627.95 94.85 627.09C94.08 627.52 92.9201 627.26 92.8601 626.26L92.05 626.33C92.09 627.62 93.56 628.4 94.72 627.94C96.24 629.75 99.0501 627.9 98.4401 625.76L97.64 625.83L97.67 626.59H97.66Z" fill="white"/>
</g>
</g>
<defs>
<clipPath id="clip0_323_1049">
<rect width="900" height="900" fill="white"/>
</clipPath>
<clipPath id="clip1_323_1049">
<rect width="613.394" height="338.218" fill="white" transform="translate(-54.2676 559.658) rotate(1.2047)"/>
</clipPath>
<clipPath id="clip2_323_1049">
<rect width="1000" height="298" fill="white" transform="translate(-45 695)"/>
</clipPath>
<clipPath id="clip3_323_1049">
<rect width="577.23" height="374.77" fill="white" transform="translate(-336 625)"/>
</clipPath>
<clipPath id="clip4_323_1049">
<rect width="122.87" height="273.14" fill="white" transform="translate(67 548)"/>
</clipPath>
<clipPath id="clip5_323_1049">
<rect width="300" height="69.4969" fill="white" transform="translate(300 458)"/>
</clipPath>
</defs>
</svg>
