<svg width="1000" height="900" viewBox="0 0 1000 900" fill="none" xmlns="http://www.w3.org/2000/svg">
<g clip-path="url(#clip0_323_882)">
<rect width="1000" height="900" fill="white"/>
<g clip-path="url(#clip1_323_882)">
<path fill-rule="evenodd" clip-rule="evenodd" d="M243.529 704.2L306.621 659.383L310.18 662.067L273.657 712.826L280.338 712.966L267.522 726.705C262.717 734.065 251.196 750.433 245.983 757.726C238.311 767.405 200.956 799.631 191.162 808.374L217.256 759.35L218.347 747.119L198.504 722.415L232.939 726.567L243.529 704.2Z" fill="#4E89B5"/>
<path fill-rule="evenodd" clip-rule="evenodd" d="M289.968 680.222C302.743 666.769 307.297 661.776 310.137 662.411C318.099 664.181 337.957 688.849 340.996 685.183C344.034 681.517 370.197 660.296 380.503 650.062C390.384 641.286 433.394 607.784 434.23 609.397C438.36 617.368 602.878 903.238 602.878 903.238C602.878 903.238 -26.1267 893.015 -9.84809 879.392C6.43051 865.769 193.707 726.67 197.699 723.124C199.991 721.088 205.402 727.296 211.955 733.213C212.583 733.78 216.179 731.943 216.807 732.503C228.971 746.717 223.853 747.083 246.025 725.966C252.65 714.425 269.021 698.116 272.77 690.081C273.9 688.279 276.709 689.373 277.547 689.527C282.649 687.83 281.843 677.629 289.968 680.214" fill="#5799C9"/>
<path fill-rule="evenodd" clip-rule="evenodd" d="M373.332 636.65L434.23 609.397L371.604 684.634L383.697 686.85L328.931 756.488L320.34 777.057L320.158 785.743L280.129 818.977L303.443 776.702L314.097 746.847L302.984 734.919L329.688 704.732C336.151 691.363 364.65 649.599 373.339 636.651L373.332 636.65Z" fill="#4E89B5"/>
<path fill-rule="evenodd" clip-rule="evenodd" d="M305.873 650.541L321.625 670.48L294.603 709.673L306.354 713.118L299.464 722.878L278.035 783.176L206.127 795.391C206.127 795.391 216.928 762.621 223.34 759.859C229.752 757.105 254.778 728.076 258.738 723.336C262.69 718.597 267.692 690.93 270.578 685.283C273.464 679.63 305.866 650.534 305.866 650.534" fill="#588BB5"/>
<path fill-rule="evenodd" clip-rule="evenodd" d="M407.174 618.732C412.526 618.845 433.967 609.233 433.967 609.233L402.336 672.436C406.24 697.976 410.199 686.768 396.086 715.005C392.89 723.771 378.259 767.034 376.477 772.15C374.695 777.266 318.237 831.969 318.237 831.969L289.477 802.024C289.477 802.024 307.633 783.891 311.86 773.609C316.094 763.326 317.821 728.683 329.287 724.511C340.752 720.339 357.391 703.956 357.391 703.956C357.391 703.956 356.137 694.895 357.714 688.568C359.292 682.24 391.318 639.904 391.318 639.904C390.285 633.686 391.501 629.184 391.559 628.466" fill="#588BB5"/>
<path fill-rule="evenodd" clip-rule="evenodd" d="M127.473 759.877C136.737 753.79 198.454 722.752 198.454 722.752C198.454 722.752 186.851 747.132 182.809 749.332C178.766 751.533 170.919 757.937 170.919 757.937L177.565 767.967C169.96 777.561 111.664 825.023 105.132 831.088C105.132 831.088 69.9727 819.05 70.9293 814.578C71.8785 810.113 118.21 765.964 127.481 759.877" fill="#588BB5"/>
<path fill-rule="evenodd" clip-rule="evenodd" d="M32.7193 869.671C45.9249 865.464 202.765 761.461 212.849 771.376C219.736 778.147 231.966 785.125 240.722 784.375C253.548 775.962 275.272 751.873 280.148 755.879C289.198 763.314 425.883 944.459 413.718 934.35C406.683 928.495 5.89294 938.157 5.89294 938.157C5.89294 938.157 19.5065 873.879 32.7193 869.671Z" fill="#4782AF"/>
<path fill-rule="evenodd" clip-rule="evenodd" d="M230.951 782.782L240.721 784.382C240.676 793.365 240.635 834.268 240.301 842.297L237.126 853.831L225.556 869.472L201.922 890.386L227.233 857.727L229.035 848.629L225.475 839.85L235.158 820.605L217.712 827.195L234.081 804.166L229.981 793.715L215.234 787.475L210.864 770.73L230.966 782.789L230.951 782.782Z" fill="#40759E"/>
<path fill-rule="evenodd" clip-rule="evenodd" d="M104.279 815.279C111.138 815.165 178.22 775.449 184.717 774.443C191.214 773.436 211.109 768.673 211.109 768.673L184.434 806.04L192.739 809.262L189.908 817.08L190.719 832.888L171.698 868.217L127.152 922.487C127.152 922.487 122.652 846.622 117.837 840.433C113.015 834.244 97.4194 815.401 104.279 815.279Z" fill="#4D8CBB"/>
<path fill-rule="evenodd" clip-rule="evenodd" d="M309.993 770.752C303.952 764.767 285.737 748.794 281.523 752.328C277.309 755.862 272.291 770.268 274.728 775.034C277.165 779.801 281.349 787.594 272.459 796.786C263.562 805.979 253.327 827.161 253.327 827.161L271.996 818.806C271.996 818.806 250.181 856.103 242.757 864.292C235.333 872.48 226.373 884.618 222.531 895.053C218.682 905.487 208.891 940.097 213.329 936.195C217.759 932.299 292.752 901.237 298.535 902.085C304.317 902.932 341.515 875.791 339.094 870.3C336.672 864.808 316.042 776.73 310.001 770.745" fill="#4D8CBB"/>
<mask id="mask0_323_882" style="mask-type:alpha" maskUnits="userSpaceOnUse" x="-11" y="608" width="614" height="331">
<path fill-rule="evenodd" clip-rule="evenodd" d="M243.529 704.2L306.621 659.383L310.18 662.067L273.657 712.826L280.338 712.966L267.522 726.705C262.717 734.065 251.196 750.433 245.983 757.726C238.311 767.405 200.956 799.631 191.162 808.374L217.256 759.35L218.347 747.119L198.504 722.415L232.939 726.567L243.529 704.2Z" fill="#4E89B5"/>
<path fill-rule="evenodd" clip-rule="evenodd" d="M289.968 680.222C302.743 666.769 307.297 661.776 310.137 662.411C318.099 664.181 337.957 688.849 340.996 685.183C344.034 681.517 370.197 660.296 380.503 650.062C390.384 641.286 433.394 607.784 434.23 609.397C438.36 617.368 602.878 903.238 602.878 903.238C602.878 903.238 -26.1267 893.015 -9.84809 879.392C6.43051 865.769 193.707 726.67 197.699 723.124C199.991 721.088 205.402 727.296 211.955 733.213C212.583 733.78 216.179 731.943 216.807 732.503C228.971 746.717 223.853 747.083 246.025 725.966C252.65 714.425 269.021 698.116 272.77 690.081C273.9 688.279 276.709 689.373 277.547 689.527C282.649 687.83 281.843 677.629 289.968 680.214" fill="#5799C9"/>
<path fill-rule="evenodd" clip-rule="evenodd" d="M373.332 636.65L434.23 609.397L371.604 684.634L383.697 686.85L328.931 756.488L320.34 777.057L320.158 785.743L280.129 818.977L303.443 776.702L314.097 746.847L302.984 734.919L329.688 704.732C336.151 691.363 364.65 649.599 373.339 636.651L373.332 636.65Z" fill="#4E89B5"/>
<path fill-rule="evenodd" clip-rule="evenodd" d="M305.873 650.541L321.625 670.48L294.603 709.673L306.354 713.118L299.464 722.878L278.035 783.176L206.127 795.391C206.127 795.391 216.928 762.621 223.34 759.859C229.752 757.105 254.778 728.076 258.738 723.336C262.69 718.597 267.692 690.93 270.578 685.283C273.464 679.63 305.866 650.534 305.866 650.534" fill="#588BB5"/>
<path fill-rule="evenodd" clip-rule="evenodd" d="M407.174 618.732C412.526 618.845 433.967 609.233 433.967 609.233L402.336 672.436C406.24 697.976 410.199 686.768 396.086 715.005C392.89 723.771 378.259 767.034 376.477 772.15C374.695 777.266 318.237 831.969 318.237 831.969L289.477 802.024C289.477 802.024 307.633 783.891 311.86 773.609C316.094 763.326 317.821 728.683 329.287 724.511C340.752 720.339 357.391 703.956 357.391 703.956C357.391 703.956 356.137 694.895 357.714 688.568C359.292 682.24 391.318 639.904 391.318 639.904C390.285 633.686 391.501 629.184 391.559 628.466" fill="#588BB5"/>
<path fill-rule="evenodd" clip-rule="evenodd" d="M127.473 759.877C136.737 753.79 198.454 722.752 198.454 722.752C198.454 722.752 186.851 747.132 182.809 749.332C178.766 751.533 170.919 757.937 170.919 757.937L177.565 767.967C169.96 777.561 111.664 825.023 105.132 831.088C105.132 831.088 69.9727 819.05 70.9293 814.578C71.8785 810.113 118.21 765.964 127.481 759.877" fill="#588BB5"/>
<path fill-rule="evenodd" clip-rule="evenodd" d="M32.7193 869.671C45.9249 865.464 202.765 761.461 212.849 771.376C219.736 778.147 231.966 785.125 240.722 784.375C253.548 775.962 275.272 751.873 280.148 755.879C289.198 763.314 425.883 944.459 413.718 934.35C406.683 928.495 5.89294 938.157 5.89294 938.157C5.89294 938.157 19.5065 873.879 32.7193 869.671Z" fill="#4782AF"/>
<path fill-rule="evenodd" clip-rule="evenodd" d="M230.951 782.782L240.721 784.382C240.676 793.365 240.635 834.268 240.301 842.297L237.126 853.831L225.556 869.472L201.922 890.386L227.233 857.727L229.035 848.629L225.475 839.85L235.158 820.605L217.712 827.195L234.081 804.166L229.981 793.715L215.234 787.475L210.864 770.73L230.966 782.789L230.951 782.782Z" fill="#40759E"/>
<path fill-rule="evenodd" clip-rule="evenodd" d="M104.279 815.279C111.138 815.165 178.22 775.449 184.717 774.443C191.214 773.436 211.109 768.673 211.109 768.673L184.434 806.04L192.739 809.262L189.908 817.08L190.719 832.888L171.698 868.217L127.152 922.487C127.152 922.487 122.652 846.622 117.837 840.433C113.015 834.244 97.4194 815.401 104.279 815.279Z" fill="#4D8CBB"/>
<path fill-rule="evenodd" clip-rule="evenodd" d="M309.993 770.752C303.952 764.767 285.737 748.794 281.523 752.328C277.309 755.862 272.291 770.268 274.728 775.034C277.165 779.801 281.349 787.594 272.459 796.786C263.562 805.979 253.327 827.161 253.327 827.161L271.996 818.806C271.996 818.806 250.181 856.103 242.757 864.292C235.333 872.48 226.373 884.618 222.531 895.053C218.682 905.487 208.891 940.097 213.329 936.195C217.759 932.299 292.752 901.237 298.535 902.085C304.317 902.932 341.515 875.791 339.094 870.3C336.672 864.808 316.042 776.73 310.001 770.745" fill="#4D8CBB"/>
</mask>
<g mask="url(#mask0_323_882)">
<rect y="402" width="1000" height="497" fill="white" fill-opacity="0.8"/>
</g>
</g>
<path fill-rule="evenodd" clip-rule="evenodd" d="M503.055 665.705L612.717 587.809L618.903 592.473L555.421 680.698L567.034 680.942L544.758 704.822C536.406 717.613 516.382 746.062 507.32 758.739C493.987 775.561 429.059 831.574 412.037 846.77L457.391 761.562L459.287 740.302L424.798 697.364L484.648 704.582L503.055 665.705Z" fill="#4E89B5"/>
<path fill-rule="evenodd" clip-rule="evenodd" d="M583.772 624.028C605.976 600.647 613.891 591.968 618.827 593.071C632.667 596.148 667.182 639.024 672.463 632.652C677.744 626.279 723.218 589.395 741.132 571.608C758.305 556.353 833.061 498.123 834.513 500.927C841.693 514.782 1127.64 1011.65 1127.64 1011.65C1127.64 1011.65 34.3658 993.885 62.6597 970.207C90.9537 946.529 416.46 704.759 423.398 698.597C427.383 695.058 436.788 705.849 448.177 716.133C449.268 717.117 455.519 713.926 456.61 714.898C477.753 739.604 468.857 740.241 507.394 703.536C518.91 683.478 547.364 655.131 553.879 641.164C555.844 638.032 560.726 639.934 562.182 640.202C571.051 637.252 569.65 619.521 583.772 624.015" fill="#5799C9"/>
<path fill-rule="evenodd" clip-rule="evenodd" d="M728.667 548.297L834.513 500.927L725.664 631.697L746.683 635.549L651.492 756.587L636.562 792.339L636.244 807.436L566.67 865.2L607.192 791.721L625.71 739.829L606.396 719.098L652.81 666.63C664.042 643.393 713.577 570.803 728.679 548.297L728.667 548.297Z" fill="#4E89B5"/>
<path fill-rule="evenodd" clip-rule="evenodd" d="M611.416 572.44L638.796 607.096L591.828 675.217L612.252 681.206L600.277 698.169L563.031 802.973L438.046 824.205C438.046 824.205 456.821 767.247 467.966 762.447C479.11 757.659 522.608 707.204 529.49 698.966C536.359 690.728 545.053 642.64 550.069 632.826C555.086 623 611.404 572.428 611.404 572.428" fill="#588BB5"/>
<path fill-rule="evenodd" clip-rule="evenodd" d="M787.487 517.153C796.79 517.349 834.057 500.643 834.057 500.643L779.078 610.496C785.865 654.887 792.746 635.406 768.215 684.486C762.66 699.722 737.231 774.917 734.133 783.809C731.035 792.701 632.905 887.78 632.905 887.78L582.918 835.734C582.918 835.734 614.475 804.217 621.821 786.345C629.181 768.473 632.183 708.259 652.112 701.008C672.04 693.756 700.959 665.282 700.959 665.282C700.959 665.282 698.779 649.533 701.522 638.534C704.264 627.536 759.929 553.951 759.929 553.951C758.133 543.145 760.246 535.319 760.347 534.072" fill="#588BB5"/>
<path fill-rule="evenodd" clip-rule="evenodd" d="M301.339 762.478C317.439 751.898 424.711 697.95 424.711 697.95C424.711 697.95 404.544 740.325 397.517 744.15C390.491 747.975 376.853 759.106 376.853 759.106L388.404 776.539C375.186 793.214 273.86 875.707 262.508 886.25C262.508 886.25 201.397 865.326 203.059 857.553C204.709 849.793 285.238 773.058 301.351 762.478" fill="#588BB5"/>
<path fill-rule="evenodd" clip-rule="evenodd" d="M136.646 953.312C159.599 945.999 432.203 765.23 449.73 782.463C461.701 794.233 482.958 806.361 498.176 805.057C520.471 790.435 558.229 748.567 566.703 755.528C582.434 768.452 820.005 1083.3 798.863 1065.73C786.634 1055.55 90.0193 1072.35 90.0193 1072.35C90.0193 1072.35 113.681 960.624 136.646 953.312Z" fill="#4782AF"/>
<path fill-rule="evenodd" clip-rule="evenodd" d="M481.194 802.289L498.176 805.069C498.097 820.683 498.026 891.777 497.446 905.732L491.927 925.779L471.817 952.964L430.739 989.316L474.732 932.55L477.863 916.738L471.675 901.479L488.507 868.029L458.184 879.484L486.634 839.456L479.508 821.292L453.877 810.447L446.281 781.341L481.219 802.302L481.194 802.289Z" fill="#40759E"/>
<path fill-rule="evenodd" clip-rule="evenodd" d="M261.024 858.772C272.946 858.573 389.542 789.543 400.835 787.794C412.127 786.045 446.706 777.765 446.706 777.765L400.342 842.713L414.778 848.314L409.857 861.902L411.266 889.378L378.206 950.783L300.78 1045.11C300.78 1045.11 292.959 913.25 284.59 902.492C276.209 891.735 249.102 858.984 261.024 858.772Z" fill="#4D8CBB"/>
<path fill-rule="evenodd" clip-rule="evenodd" d="M618.578 781.379C608.078 770.977 576.418 743.215 569.094 749.357C561.769 755.499 553.047 780.538 557.283 788.823C561.518 797.107 568.791 810.652 553.339 826.63C537.875 842.607 520.086 879.424 520.086 879.424L552.535 864.903C552.535 864.903 514.618 929.729 501.714 943.961C488.809 958.194 473.237 979.291 466.56 997.427C459.869 1015.56 442.851 1075.72 450.564 1068.94C458.265 1062.16 588.611 1008.18 598.661 1009.65C608.712 1011.12 673.366 963.949 669.157 954.403C664.948 944.858 629.09 791.769 618.591 781.367" fill="#4D8CBB"/>
<mask id="mask1_323_882" style="mask-type:alpha" maskUnits="userSpaceOnUse" x="62" y="500" width="1066" height="573">
<path fill-rule="evenodd" clip-rule="evenodd" d="M503.056 665.705L612.717 587.809L618.903 592.473L555.422 680.698L567.035 680.942L544.758 704.822C536.406 717.613 516.382 746.062 507.32 758.739C493.987 775.561 429.059 831.574 412.037 846.77L457.391 761.562L459.287 740.302L424.798 697.364L484.649 704.582L503.056 665.705Z" fill="#4E89B5"/>
<path fill-rule="evenodd" clip-rule="evenodd" d="M583.772 624.028C605.976 600.647 613.891 591.968 618.828 593.071C632.667 596.148 667.182 639.024 672.463 632.652C677.744 626.279 723.218 589.395 741.132 571.608C758.305 556.353 833.061 498.123 834.514 500.927C841.693 514.782 1127.64 1011.65 1127.64 1011.65C1127.64 1011.65 34.3661 993.885 62.66 970.207C90.9539 946.529 416.46 704.759 423.398 698.597C427.383 695.058 436.788 705.849 448.177 716.133C449.268 717.117 455.519 713.926 456.611 714.898C477.753 739.604 468.858 740.241 507.395 703.536C518.91 683.478 547.364 655.131 553.879 641.164C555.844 638.032 560.726 639.934 562.182 640.202C571.051 637.252 569.65 619.521 583.772 624.015" fill="#5799C9"/>
<path fill-rule="evenodd" clip-rule="evenodd" d="M728.667 548.297L834.514 500.927L725.664 631.697L746.683 635.549L651.493 756.587L636.562 792.339L636.244 807.436L566.67 865.2L607.192 791.721L625.711 739.829L606.396 719.098L652.81 666.63C664.042 643.393 713.578 570.803 728.68 548.297L728.667 548.297Z" fill="#4E89B5"/>
<path fill-rule="evenodd" clip-rule="evenodd" d="M611.416 572.44L638.796 607.096L591.828 675.217L612.252 681.206L600.277 698.169L563.032 802.973L438.047 824.205C438.047 824.205 456.822 767.247 467.966 762.447C479.11 757.659 522.608 707.204 529.49 698.966C536.359 690.728 545.054 642.64 550.07 632.826C555.086 623 611.404 572.428 611.404 572.428" fill="#588BB5"/>
<path fill-rule="evenodd" clip-rule="evenodd" d="M787.488 517.153C796.791 517.349 834.057 500.643 834.057 500.643L779.078 610.496C785.865 654.887 792.746 635.406 768.216 684.486C762.661 699.722 737.231 774.917 734.133 783.809C731.036 792.701 632.906 887.78 632.906 887.78L582.918 835.734C582.918 835.734 614.475 804.217 621.822 786.345C629.181 768.473 632.184 708.259 652.112 701.008C672.04 693.756 700.96 665.282 700.96 665.282C700.96 665.282 698.78 649.533 701.522 638.534C704.264 627.536 759.93 553.951 759.93 553.951C758.133 543.145 760.247 535.319 760.348 534.072" fill="#588BB5"/>
<path fill-rule="evenodd" clip-rule="evenodd" d="M301.339 762.478C317.44 751.898 424.711 697.95 424.711 697.95C424.711 697.95 404.544 740.325 397.518 744.15C390.491 747.975 376.853 759.106 376.853 759.106L388.404 776.539C375.186 793.214 273.86 875.707 262.508 886.25C262.508 886.25 201.397 865.326 203.06 857.553C204.709 849.793 285.239 773.058 301.352 762.478" fill="#588BB5"/>
<path fill-rule="evenodd" clip-rule="evenodd" d="M136.647 953.312C159.599 945.999 432.204 765.23 449.731 782.463C461.701 794.233 482.958 806.361 498.176 805.057C520.471 790.435 558.229 748.567 566.703 755.528C582.434 768.452 820.006 1083.3 798.863 1065.73C786.634 1055.55 90.0195 1072.35 90.0195 1072.35C90.0195 1072.35 113.681 960.624 136.647 953.312Z" fill="#4782AF"/>
<path fill-rule="evenodd" clip-rule="evenodd" d="M481.195 802.289L498.176 805.069C498.098 820.683 498.027 891.777 497.446 905.732L491.927 925.779L471.817 952.964L430.739 989.316L474.733 932.55L477.863 916.738L471.676 901.479L488.507 868.029L458.184 879.484L486.634 839.456L479.508 821.292L453.877 810.447L446.281 781.341L481.219 802.302L481.195 802.289Z" fill="#40759E"/>
<path fill-rule="evenodd" clip-rule="evenodd" d="M261.024 858.772C272.947 858.573 389.542 789.543 400.835 787.794C412.127 786.045 446.706 777.765 446.706 777.765L400.342 842.713L414.778 848.314L409.858 861.902L411.266 889.378L378.206 950.783L300.78 1045.11C300.78 1045.11 292.959 913.25 284.59 902.492C276.209 891.735 249.102 858.984 261.024 858.772Z" fill="#4D8CBB"/>
<path fill-rule="evenodd" clip-rule="evenodd" d="M618.578 781.379C608.078 770.977 576.419 743.215 569.094 749.357C561.769 755.499 553.047 780.538 557.283 788.823C561.518 797.107 568.792 810.652 553.34 826.63C537.875 842.607 520.086 879.424 520.086 879.424L552.535 864.903C552.535 864.903 514.618 929.729 501.714 943.961C488.81 958.194 473.237 979.291 466.56 997.427C459.87 1015.56 442.852 1075.72 450.565 1068.94C458.265 1062.16 588.611 1008.18 598.662 1009.65C608.712 1011.12 673.367 963.949 669.157 954.403C664.948 944.858 629.091 791.769 618.591 781.367" fill="#4D8CBB"/>
</mask>
<g mask="url(#mask1_323_882)">
<rect x="-0.000244141" y="402" width="1000" height="497" fill="white" fill-opacity="0.6"/>
</g>
<g clip-path="url(#clip2_323_882)">
<path fill-rule="evenodd" clip-rule="evenodd" d="M338.002 815.95C348.688 803.145 350.048 794.162 350.227 794.322C355.861 807.797 364.993 815.91 374.617 824.222L369.058 822.742L379.549 832.015L371.434 828.034L378.832 835.856L372.435 833.275L394.734 860.215L390.041 858.814L393.598 863.005L390.041 861.605C390.041 861.605 405.689 876.27 404.269 875.29C402.849 874.309 392.103 868.427 392.103 868.427L415.896 899.168L411.622 897.627C413.789 899.678 425.416 909.791 424.998 911.312C423.668 910.661 418.706 908.061 414.805 906C417.226 910.021 418.631 912.372 418.631 912.372L397.887 912.162C392.029 911.832 373.213 910.431 367.698 911.312L332.293 912.672C325.059 913.993 322.115 915.793 319.873 908.841C319.873 908.841 311.16 911.442 307.244 913.352C303.314 915.263 308.022 907.45 308.022 907.45C308.022 907.45 303.314 909.521 299.697 912.122C296.08 914.723 301.804 907.07 301.804 907.07C294.272 905.82 278.131 919.134 291.881 905.03L281.942 910.241C281.942 910.241 290.7 899.088 289.863 899.198C289.026 899.298 300.698 888.564 302.163 886.823C303.628 885.083 295.707 889.484 295.154 889.965C298.86 885.893 314.866 867.007 317.826 862.915C317.826 862.915 315.987 863.656 314.164 864.556C312.326 865.456 318.005 858.334 318.827 856.433C319.664 854.533 313.656 859.484 311.16 861.125C308.664 862.755 312.326 859.484 319.828 851.632C327.331 843.779 336.029 830.815 336.029 830.815C336.029 830.815 333.1 831.855 331.635 833.055C330.17 834.256 334.729 826.343 335.386 824.232C336.044 822.122 329.692 827.704 328.063 829.144C326.434 830.585 331.859 823.302 338.002 815.96" fill="#009CA7"/>
<path fill-rule="evenodd" clip-rule="evenodd" d="M410.255 827.001C421.003 816.937 422.371 809.876 422.551 810.002C428.218 820.593 437.403 826.97 447.084 833.504L441.492 832.34L452.044 839.629L443.882 836.5L451.323 842.649L444.889 840.62L467.317 861.795L462.597 860.694L466.175 863.989L462.597 862.888C462.597 862.888 478.336 874.415 476.908 873.645C475.48 872.874 464.671 868.251 464.671 868.251L488.603 892.414L484.304 891.203C486.483 892.815 498.178 900.764 497.757 901.959C496.42 901.448 491.429 899.404 487.506 897.784C489.941 900.945 491.354 902.793 491.354 902.793L470.489 902.628C464.596 902.368 445.671 901.267 440.124 901.959L404.512 903.029C397.237 904.067 394.275 905.482 392.021 900.017C392.021 900.017 383.257 902.061 379.318 903.563C375.365 905.065 380.1 898.924 380.1 898.924C380.1 898.924 375.365 900.552 371.727 902.596C368.089 904.641 373.847 898.625 373.847 898.625C366.27 897.642 350.035 908.108 363.865 897.021L353.869 901.118C353.869 901.118 362.678 892.351 361.836 892.437C360.994 892.516 372.734 884.079 374.207 882.711C375.68 881.343 367.713 884.802 367.157 885.18C370.885 881.979 386.985 867.134 389.961 863.918C389.961 863.918 388.112 864.5 386.278 865.208C384.429 865.915 390.142 860.317 390.968 858.823C391.81 857.329 385.767 861.221 383.257 862.511C380.746 863.792 384.429 861.221 391.975 855.049C399.522 848.876 408.27 838.686 408.27 838.686C408.27 838.686 405.324 839.504 403.851 840.447C402.378 841.391 406.963 835.171 407.624 833.512C408.285 831.845 401.897 836.24 400.258 837.373C398.62 838.505 404.076 832.789 410.255 827.009" fill="#009CA7"/>
<path fill-rule="evenodd" clip-rule="evenodd" d="M361.57 904.199L338.659 910.751L352.977 889.894C352.977 889.894 349.704 891.375 348.269 892.465C346.834 893.556 352.155 887.524 352.977 886.143C353.799 884.763 347.447 889.904 347.447 889.904L363.513 859.654C363.513 859.654 359.089 863.605 357.953 864.396C356.803 865.186 365.65 853.482 366.308 852.692C366.965 851.902 364.843 853.562 363.528 854.352C362.213 855.143 366.801 848.901 366.801 848.901C349.509 868.057 380.386 820.871 379.191 820.801L373.691 824.442L381.148 811.978C381.148 811.978 379.445 813.119 378.398 813.809C377.352 814.499 383.51 807.547 383.898 806.846C384.287 806.146 380.625 808.807 378.787 810.138C376.949 811.468 393.06 790.081 393.628 789.351C393.702 789.381 402.326 803.405 402.445 803.525L399.516 801.705L407.885 819.121L403.402 816.34C402.938 816.54 417.196 836.446 409.29 828.334C409.29 828.334 412.832 834.156 412.309 833.715C411.786 833.275 410.127 832.035 410.127 832.035C410.127 832.035 426.074 856.873 425.042 855.803C424.011 854.733 418.407 851.031 418.407 851.031L425.042 859.214L422.397 858.214C422.397 858.214 435.594 881.682 435.19 880.971C434.787 880.261 427.045 873.079 427.419 873.859C427.792 874.629 430.976 879.141 430.124 878.661C429.272 878.19 428.405 878.07 428.405 878.07C428.405 878.07 434.757 887.534 440.959 895.236C441.019 895.316 435.19 892.655 435.19 892.655C435.25 893.926 445.189 906.85 442.708 906.28C440.302 905.239 430.243 904.209 430.243 904.209C413.505 904.129 378.488 904.139 361.585 904.189L361.57 904.199Z" fill="#23353F"/>
<path fill-rule="evenodd" clip-rule="evenodd" d="M255.697 805.026C255.697 805.026 270.2 822.144 270.22 822.183L266.115 819.873L272.524 827.516L267.76 824.817L281.025 846.918L276.571 844.336L286.311 856.003L283.271 854.03L285.285 858.027L282.922 856.405L292.566 866.891L288.867 864.477C290.281 866.45 292.604 870.706 293.572 872.809L289.758 869.383L301.434 884.969L297.329 881.309L314.582 904.449L308.754 901.749L312.743 907.135L308.095 904.462L328.408 928.445L323.257 925.395L327.207 932.844L320.604 928.847L330.906 945.121H328.582C330.228 949.157 331.835 951.467 330.325 950.909L330.422 951C317.738 949.43 175.976 947.859 175.686 947.756L171.387 947.704L191.583 919.23L183.625 923.098L190.247 912.625L186.936 913.572L198.303 903.982L192.28 906.097L198.612 899.154L191.68 901.983L210.908 878.415L207.384 879.557L211.818 874.833L207.016 877.195L212.942 872.497H211.838L213.561 869.538L208.759 873.471L232.15 846.711L228.239 848.06L231.783 844.141L227.619 846.373L233.951 839.443L231.182 841.247L240.361 829.23L237.379 831.604L244.756 819.457L242.549 820.015C242.665 819.898 255.581 805.104 255.677 805" fill="#009CA7"/>
<path fill-rule="evenodd" clip-rule="evenodd" d="M273.961 911.652L251.05 918.204L265.368 897.347C265.368 897.347 262.095 898.827 260.66 899.918C259.225 901.008 264.546 894.976 265.368 893.596C266.19 892.215 259.838 897.357 259.838 897.357L275.904 867.107C275.904 867.107 271.48 871.058 270.344 871.848C269.194 872.639 278.041 860.935 278.699 860.144C279.356 859.354 277.234 861.015 275.919 861.805C274.604 862.595 279.192 856.353 279.192 856.353C261.9 875.51 292.777 828.324 291.581 828.254L286.082 831.895L293.539 819.431C293.539 819.431 291.836 820.571 290.789 821.261C289.743 821.952 295.901 814.999 296.289 814.299C296.678 813.599 293.016 816.26 291.178 817.59C289.34 818.921 305.451 797.533 306.019 796.803C306.093 796.833 314.717 810.858 314.836 810.978L311.907 809.157L320.276 826.573L315.793 823.792C315.329 823.992 329.587 843.899 321.681 835.786C321.681 835.786 325.223 841.608 324.7 841.168C324.177 840.728 322.518 839.488 322.518 839.488C322.518 839.488 338.465 864.326 337.433 863.256C336.402 862.185 330.798 858.484 330.798 858.484L337.433 866.667L334.788 865.666C334.788 865.666 347.985 889.134 347.581 888.424C347.178 887.714 339.436 880.531 339.81 881.312C340.183 882.082 343.367 886.593 342.515 886.113C341.663 885.643 340.796 885.523 340.796 885.523C340.796 885.523 347.148 894.986 353.35 902.689C353.41 902.769 347.581 900.108 347.581 900.108C347.641 901.378 357.58 914.303 355.099 913.732C352.707 912.692 342.634 911.662 342.634 911.662C325.896 911.582 290.879 911.592 273.976 911.642L273.961 911.652Z" fill="#23353F"/>
<path fill-rule="evenodd" clip-rule="evenodd" d="M243.04 887.969L238.935 884.309L256.188 907.449L250.36 904.749L254.348 910.135L249.701 907.462L270.014 931.445L264.863 928.395L268.813 935.844L262.21 931.847L272.512 948.121H270.188C271.834 952.157 273.441 954.467 271.931 953.909L272.028 954C259.344 952.43 117.582 950.859 117.291 950.756L112.993 950.704L133.189 922.23L125.211 926.098L131.834 915.625L128.522 916.572L139.889 906.981L133.867 909.097L140.199 902.154L133.267 904.983L152.495 881.415L148.971 882.557L153.405 877.833L148.603 880.195L154.528 875.497H153.424L155.148 872.538L150.326 876.471L173.718 849.711L169.806 851.06L173.35 847.141L169.186 849.373L175.518 842.443L172.749 844.247L181.928 832.23L178.946 834.604L186.323 822.457L184.116 823.015C184.232 822.898 197.148 808.104 197.245 808" fill="#23353F"/>
<path fill-rule="evenodd" clip-rule="evenodd" d="M196.971 808C196.971 808 210.996 824.13 211.015 824.169L206.899 821.857L213.326 829.506L208.549 826.805L221.85 848.922L217.384 846.338L227.15 858.013L224.102 856.039L226.121 860.039L223.752 858.416L233.422 868.909L229.713 866.493C231.131 868.468 233.461 872.727 234.451 874.831L230.626 871.403L242.334 887" fill="#23353F"/>
<path fill-rule="evenodd" clip-rule="evenodd" d="M100.685 768.026C100.685 768.026 115.189 785.144 115.208 785.183L111.103 782.873L117.513 790.516L112.749 787.817L126.013 809.918L121.56 807.336L131.3 819.003L128.259 817.03L130.273 821.027L127.93 819.405L137.593 829.891L133.894 827.477C135.308 829.45 137.632 833.706 138.6 835.809L134.785 832.383L146.461 847.969L142.356 844.309L159.609 867.449L153.781 864.749L157.77 870.135L153.123 867.462L173.435 891.445L168.284 888.395L172.235 895.844L165.632 891.847L175.933 908.121H173.609C175.255 912.157 176.863 914.467 175.352 913.909L175.449 914C162.766 912.43 21.0033 910.859 20.7128 910.756L16.4141 910.704L36.6105 882.23L28.6326 886.098L35.255 875.625L31.9438 876.572L43.3104 866.981L37.2882 869.097L43.6202 862.154L36.688 864.983L55.9162 841.415L52.392 842.557L56.8263 837.833L52.0241 840.195L57.9494 835.497H56.8457L58.5691 832.538L53.7475 836.471L77.139 809.711L73.2275 811.06L76.771 807.141L72.6078 809.373L78.9204 802.443L76.1514 804.247L85.3299 792.23L82.3478 794.604L89.7254 782.457L87.518 783.015C87.6341 782.898 100.55 768.104 100.647 768" fill="#23353F"/>
<path fill-rule="evenodd" clip-rule="evenodd" d="M131.533 821.181C140.968 809.825 142.15 801.858 142.325 802.002C147.284 813.945 155.344 821.142 163.831 828.509L158.929 827.192L168.17 835.419L161.021 831.886L167.55 838.822L161.912 836.528L181.578 860.414L177.432 859.175L180.57 862.891L177.432 861.652C177.432 861.652 191.226 874.652 189.986 873.791C188.727 872.918 179.253 867.702 179.253 867.702L200.236 894.952L196.477 893.596C198.473 895.461 208.528 904.327 208.276 905.735C207.094 905.161 202.716 902.854 199.286 901.028C201.418 904.601 202.658 906.674 202.658 906.674L184.348 906.478C179.175 906.192 162.591 904.94 157.727 905.722L126.495 906.922C120.257 908.121 117.37 909.595 115.549 903.532C115.549 903.532 107.876 905.839 104.408 907.534C100.94 909.229 105.106 902.306 105.106 902.306C105.106 902.306 100.959 904.144 97.7626 906.452C94.5658 908.747 99.6226 901.967 99.6226 901.967C93.6745 900.676 78.5816 912.645 90.8652 900.155L82.1078 904.77C82.1078 904.77 89.8383 894.887 89.1021 894.979C88.3658 895.07 98.6538 885.552 99.9519 884C101.231 882.462 94.2558 886.36 93.7714 886.79C97.0457 883.166 111.151 866.438 113.766 862.813C113.766 862.813 112.158 863.465 110.531 864.26C108.922 865.055 113.921 858.745 114.638 857.063C115.374 855.368 110.085 859.762 107.876 861.222C105.667 862.669 108.903 859.775 115.529 852.812C122.155 845.85 129.808 834.35 129.808 834.35C129.808 834.35 127.232 835.276 125.933 836.332C124.635 837.401 128.665 830.386 129.227 828.509C129.808 826.631 124.19 831.586 122.756 832.864C121.322 834.141 126.108 827.687 131.513 821.168" fill="#38689B"/>
<path fill-rule="evenodd" clip-rule="evenodd" d="M34.4402 854.673L12.2427 861L26.1113 840.882C26.1113 840.882 22.9347 842.303 21.5595 843.362C20.1648 844.407 25.3365 838.597 26.1113 837.254C26.9055 835.924 20.7653 840.882 20.7653 840.882L36.3191 811.7C36.3191 811.7 32.0384 815.509 30.9343 816.271C29.8303 817.033 38.3916 805.747 39.0308 804.986C39.67 804.224 37.5975 805.825 36.3385 806.587C35.0794 807.349 39.5151 801.319 39.5151 801.319C22.6248 819.848 52.7639 774.241 51.5049 774.215L46.1782 777.727L53.4031 765.706C53.4031 765.706 51.7567 766.803 50.7301 767.475C49.7229 768.146 55.6693 761.432 56.0567 760.76C56.4441 760.089 52.8801 762.646 51.1175 763.937C49.3936 765.383 65.0636 744 65.5672 744L74.0317 757.558L71.2038 755.802L79.3002 772.601L74.9615 769.915C74.516 770.109 88.3265 789.31 80.6755 781.485C80.6755 781.485 84.1039 787.102 83.6003 786.676C83.0967 786.25 81.489 785.062 81.489 785.062C81.489 785.062 96.946 809.014 95.9387 807.994C94.9315 806.961 89.508 803.397 89.508 803.397L95.9387 811.287L93.3626 810.331C93.3626 810.331 106.147 832.967 105.759 832.283C105.372 831.598 97.8757 824.677 98.2244 825.413C98.573 826.162 101.672 830.501 100.839 830.049C100.006 829.597 99.1735 829.481 99.1735 829.481C99.1735 829.481 105.333 838.61 111.338 846.047C111.396 846.125 105.759 843.555 105.759 843.555C105.914 845.027 115.289 856.829 113.042 856.7C103.706 853.524 81.1985 854.983 71.6105 854.634L34.4596 854.686L34.4402 854.673Z" fill="#38689B"/>
<path fill-rule="evenodd" clip-rule="evenodd" d="M300.833 917.914L277.533 923.626L292.09 905.46C292.09 905.46 288.757 906.75 287.307 907.69C285.858 908.641 291.268 903.389 292.09 902.178C292.927 900.968 286.471 905.45 286.471 905.45L302.806 879.111C302.806 879.111 298.307 882.552 297.141 883.242C295.976 883.932 304.973 873.739 305.63 873.049C306.303 872.358 304.136 873.809 302.806 874.499C301.476 875.189 306.138 869.748 306.138 869.748C288.234 886.883 320.008 845.299 318.737 845.279L313.148 848.45L320.74 837.597C320.74 837.597 319.006 838.587 317.945 839.197C316.884 839.807 323.146 833.745 323.535 833.135C323.938 832.525 320.202 834.846 318.334 835.996C316.466 837.157 332.846 818.53 333.414 817.89C333.488 817.92 342.261 830.134 342.366 830.234L339.392 828.644L347.895 843.809L343.337 841.388C342.919 841.638 357.401 858.944 349.33 851.832C349.33 851.832 352.932 856.903 352.394 856.523C351.856 856.143 350.167 855.063 350.167 855.063C350.167 855.063 366.383 876.69 365.337 875.76C364.29 874.829 358.596 871.608 358.596 871.608L365.337 878.731L362.646 877.86C362.646 877.86 376.067 898.297 375.664 897.677C375.245 897.057 367.384 890.805 367.758 891.475C368.131 892.145 371.374 896.076 370.508 895.656C369.626 895.246 368.759 895.136 368.759 895.136C368.759 895.136 375.215 903.379 381.522 910.081C381.582 910.151 375.664 907.83 375.664 907.83C375.723 908.911 385.871 920.294 383.301 919.694C380.865 918.784 370.627 917.894 370.627 917.894C353.605 917.824 317.99 917.834 300.818 917.884L300.833 917.914Z" fill="#38689B"/>
<path fill-rule="evenodd" clip-rule="evenodd" d="M231.068 952.439C261.518 935.477 371.151 820.652 396.743 820.104C422.32 819.55 443.038 835.222 457.643 828.976C488.646 811.913 527.393 780.639 559.173 764.787C570.818 758.463 594.392 770.36 611.134 778.153C611.134 778.153 673.5 789.198 710.228 773.909C746.957 758.619 965.766 808.09 973.3 815.5C982.628 824.669 1076.61 855 1092.13 882.184C1090.91 889.828 813.343 974.341 767.063 964.148C720.767 953.956 200.603 969.401 231.068 952.447" fill="#009CA7"/>
<path fill-rule="evenodd" clip-rule="evenodd" d="M568.676 763L561.194 763.806C559.953 764.688 556.327 766.985 556.163 768.07C553.248 786.623 545.68 818.88 536.34 837.487C535.443 839.274 536.205 841.17 538.387 842.621L549.686 850.127C552.749 852.163 552.914 855.003 550.104 857.133L509.378 887.904C509.08 888.13 508.811 888.372 508.571 888.621C502.608 894.855 518.615 900.394 527.283 895.089L595.732 853.232C598.736 851.391 599.289 848.777 597.137 846.639L584.254 833.899C581.967 831.628 582.73 828.851 586.167 827.017L606.642 816.079C609.84 814.37 610.752 811.811 608.944 809.619L601.307 800.358C600.126 798.938 600.051 797.331 601.142 795.888C609.153 785.433 604.544 798.369 609.864 778.209L586.167 766.81L568.676 763Z" fill="#23353F"/>
<path fill-rule="evenodd" clip-rule="evenodd" d="M727.174 769.24L712.054 773.139C710.814 774.021 703.876 776.344 703.712 777.429C700.798 795.982 695.701 822.976 686.36 841.583C685.463 843.37 686.225 845.266 688.407 846.717L699.706 854.223C702.77 856.259 702.934 859.099 700.124 861.229L659.399 892C659.1 892.226 658.831 892.468 658.592 892.717C652.628 898.951 668.635 904.49 677.303 899.185L745.752 857.328C748.756 855.486 749.309 852.873 747.157 850.735L734.274 837.995C731.988 835.724 732.75 832.947 736.187 831.113L756.662 820.175C759.86 818.466 760.772 815.907 758.964 813.715L751.327 804.454C750.146 803.034 750.071 801.427 751.162 799.984C759.173 789.529 755.222 788.062 760.542 767.902C760.542 767.902 741.224 764.309 734.274 769.24H727.174Z" fill="#23353F"/>
<path fill-rule="evenodd" clip-rule="evenodd" d="M979.199 791.601L964.08 795.501C962.839 796.383 955.747 805 934.684 803.5C931.77 822.053 947.726 845.338 938.385 863.945C937.489 865.732 938.251 867.628 940.433 869.079L951.732 876.584C954.795 878.621 954.96 881.461 952.15 883.591L911.424 914.361C911.125 914.588 910.856 914.829 910.617 915.079C904.654 921.313 920.66 926.852 929.329 921.547L997.778 879.69C1000.78 877.848 1001.33 875.235 999.183 873.097L986.3 860.356C984.013 858.086 984.775 855.309 988.213 853.475L1008.69 842.537C1011.89 840.828 1012.8 838.269 1010.99 836.077L1003.35 826.816C1002.17 825.396 1002.1 823.789 1003.19 822.345C1011.2 811.891 1007.25 810.424 1012.57 790.264C1012.57 790.264 993.249 786.671 986.3 791.601H979.199Z" fill="#23353F"/>
<path fill-rule="evenodd" clip-rule="evenodd" d="M408.872 817.413L401.922 818.724L390.116 824.973L403.282 849.651L374.946 875.888L341.917 893.006L340.318 901.588L311.803 934.863C322.817 924.861 350.018 900.847 365.471 892.936L418.751 874.305L434.458 863.031L440.481 856.212C445.084 853.817 471.851 840.702 474.945 838.088L433.666 827.61L421.291 820.261L408.857 817.413H408.872Z" fill="#23353F"/>
<path fill-rule="evenodd" clip-rule="evenodd" d="M440.974 825.051C445.189 823.397 521.589 782.679 528.195 778.825C534.8 774.971 561.376 763.78 561.376 763.78C557.984 768.25 505.627 825.231 505.627 825.231L518.689 830.091C507.854 834.078 452.796 884.533 446.713 889.55L395.077 916.848L388.038 938.343L332.98 945.934C339.586 938.546 414.626 891.594 426.447 883.745L420.559 872.487L435.146 853.2L473.674 838.829L443.545 830.06C443.545 830.06 436.76 826.697 440.974 825.051Z" fill="#38689B"/>
<path fill-rule="evenodd" clip-rule="evenodd" d="M610.139 777.998L636.455 781.329L663.045 782.108L661.76 803.815L659.742 821.977L624.277 863.211L650.372 886.967L550.642 945.942L501.114 936.588L588.797 886.273L530.212 901.643L589.47 848.247L568.367 823.382L594.148 810.797L588.125 792.283L610.139 777.998Z" fill="#38689B"/>
<path fill-rule="evenodd" clip-rule="evenodd" d="M862.467 788.5L895.501 791.331L923.149 801L920.807 813.817L918.789 831.979L883.324 873.213L909.418 896.969L809.689 955.944L760.16 946.59L847.844 896.275L789.259 911.645L848.517 858.248L827.414 833.384L853.194 820.799L847.172 802.285L862.467 788.5Z" fill="#38689B"/>
<path fill-rule="evenodd" clip-rule="evenodd" d="M759.499 767.68L791.303 771.579L807.803 778.5L803.53 791.768L801.528 809.939L766.048 851.172L792.157 874.929L692.427 933.904L642.899 924.549L730.583 874.227L671.997 889.604L731.24 836.208L710.152 811.335L735.933 798.759L729.91 780.237L759.499 767.68Z" fill="#38689B"/>
<path fill-rule="evenodd" clip-rule="evenodd" d="M1011.53 790.042L1043.33 793.941L1052.21 795.959L1055.56 814.13L1053.55 832.301L1018.07 873.534L1044.18 897.291L944.453 956.265L894.925 946.911L982.608 896.588L924.023 911.966L983.266 858.57L962.178 833.697L987.959 821.121L981.936 802.599L1011.53 790.042Z" fill="#38689B"/>
</g>
<g clip-path="url(#clip3_323_882)">
<path fill-rule="evenodd" clip-rule="evenodd" d="M-72.62 783.15C-7.17 791.38 180.9 813.79 241.02 834.63L241.23 884.42L230.86 957.46L194.81 999.77L-56.78 976.91L-72.62 783.15Z" fill="#38689B"/>
<path d="M169.82 840.22L146.42 879.86C136.63 884.22 115.55 894.25 106.63 899.84L91.14 922.21H235.87L241.23 884.42L241.02 834.63L169.82 840.21V840.22Z" fill="#23353F"/>
<path d="M-55.47 891.22L-18.67 922.21H131.19L146.51 911.98L169.82 840.22L126.86 822.67L66.45 817.82L34.33 815.5L-59.29 787.27L-55.47 891.22Z" fill="#009CA7"/>
<path fill-rule="evenodd" clip-rule="evenodd" d="M25.88 875.35C27.28 871.43 66.46 817.82 66.46 817.82C66.46 817.82 -31.43 774.8 -35.28 774.45C-39.13 774.1 -83.98 778.3 -87.83 778.65C-91.68 779 -66.23 861.13 -66.23 861.13C-66.23 861.13 24.49 879.26 25.89 875.34" fill="#38689B"/>
<path fill-rule="evenodd" clip-rule="evenodd" d="M44.1801 943.75C34.8601 922.96 -43.9999 778.66 -54.4999 777C-80.6499 776.14 -176 758 -216.5 751.5L-265.5 736C-265.5 736 -285.57 735.66 -318 748L-336 762.5V936.26C-336 936.26 53.5001 964.53 44.1801 943.74" fill="#38689B"/>
<path fill-rule="evenodd" clip-rule="evenodd" d="M84.64 983.39C73.17 960.25 3.20988 793.84 -34.0001 775.5C-52.2101 817.75 -82.5001 795.5 -94.55 826.8C-101.16 840.24 -72.69 877.18 -66.53 890.85C-62.73 897.29 -89.72 939.59 -92.94 943.61C-96.16 947.64 -86.49 961.18 -86.49 961.18L84.64 983.38V983.39Z" fill="#009CA7"/>
</g>
<g clip-path="url(#clip4_323_882)">
<path fill-rule="evenodd" clip-rule="evenodd" d="M156.29 795.1C156.46 796.53 156.77 811.07 156.77 811.07C156.77 811.07 163.76 811.04 165.03 814.93C165.97 817.8 166.32 820.42 165.01 820.9C163.69 821.37 142.85 819.7 142.85 819.7L140.54 793.95C140.54 793.95 156.12 793.67 156.29 795.11" fill="#009CA7"/>
<path fill-rule="evenodd" clip-rule="evenodd" d="M94.46 790L91.64 804.74C94.44 806.1 100.52 809.31 98.65 814.48C98.35 815.73 83.33 813.6 77.77 812.78L82.23 788.22L94.46 790Z" fill="#009CA7"/>
<path fill-rule="evenodd" clip-rule="evenodd" d="M188.3 639.87L188.22 820.75C187.84 820.88 184.95 821.93 185.32 819.98L186.03 639.98L188.29 639.87H188.3Z" fill="#23353F"/>
<path fill-rule="evenodd" clip-rule="evenodd" d="M188.85 638.89H185.24V655.87C185.22 656.87 186.15 657.68 187.14 657.58C188.06 657.6 188.87 656.79 188.85 655.87V638.89Z" fill="#23353F"/>
<path fill-rule="evenodd" clip-rule="evenodd" d="M128.02 707.58C128.08 704.95 135.91 738.61 139.35 746.32C136.33 765.68 136.15 799.91 142.28 799.17C150.3 798.2 158.6 800.99 158.98 799.22C160.18 793.72 158.94 756.42 155.66 744.78C156 716.25 156.45 692.45 153.96 676.47C153.96 676.47 117.35 672.89 114.22 673.04C111.1 673.19 103.66 680.69 103.66 680.69L95.3 738.06C84 763.36 76.83 788.36 80.98 789.64C80.98 789.64 92.63 793.17 95.32 792.76C102.24 783.06 120.84 727.48 128 707.59" fill="#23353F"/>
<path fill-rule="evenodd" clip-rule="evenodd" d="M87 797.89C95.79 783.45 121.07 717.62 126.88 702L128.71 707.44C104.5 778 95.5 793 95.5 793C95.5 793 91.6982 793.09 90.1543 792" fill="#009CA7"/>
<path d="M154.26 764.54C156.33 780.63 155 793.5 153.5 799.5C154.833 799.834 157.8 800.3 159 799.5C159.527 795.546 160 763.5 155.5 744.5C157 721 155.06 683.5 155.06 683.5V682.45L147.29 682.45C147.29 682.45 152.77 715.62 150.94 726.93C149.11 738.24 152.19 748.45 154.26 764.54Z" fill="#009CA7"/>
<path fill-rule="evenodd" clip-rule="evenodd" d="M179.82 642.51C181.14 639.54 179.64 634.34 183.8 636.12C184.76 636.21 185.77 633.23 187.62 634.78C189.47 636.33 190.75 641.92 189.13 643.49C187.5 645.07 184.81 645.67 184.81 645.67C184.81 645.67 178.76 644.53 179.82 642.5" fill="#D4843B"/>
<path fill-rule="evenodd" clip-rule="evenodd" d="M139.75 585.68C147.23 543.36 111.04 547.88 115.48 574.18C116.78 580.19 120.39 587.68 120.39 587.68L120.95 595.11L137.2 595.71L136.17 588.21C136.17 588.21 139.22 587.1 139.76 585.69" fill="#D4843B"/>
<path fill-rule="evenodd" clip-rule="evenodd" d="M138.59 567.38C140.8 570.61 143.62 573.07 139.87 574.67C139.87 574.67 137.38 565.12 138.59 567.38Z" fill="#D4843B"/>
<path fill-rule="evenodd" clip-rule="evenodd" d="M153.2 598.83C135.06 590.41 116.87 592.34 101.1 601.84C99.58 603.36 93.75 651.18 93.91 669.61C94.07 688.04 105.43 681.58 108.86 681.73C128.99 682.58 144.69 684.09 154.34 682.86C158.59 686.37 159.08 601.71 153.21 598.84" fill="#588BB5"/>
<path fill-rule="evenodd" clip-rule="evenodd" d="M94.43 653.96C94.55 659.34 93.09 677.78 97.38 680.88C101.67 683.99 100.75 682.56 102.36 682.69C103.97 682.82 108.94 681.56 109.83 681.82C110.72 682.08 132.24 683.43 135.46 682.9C149.2 671.08 145.97 632.64 144.3 613.53C143.74 607.19 141.01 598.54 139.58 597.57C137.65 596.26 133.7 602.54 130.37 601.99C86.28 602.13 92.45 622.77 94.44 653.95" fill="#23353F"/>
<path fill-rule="evenodd" clip-rule="evenodd" d="M151.31 632.98L137.49 658.17L138.29 663.13L152.12 637.04L151.31 632.98Z" fill="#23353F"/>
<path fill-rule="evenodd" clip-rule="evenodd" d="M145.26 596.01C140.65 596.56 137.17 597.97 134.93 602.73L130.14 597.46L133.81 593.33C136.63 590.51 146.14 593.85 145.26 596.01Z" fill="#23353F"/>
<path fill-rule="evenodd" clip-rule="evenodd" d="M136.34 563.26C143.38 562.66 146.42 551.18 139.71 548.03C138.29 547.74 138.1 549.52 137.21 550C135.37 548.73 133.27 549.02 131.34 549.93C127.43 548.43 123.01 550.04 120.92 553.74C120.54 555.01 120.31 556.74 118.55 556.09C108.87 557.31 110.97 570.26 116 575.6C116.76 578.2 116.56 581.44 118.85 583.38C123.66 586.06 130.6 581.79 132.69 577.17C133.23 574.41 133.95 571.44 133.47 568.63C132.7 566.25 134.36 564.64 136.34 563.26Z" fill="#422B26"/>
<path fill-rule="evenodd" clip-rule="evenodd" d="M133.2 581.94C133.2 581.94 144.12 628.58 137.97 674.93C136.72 684.32 85.83 682.22 84.53 677.06C77.35 648.45 75.88 591.44 83.96 584.08C93.41 575.47 135.05 575.42 133.2 581.94Z" fill="#38689B"/>
<path fill-rule="evenodd" clip-rule="evenodd" d="M127.84 580.13C125.41 580.82 119.24 588.46 118.38 594.7C117.52 600.94 135.66 685.54 111.69 681.5C107.54 680.8 140.11 685.3 142.4 679.99C144.7 674.69 139.5 614.29 138.6 600.73C136.63 583.85 136.12 578.79 127.84 580.13Z" fill="#588BB5"/>
<path fill-rule="evenodd" clip-rule="evenodd" d="M132.64 570.57C135.25 570.35 135.61 577.74 132.98 577.77C130.37 577.99 130.01 570.6 132.64 570.57Z" fill="#D4843B"/>
<path fill-rule="evenodd" clip-rule="evenodd" d="M135.16 591.79C135.16 591.79 133.39 589.59 128.7 590.34C119.74 591.77 121.07 605.4 119.41 605.84C114.63 607.09 79.3499 610.84 78.3999 607.08C75.6599 594.21 75.6699 581.56 90.5399 579.78C101.33 577.07 126.02 575.2 131.48 577.7C136.94 580.2 135.16 591.8 135.16 591.8" fill="#23353F"/>
<mask id="mask2_323_882" style="mask-type:luminance" maskUnits="userSpaceOnUse" x="76" y="576" width="60" height="33">
<path d="M90.54 579.78C75.67 581.56 75.65 594.21 78.4 607.08C79.35 610.85 114.63 607.1 119.41 605.84C121.07 605.4 119.75 591.78 128.7 590.34C133.4 589.59 135.16 591.79 135.16 591.79C135.16 591.79 136.94 580.19 131.48 577.69C120.91 574.78 100.06 577.7 90.54 579.77" fill="white"/>
</mask>
<g mask="url(#mask2_323_882)">
<path d="M90.6999 603.87C86.9699 603.87 83.2199 603.6 79.5299 602.95C79.5099 602.95 79.4899 602.93 79.4899 602.9C79.1999 600.56 78.6699 594.5 80.1599 588.76C81.6499 583.01 84.6399 579.48 89.0499 578.26C89.0799 578.26 89.1099 578.26 89.1199 578.3C89.1199 578.33 89.1199 578.36 89.0799 578.37C84.7099 579.58 81.7399 583.09 80.2599 588.79C78.7799 594.48 79.2899 600.49 79.5899 602.85C91.6599 604.97 104.3 603.03 115.08 600.84C114.42 597.46 114.64 593.61 115.72 589.99C116.84 586.2 118.78 582.94 121.3 580.56C124.05 577.98 128.77 575.29 135.66 577.12C135.69 577.12 135.7 577.16 135.7 577.18C135.7 577.21 135.66 577.22 135.64 577.22C128.79 575.41 124.11 578.08 121.38 580.64C118.86 583 116.94 586.25 115.82 590.02C114.75 593.64 114.52 597.5 115.2 600.87C115.2 600.9 115.19 600.93 115.16 600.93C107.64 602.45 99.2199 603.86 90.7199 603.86L90.6999 603.87Z" fill="#BCBFCC"/>
</g>
<path fill-rule="evenodd" clip-rule="evenodd" d="M156.09 659.78C151.45 658.29 139.81 607.11 139.86 602.7C140.45 598.64 140.45 596.25 145.62 596.2C157.49 593.19 163.68 626.42 167.93 637.56C173.16 638.11 178.18 639 178.18 639C179.25 637.12 188.76 642 185.57 647.42C182.8 650.61 161.92 663.3 156.09 659.79" fill="#588BB5"/>
<mask id="mask3_323_882" style="mask-type:luminance" maskUnits="userSpaceOnUse" x="139" y="595" width="48" height="66">
<path d="M145.62 596.2C140.45 596.25 140.45 598.64 139.86 602.7C139.28 606.75 152.14 656.66 154.92 659.19C157.25 660.75 159.25 661.22 162.88 659.8C168.37 657.75 183.61 650.72 185.56 647.41C188.75 641.99 179.24 637.11 178.17 638.99C178.17 638.99 173.16 638.11 167.92 637.55C163.69 626.44 157.47 593.17 145.61 596.19" fill="white"/>
</mask>
<g mask="url(#mask3_323_882)">
<path fill-rule="evenodd" clip-rule="evenodd" d="M140.37 599.57C140.37 599.57 153.45 650.56 158.08 653.59C162.71 656.62 187.67 644.74 187.67 644.74C187.67 644.74 184.12 654.66 178.1 658.2C172.08 661.74 154.03 669.1 150.58 661.84C147.14 654.58 134.01 600.4 137.19 595.7C140.37 591 140.36 599.56 140.36 599.56" fill="#4577A8"/>
</g>
<path fill-rule="evenodd" clip-rule="evenodd" d="M95.53 636.37C95.09 634.63 77.7 637.01 77.97 638.05L80.1 659.02C84.75 660.61 89.82 659.87 95.83 658.35C95.83 658.35 95.68 636.97 95.53 636.37Z" fill="#009CA7"/>
<mask id="mask4_323_882" style="mask-type:luminance" maskUnits="userSpaceOnUse" x="77" y="635" width="19" height="25">
<path d="M77.97 638.04L80.1 659.01C84.75 660.6 89.82 659.86 95.83 658.35C95.83 658.35 95.68 636.97 95.53 636.37C92.03 634.44 77.58 637.42 77.97 638.04Z" fill="white"/>
</mask>
<g mask="url(#mask4_323_882)">
<path fill-rule="evenodd" clip-rule="evenodd" d="M96.3201 635.53C94.3901 635.71 91.4401 636.81 91.2501 638.97C91.0901 641.44 94.6101 658.29 90.3301 661.02C91.3901 661.39 95.8301 662.17 96.9601 658.61C98.1001 655.06 98.2501 635.35 96.3201 635.53Z" fill="#009CA7"/>
</g>
<path fill-rule="evenodd" clip-rule="evenodd" d="M124.86 614.49C125.13 612.71 142.67 613.42 142.5 614.48L142.39 635.56C137.91 637.59 132.8 637.34 126.67 636.4C126.67 636.4 124.77 615.11 124.86 614.49Z" fill="#4577A8"/>
<path fill-rule="evenodd" clip-rule="evenodd" d="M124.86 614.49C125.13 612.71 142.67 613.42 142.5 614.48L142.39 635.56C137.91 637.59 132.8 637.34 126.67 636.4C126.67 636.4 124.77 615.11 124.86 614.49Z" fill="#009CA7"/>
<mask id="mask5_323_882" style="mask-type:luminance" maskUnits="userSpaceOnUse" x="124" y="613" width="19" height="25">
<path d="M124.85 614.49C124.76 615.11 126.66 636.4 126.66 636.4C132.79 637.33 137.9 637.59 142.38 635.56L142.49 614.48C142.93 613.53 125.54 612.6 124.85 614.49Z" fill="white"/>
</mask>
<g mask="url(#mask5_323_882)">
<path fill-rule="evenodd" clip-rule="evenodd" d="M123.99 613.73C125.93 613.73 128.97 614.53 129.37 616.67C129.77 619.11 127.87 636.23 132.39 638.53C131.37 639 127.03 640.2 125.56 636.77C124.09 633.34 122.05 613.74 123.99 613.73Z" fill="#009CA7"/>
</g>
<path fill-rule="evenodd" clip-rule="evenodd" d="M119.78 635.04C119.34 633.3 101.95 635.68 102.22 636.72L104.35 657.69C109 659.28 114.07 658.54 120.08 657.02C120.08 657.02 119.93 635.64 119.78 635.04Z" fill="#009CA7"/>
<mask id="mask6_323_882" style="mask-type:luminance" maskUnits="userSpaceOnUse" x="102" y="634" width="19" height="25">
<path d="M102.22 636.72L104.35 657.69C109 659.28 114.07 658.54 120.08 657.02C120.08 657.02 119.93 635.64 119.78 635.04C116.27 633.12 101.83 636.09 102.22 636.72Z" fill="white"/>
</mask>
<g mask="url(#mask6_323_882)">
<path fill-rule="evenodd" clip-rule="evenodd" d="M120.57 634.2C118.64 634.38 115.69 635.48 115.5 637.64C115.33 640.11 118.86 656.96 114.58 659.69C115.64 660.06 120.08 660.84 121.21 657.28C122.35 653.73 122.5 634.02 120.57 634.2Z" fill="#009CA7"/>
</g>
<path fill-rule="evenodd" clip-rule="evenodd" d="M95.63 638.32C90.02 636.94 90.34 642.49 90.31 642.65C90.12 643.85 78.27 646.09 77.63 643.48C77.01 640.93 77.45 638.02 77.81 637.05C78.4 634.72 98.73 631.29 95.62 638.31" fill="#23353F"/>
<path fill-rule="evenodd" clip-rule="evenodd" d="M124.94 616.45C130.39 614.54 130.61 620.09 130.65 620.25C130.95 621.43 142.96 622.52 143.35 619.86C143.73 617.26 143.01 614.41 142.55 613.48C141.74 611.22 121.17 609.75 124.94 616.44" fill="#23353F"/>
<path fill-rule="evenodd" clip-rule="evenodd" d="M119.88 637C114.27 635.62 114.59 641.17 114.56 641.33C114.37 642.53 102.52 644.77 101.88 642.16C101.26 639.61 101.7 636.7 102.06 635.73C102.65 633.4 122.98 629.97 119.87 636.99" fill="#23353F"/>
<path fill-rule="evenodd" clip-rule="evenodd" d="M113.66 605.17C113.42 606.49 114.39 628.16 114.39 628.16L111.46 628.3L111.17 605.06C111.17 605.06 113.9 603.85 113.66 605.16" fill="#009CA7"/>
<path fill-rule="evenodd" clip-rule="evenodd" d="M85.42 606.5C85.18 607.76 86.2 629.52 86.2 629.52C85.04 629.13 84.08 629.23 83.24 629.66L82.46 606.15C82.46 606.15 85.66 605.24 85.42 606.5Z" fill="#009CA7"/>
<path fill-rule="evenodd" clip-rule="evenodd" d="M72.76 662.32L132.1 659.46L132.91 676.42L73.57 679.27C65.4 680.21 64.53 662.15 72.76 662.31" fill="#23353F"/>
<path fill-rule="evenodd" clip-rule="evenodd" d="M132.26 659.46C140.12 658.9 140.95 676.23 133.07 676.42C125.21 676.98 124.38 659.65 132.26 659.46Z" fill="#23353F"/>
<mask id="mask7_323_882" style="mask-type:luminance" maskUnits="userSpaceOnUse" x="126" y="659" width="13" height="18">
<path d="M132.26 659.46C124.38 659.65 125.22 676.99 133.07 676.42C140.93 676.22 140.15 658.92 132.26 659.46Z" fill="white"/>
</mask>
<g mask="url(#mask7_323_882)">
<path fill-rule="evenodd" clip-rule="evenodd" d="M130.59 676.34C137.48 675.89 139.92 663.84 133.3 661.54C130.14 661.57 128.06 663.68 128.19 668.3C128.59 675.92 136.27 675.51 135.78 667.09C134.42 659.6 127.49 666.46 131.1 670.9C133.01 673.09 134.86 669.71 133.57 668.18C133.68 669.64 133.63 672.6 131.33 670.7C128.06 666.75 134.19 660.17 135.47 667.12C135.3 670.83 134.64 674.13 131.29 673.35C126.43 671.05 128.29 661.16 133.24 661.85C138.08 663.28 137.28 670.45 134.99 673.79C134.27 674.61 132.04 675.85 130.66 676.05C130.47 676 130.39 676.31 130.58 676.35" fill="#009CA7"/>
</g>
<path fill-rule="evenodd" clip-rule="evenodd" d="M89.56 678.95C78.94 682.21 78.29 657.92 89.26 661.29C82.82 663.2 83.19 677.02 89.56 678.95Z" fill="#009CA7"/>
<path fill-rule="evenodd" clip-rule="evenodd" d="M119.2 677.53C108.58 680.79 107.93 656.5 118.9 659.87C112.46 661.78 112.83 675.6 119.2 677.53Z" fill="#009CA7"/>
<path fill-rule="evenodd" clip-rule="evenodd" d="M184.23 635.99C184.23 635.99 186.23 634.87 187.45 638.66C188.94 643.42 186.01 644.87 188.3 645.3C188.42 644.68 190.17 640.79 189.15 638.39C187.71 634.19 185.9 633.24 184.23 635.99Z" fill="#23353F"/>
<path d="M98.87 614.26L98.89 614.76L99.69 614.69C99.29 613.19 101.19 611.87 102.37 612.99C101.68 613.25 101.12 613.85 100.98 614.57L101.82 614.5C102.15 613.47 103.81 613.24 104.27 614.28L105.11 614.2C104.89 613.4 104.11 612.85 103.27 612.83C102.11 610.85 98.71 612.04 98.88 614.26" fill="white"/>
<path d="M104.34 614.52C103.61 614.47 103.19 615.64 104.16 615.38C105.38 614.8 105.7 616.01 105.51 616.91L106.68 616.81C106.57 616.7 106.46 616.61 106.33 616.52C106.61 615.66 106.04 614.72 105.16 614.53C105.15 614.42 105.13 614.32 105.1 614.21L104.26 614.29C104.3 614.37 104.33 614.44 104.34 614.52Z" fill="white"/>
<path d="M101.54 617.22L101.58 617.26L102.27 617.2L101.87 616.83C102.31 615.64 100.26 615.49 100.31 616.66C100.31 617.31 101.06 617.43 101.53 617.22M100.83 616.62C100.81 616.27 101.41 616.19 101.42 616.57C101.44 616.92 100.84 617 100.83 616.62Z" fill="white"/>
<path d="M101.29 615.06C101.64 615.1 101.75 614.78 101.81 614.51L100.97 614.59C100.9 614.81 101.04 615.04 101.28 615.07" fill="white"/>
<path d="M99.78 617.42L99.69 614.69L98.89 614.77L98.98 617.5L99.78 617.42Z" fill="white"/>
<path d="M103.73 618.65C104.25 618.9 104.95 618.45 104.91 617.88C104.83 616.66 102.85 617.26 103.37 618.32L101.69 619.99L102.45 619.92L103.73 618.65ZM104.09 617.68C104.48 617.64 104.48 618.22 104.11 618.24C103.72 618.27 103.72 617.7 104.09 617.68Z" fill="white"/>
<path d="M99.87 620.15L99.83 618.89C99.95 618.86 101.44 618.8 101.49 618.68C101.69 618.35 103.13 617.6 102.28 617.2L101.59 617.26L101.94 617.58L101.21 618.27L99.82 618.39L99.79 617.41L98.99 617.48L99.08 620.21L99.88 620.14L99.87 620.15Z" fill="white"/>
<path d="M105.68 617.06C106.63 617.5 106.84 618.8 106.18 619.59L107.13 619.5C107.57 618.61 107.4 617.49 106.69 616.8L105.52 616.91C105.56 616.97 105.61 617.02 105.68 617.06Z" fill="white"/>
<path d="M101.43 617.27L100.84 617.32C101.03 617.38 101.26 617.36 101.43 617.27Z" fill="white"/>
<path d="M104.89 620.33C102.95 618.77 103.05 622.92 104.9 621.09C105.46 621.03 105.99 620.78 106.41 620.43C106.91 621.23 105.76 621.7 105.87 622.35L106.77 622.27C106.77 622.27 106.75 622.22 106.74 622.2C107.36 621.56 107.5 620.51 106.97 619.79C107.03 619.7 107.08 619.6 107.13 619.51L106.18 619.59C105.87 619.99 105.4 620.26 104.89 620.33ZM104.21 621.04C103.82 621.07 103.82 620.5 104.19 620.48C104.58 620.45 104.58 621.02 104.21 621.04Z" fill="white"/>
<path d="M102.41 622.23L99.9499 622.45L99.8999 620.9C100.02 620.87 101.65 620.8 101.69 620.68L102.46 619.92L101.7 619.99L101.4 620.28L99.8799 620.42V620.15L99.0699 620.22L99.1599 622.95L102.94 622.61C102.82 622.53 102.58 622.19 102.41 622.23Z" fill="white"/>
<path d="M105.9 622.41C106.41 622.99 106.11 623.95 105.42 624.26C105.26 623.5 103.74 623.3 104.34 624.26C104.65 624.47 104.85 624.82 104.84 625.19L105.64 625.12C105.64 625.12 105.64 625.04 105.64 624.99C106.68 624.58 107.29 623.28 106.77 622.28L105.87 622.36C105.87 622.36 105.89 622.4 105.9 622.42" fill="white"/>
<path d="M99.96 622.94L102.31 622.73L102.82 623.21L102.29 623.85C101.13 623.47 100.7 625.41 102.01 625.34C102.59 625.3 103 624.63 102.68 624.14C103.08 623.62 103.84 623.13 102.95 622.61L99.17 622.95L99.26 625.68L100.06 625.61L99.97 622.94H99.96ZM101.99 624.85C101.6 624.89 101.6 624.31 101.97 624.29C102.36 624.26 102.36 624.83 101.99 624.85Z" fill="white"/>
<path d="M104.54 625.98C104.14 626.48 103.49 626.51 102.91 626.37C101.73 627.81 99.9101 627.99 100.05 625.62L99.2501 625.69C98.7801 628.02 101.84 629.19 103.1 627.19C104.34 627.44 105.68 626.39 105.64 625.12L104.83 625.19C104.83 625.48 104.73 625.75 104.53 625.98" fill="white"/>
<path d="M93.59 613.7C92.76 613.87 92.02 614.56 91.85 615.39L92.69 615.31C93.02 614.27 94.7 614.07 95.14 615.09L95.98 615.02C95.79 614.33 95.19 613.83 94.49 613.69C95.49 612.4 97.57 613.28 97.27 614.9L98.07 614.83C98.45 612.19 94.64 611.39 93.59 613.7Z" fill="white"/>
<path d="M98.16 617.57L98.07 614.84L97.27 614.91L97.36 617.64L98.16 617.57Z" fill="white"/>
<path d="M91.66 617.95C91.13 617.14 91.91 616.03 92.86 616.39C93.8 616.5 93.39 615.39 92.62 615.57C92.63 615.49 92.66 615.4 92.69 615.32L91.85 615.4C91.83 615.51 91.8099 615.62 91.8099 615.73C90.9699 616.06 90.44 617.1 90.78 617.92C90.66 618.03 90.55 618.14 90.45 618.27L91.62 618.16C91.65 618.1 91.67 618.03 91.67 617.96" fill="white"/>
<path d="M95.59 617.75C96.1 617.89 96.82 617.6 96.77 616.98C96.69 615.76 94.7 616.36 95.23 617.42L94.86 617.86L95.55 617.8L95.59 617.75ZM95.95 616.78C96.34 616.74 96.34 617.32 95.97 617.34C95.58 617.38 95.58 616.8 95.95 616.78Z" fill="white"/>
<path d="M95.7 615.56C95.94 615.49 96.07 615.24 95.98 615.03L95.14 615.11C95.22 615.37 95.36 615.67 95.7 615.56Z" fill="white"/>
<path d="M95.99 617.82C96.1 617.81 96.2 617.78 96.29 617.73L95.7 617.78C95.79 617.81 95.88 617.82 95.99 617.81" fill="white"/>
<path d="M90.9999 620.77C90.2999 619.88 90.8299 618.77 91.6199 618.16L90.4499 618.26C89.8199 619.02 89.6799 620.18 90.1899 621.02L91.1399 620.93C91.0899 620.88 91.0399 620.82 90.9999 620.76" fill="white"/>
<path d="M93.9 618.87C93.06 616.58 91.02 620.34 93.51 619.57L94.87 620.6L95.63 620.53L93.85 619.18C93.89 619.08 93.91 618.98 93.91 618.87M93.1 619.22C92.71 619.26 92.71 618.68 93.08 618.66C93.47 618.62 93.47 619.2 93.1 619.22Z" fill="white"/>
<path d="M94.6 618.28C94.56 618.43 95.66 619.11 95.74 619.2C95.79 619.31 97.29 619.1 97.4 619.11L97.44 620.37L98.24 620.3L98.15 617.57L97.35 617.64L97.38 618.62L95.99 618.74L95.21 618.18L95.54 617.79L94.85 617.85C94.78 617.95 94.57 618.12 94.59 618.26" fill="white"/>
<path d="M91.6699 623.44C91.3499 622.94 90.6399 622.56 90.9699 621.82C91.4099 622.1 91.9599 622.24 92.5099 622.21C94.4999 623.7 94.2599 619.57 92.4699 621.45C91.9599 621.47 91.4799 621.28 91.1399 620.94L90.1899 621.03C90.2399 621.12 90.2999 621.2 90.3699 621.28C89.9099 622.04 90.0699 623.08 90.7699 623.64C90.7599 623.67 90.7499 623.69 90.7399 623.72L91.6399 623.64C91.6699 623.58 91.6799 623.52 91.6799 623.45M93.1799 621.47C93.5699 621.44 93.5699 622.01 93.1999 622.03C92.8099 622.06 92.8099 621.49 93.1799 621.47Z" fill="white"/>
<path d="M97.4501 620.37V620.64L95.9401 620.78L95.6201 620.54L94.8601 620.61C94.9801 620.67 95.7001 621.33 95.8501 621.27L97.4701 621.13L97.5201 622.68C97.0001 622.81 94.7301 622.64 94.5601 623.38L98.3401 623.04L98.2501 620.31L97.4501 620.38V620.37Z" fill="white"/>
<path d="M94.56 623.37C93.73 624.05 94.41 624.32 94.93 624.84C94.64 625.35 95.07 625.98 95.67 625.91C96.94 625.79 96.46 623.89 95.29 624.48L94.72 623.94L95.2 623.37L97.55 623.16L97.64 625.83L98.44 625.76L98.35 623.03L94.57 623.37H94.56ZM95.64 624.86C96.03 624.82 96.03 625.4 95.66 625.42C95.27 625.45 95.27 624.88 95.64 624.86Z" fill="white"/>
<path d="M92.84 626.16C92.84 625.82 93 625.48 93.28 625.24C93.81 624.15 92.28 624.7 92.21 625.44C91.43 625.22 91.17 624.26 91.64 623.62L90.74 623.7C90.3 624.73 90.95 625.97 92.05 626.19C92.05 626.23 92.05 626.28 92.05 626.32L92.86 626.25C92.86 626.25 92.86 626.19 92.86 626.15" fill="white"/>
<path d="M97.66 626.59C97.33 628.5 95.9 627.95 94.85 627.09C94.08 627.52 92.9201 627.26 92.8601 626.26L92.05 626.33C92.09 627.62 93.56 628.4 94.72 627.94C96.24 629.75 99.0501 627.9 98.4401 625.76L97.64 625.83L97.67 626.59H97.66Z" fill="white"/>
</g>
</g>
<defs>
<clipPath id="clip0_323_882">
<rect width="1000" height="900" fill="white"/>
</clipPath>
<clipPath id="clip1_323_882">
<rect width="613.394" height="338.218" fill="white" transform="translate(-4.26758 599.658) rotate(1.2047)"/>
</clipPath>
<clipPath id="clip2_323_882">
<rect width="1000" height="298" fill="white" transform="translate(40 698)"/>
</clipPath>
<clipPath id="clip3_323_882">
<rect width="577.23" height="374.77" fill="white" transform="translate(-336 625)"/>
</clipPath>
<clipPath id="clip4_323_882">
<rect width="122.87" height="273.14" fill="white" transform="translate(67 548)"/>
</clipPath>
<clipPath id="clip5_323_882">
<rect width="300" height="69.4969" fill="white" transform="translate(350 458)"/>
</clipPath>
</defs>
</svg>
