<svg width="960" height="202" viewBox="0 0 960 202" fill="none" xmlns="http://www.w3.org/2000/svg">
<g clip-path="url(#clip0_323_893)">
<path fill-rule="evenodd" clip-rule="evenodd" d="M298.002 117.95C308.688 105.145 310.048 96.1624 310.227 96.3224C315.861 109.797 324.993 117.91 334.617 126.222L329.058 124.742L339.549 134.015L331.434 130.034L338.832 137.856L332.435 135.275L354.734 162.215L350.041 160.814L353.598 165.005L350.041 163.605C350.041 163.605 365.689 178.27 364.269 177.29C362.849 176.309 352.103 170.427 352.103 170.427L375.896 201.168L371.622 199.627C373.789 201.678 385.416 211.791 384.998 213.312C383.668 212.661 378.706 210.061 374.805 208C377.226 212.021 378.631 214.372 378.631 214.372L357.887 214.162C352.029 213.832 333.213 212.431 327.698 213.312L292.293 214.672C285.059 215.993 282.115 217.793 279.873 210.841C279.873 210.841 271.16 213.442 267.244 215.352C263.314 217.263 268.022 209.45 268.022 209.45C268.022 209.45 263.314 211.521 259.697 214.122C256.08 216.723 261.804 209.07 261.804 209.07C254.272 207.82 238.131 221.134 251.881 207.03L241.942 212.241C241.942 212.241 250.7 201.088 249.863 201.198C249.026 201.298 260.698 190.564 262.163 188.823C263.628 187.083 255.707 191.484 255.154 191.965C258.86 187.893 274.866 169.007 277.826 164.915C277.826 164.915 275.987 165.656 274.164 166.556C272.326 167.456 278.005 160.334 278.827 158.433C279.664 156.533 273.656 161.484 271.16 163.125C268.664 164.755 272.326 161.484 279.828 153.632C287.331 145.779 296.029 132.815 296.029 132.815C296.029 132.815 293.1 133.855 291.635 135.055C290.17 136.256 294.729 128.343 295.386 126.232C296.044 124.122 289.692 129.704 288.063 131.144C286.434 132.585 291.859 125.302 298.002 117.96" fill="#009CA7"/>
<path fill-rule="evenodd" clip-rule="evenodd" d="M370.255 129.001C381.003 118.937 382.371 111.876 382.551 112.002C388.218 122.593 397.403 128.97 407.084 135.504L401.492 134.34L412.044 141.629L403.882 138.5L411.323 144.649L404.889 142.62L427.317 163.795L422.597 162.694L426.175 165.989L422.597 164.888C422.597 164.888 438.336 176.415 436.908 175.645C435.48 174.874 424.671 170.251 424.671 170.251L448.603 194.414L444.304 193.203C446.483 194.815 458.178 202.764 457.757 203.959C456.42 203.448 451.429 201.404 447.506 199.784C449.941 202.945 451.354 204.793 451.354 204.793L430.489 204.628C424.596 204.368 405.671 203.267 400.124 203.959L364.512 205.029C357.237 206.067 354.275 207.482 352.021 202.017C352.021 202.017 343.257 204.061 339.318 205.563C335.365 207.065 340.1 200.924 340.1 200.924C340.1 200.924 335.365 202.552 331.727 204.596C328.089 206.641 333.847 200.625 333.847 200.625C326.27 199.642 310.035 210.108 323.865 199.021L313.869 203.118C313.869 203.118 322.678 194.351 321.836 194.437C320.994 194.516 332.734 186.079 334.207 184.711C335.68 183.343 327.713 186.802 327.157 187.18C330.885 183.979 346.985 169.134 349.961 165.918C349.961 165.918 348.112 166.5 346.278 167.208C344.429 167.915 350.142 162.317 350.968 160.823C351.81 159.329 345.767 163.221 343.257 164.511C340.746 165.792 344.429 163.221 351.975 157.049C359.522 150.876 368.27 140.686 368.27 140.686C368.27 140.686 365.324 141.504 363.851 142.447C362.378 143.391 366.963 137.171 367.624 135.512C368.285 133.845 361.897 138.24 360.258 139.373C358.62 140.505 364.076 134.789 370.255 129.009" fill="#009CA7"/>
<path fill-rule="evenodd" clip-rule="evenodd" d="M321.57 206.199L298.659 212.751L312.977 191.894C312.977 191.894 309.704 193.375 308.269 194.465C306.834 195.556 312.155 189.524 312.977 188.143C313.799 186.763 307.447 191.904 307.447 191.904L323.513 161.654C323.513 161.654 319.089 165.605 317.953 166.396C316.803 167.186 325.65 155.482 326.308 154.692C326.965 153.902 324.843 155.562 323.528 156.352C322.213 157.143 326.801 150.901 326.801 150.901C309.509 170.057 340.386 122.871 339.191 122.801L333.691 126.442L341.148 113.978C341.148 113.978 339.445 115.119 338.398 115.809C337.352 116.499 343.51 109.547 343.898 108.846C344.287 108.146 340.625 110.807 338.787 112.138C336.949 113.468 353.06 92.0808 353.628 91.3506C353.702 91.3806 362.326 105.405 362.445 105.525L359.516 103.705L367.885 121.121L363.402 118.34C362.938 118.54 377.196 138.446 369.29 130.334C369.29 130.334 372.832 136.156 372.309 135.715C371.786 135.275 370.127 134.035 370.127 134.035C370.127 134.035 386.074 158.873 385.042 157.803C384.011 156.733 378.407 153.031 378.407 153.031L385.042 161.214L382.397 160.214C382.397 160.214 395.594 183.682 395.19 182.971C394.787 182.261 387.045 175.079 387.419 175.859C387.792 176.629 390.976 181.141 390.124 180.661C389.272 180.19 388.405 180.07 388.405 180.07C388.405 180.07 394.757 189.534 400.959 197.236C401.019 197.316 395.19 194.655 395.19 194.655C395.25 195.926 405.189 208.85 402.708 208.28C400.302 207.239 390.243 206.209 390.243 206.209C373.505 206.129 338.488 206.139 321.585 206.189L321.57 206.199Z" fill="#23353F"/>
<path fill-rule="evenodd" clip-rule="evenodd" d="M215.697 107.026C215.697 107.026 230.2 124.144 230.22 124.183L226.115 121.873L232.524 129.516L227.76 126.817L241.025 148.918L236.571 146.336L246.311 158.003L243.271 156.03L245.285 160.027L242.922 158.405L252.566 168.891L248.867 166.477C250.281 168.45 252.604 172.706 253.572 174.809L249.758 171.383L261.434 186.969L257.329 183.309L274.582 206.449L268.754 203.749L272.743 209.135L268.095 206.462L288.408 230.445L283.257 227.395L287.207 234.844L280.604 230.847L290.906 247.121H288.582C290.228 251.157 291.835 253.467 290.325 252.909L290.422 253C277.738 251.43 135.976 249.859 135.686 249.756L131.387 249.704L151.583 221.23L143.625 225.098L150.247 214.625L146.936 215.572L158.303 205.982L152.28 208.097L158.612 201.154L151.68 203.983L170.908 180.415L167.384 181.557L171.818 176.833L167.016 179.195L172.942 174.497H171.838L173.561 171.538L168.759 175.471L192.15 148.711L188.239 150.06L191.783 146.141L187.619 148.373L193.951 141.443L191.182 143.247L200.361 131.23L197.379 133.604L204.756 121.457L202.549 122.015C202.665 121.898 215.581 107.104 215.677 107" fill="#009CA7"/>
<path fill-rule="evenodd" clip-rule="evenodd" d="M233.961 213.652L211.05 220.204L225.368 199.347C225.368 199.347 222.095 200.827 220.66 201.918C219.225 203.008 224.546 196.976 225.368 195.596C226.19 194.215 219.838 199.357 219.838 199.357L235.904 169.107C235.904 169.107 231.48 173.058 230.344 173.848C229.194 174.639 238.041 162.935 238.699 162.144C239.356 161.354 237.234 163.015 235.919 163.805C234.604 164.595 239.192 158.353 239.192 158.353C221.9 177.51 252.777 130.324 251.581 130.254L246.082 133.895L253.539 121.431C253.539 121.431 251.836 122.571 250.789 123.261C249.743 123.952 255.901 116.999 256.289 116.299C256.678 115.599 253.016 118.26 251.178 119.59C249.34 120.921 265.451 99.5335 266.019 98.8032C266.093 98.8332 274.717 112.858 274.836 112.978L271.907 111.157L280.276 128.573L275.793 125.792C275.329 125.992 289.587 145.899 281.681 137.786C281.681 137.786 285.223 143.608 284.7 143.168C284.177 142.728 282.518 141.488 282.518 141.488C282.518 141.488 298.465 166.326 297.433 165.256C296.402 164.185 290.798 160.484 290.798 160.484L297.433 168.667L294.788 167.666C294.788 167.666 307.985 191.134 307.581 190.424C307.178 189.714 299.436 182.531 299.81 183.312C300.183 184.082 303.367 188.593 302.515 188.113C301.663 187.643 300.796 187.523 300.796 187.523C300.796 187.523 307.148 196.986 313.35 204.689C313.41 204.769 307.581 202.108 307.581 202.108C307.641 203.378 317.58 216.303 315.099 215.732C312.707 214.692 302.634 213.662 302.634 213.662C285.896 213.582 250.879 213.592 233.976 213.642L233.961 213.652Z" fill="#23353F"/>
<path fill-rule="evenodd" clip-rule="evenodd" d="M203.04 189.969L198.935 186.309L216.188 209.449L210.36 206.749L214.348 212.135L209.701 209.462L230.014 233.445L224.863 230.395L228.813 237.844L222.21 233.847L232.512 250.121H230.188C231.834 254.157 233.441 256.467 231.931 255.909L232.028 256C219.344 254.43 77.5819 252.859 77.2914 252.756L72.9927 252.704L93.1891 224.23L85.2112 228.098L91.8337 217.625L88.5224 218.572L99.889 208.981L93.8669 211.097L100.199 204.154L93.2666 206.983L112.495 183.415L108.971 184.557L113.405 179.833L108.603 182.195L114.528 177.497H113.424L115.148 174.538L110.326 178.471L133.718 151.711L129.806 153.06L133.35 149.141L129.186 151.373L135.518 144.443L132.749 146.247L141.928 134.23L138.946 136.604L146.323 124.457L144.116 125.015C144.232 124.898 157.148 110.104 157.245 110" fill="#23353F"/>
<path fill-rule="evenodd" clip-rule="evenodd" d="M156.971 110C156.971 110 170.996 126.13 171.015 126.169L166.899 123.857L173.326 131.506L168.549 128.805L181.85 150.922L177.384 148.338L187.15 160.013L184.102 158.039L186.121 162.039L183.752 160.416L193.422 170.909L189.713 168.493C191.131 170.468 193.461 174.727 194.451 176.831L190.626 173.403L202.334 189" fill="#23353F"/>
<path fill-rule="evenodd" clip-rule="evenodd" d="M60.6854 70.026C60.6854 70.026 75.1888 87.1436 75.2082 87.1826L71.1031 84.8725L77.5125 92.5164L72.749 89.8171L86.0132 111.918L81.5595 109.336L91.2995 121.003L88.2594 119.03L90.2733 123.027L87.9302 121.405L97.5928 131.891L93.8943 129.477C95.3078 131.45 97.6315 135.706 98.5997 137.809L94.785 134.383L106.461 149.969L102.356 146.309L119.609 169.449L113.781 166.749L117.77 172.135L113.123 169.462L133.435 193.445L128.284 190.395L132.235 197.844L125.632 193.847L135.933 210.121H133.609C135.255 214.157 136.863 216.467 135.352 215.909L135.449 216C122.766 214.43 -18.9967 212.859 -19.2872 212.756L-23.5859 212.704L-3.38949 184.23L-11.3674 188.098L-4.74495 177.625L-8.05616 178.572L3.31039 168.981L-2.71175 171.097L3.62021 164.154L-3.31203 166.983L15.9162 143.415L12.392 144.557L16.8263 139.833L12.0241 142.195L17.9494 137.497H16.8457L18.5691 134.538L13.7475 138.471L37.139 111.711L33.2275 113.06L36.771 109.141L32.6078 111.373L38.9204 104.443L36.1514 106.247L45.3299 94.2295L42.3478 96.6045L49.7254 84.4572L47.518 85.0153C47.6341 84.8985 60.5498 70.1038 60.6466 70" fill="#23353F"/>
<path fill-rule="evenodd" clip-rule="evenodd" d="M91.5328 123.181C100.968 111.825 102.15 103.858 102.325 104.002C107.284 115.945 115.344 123.142 123.831 130.509L118.929 129.192L128.17 137.419L121.021 133.886L127.55 140.822L121.912 138.528L141.578 162.414L137.432 161.175L140.57 164.891L137.432 163.652C137.432 163.652 151.226 176.652 149.986 175.791C148.727 174.918 139.253 169.702 139.253 169.702L160.236 196.952L156.477 195.596C158.473 197.461 168.528 206.327 168.276 207.735C167.094 207.161 162.716 204.854 159.286 203.028C161.418 206.601 162.658 208.674 162.658 208.674L144.348 208.478C139.175 208.192 122.591 206.94 117.727 207.722L86.4954 208.922C80.2567 210.121 77.3699 211.595 75.5486 205.532C75.5486 205.532 67.8762 207.839 64.4081 209.534C60.9401 211.229 65.1056 204.306 65.1056 204.306C65.1056 204.306 60.9594 206.144 57.7626 208.452C54.5658 210.747 59.6226 203.967 59.6226 203.967C53.6745 202.676 38.5816 214.645 50.8652 202.155L42.1078 206.77C42.1078 206.77 49.8383 196.887 49.1021 196.979C48.3658 197.07 58.6538 187.552 59.9519 186C61.2307 184.462 54.2558 188.36 53.7714 188.79C57.0457 185.166 71.1506 168.438 73.7661 164.813C73.7661 164.813 72.158 165.465 70.5306 166.26C68.9225 167.055 73.9211 160.745 74.638 159.063C75.3743 157.368 70.0849 161.762 67.8762 163.222C65.6675 164.669 68.9031 161.775 75.5293 154.812C82.1554 147.85 89.8084 136.35 89.8084 136.35C89.8084 136.35 87.2316 137.276 85.9335 138.332C84.6354 139.401 88.6653 132.386 89.2272 130.509C89.8084 128.631 84.1898 133.586 82.756 134.864C81.3223 136.141 86.1079 129.687 91.5134 123.168" fill="#38689B"/>
<path fill-rule="evenodd" clip-rule="evenodd" d="M-5.55976 156.673L-27.7573 163L-13.8887 142.882C-13.8887 142.882 -17.0653 144.303 -18.4405 145.362C-19.8352 146.407 -14.6635 140.597 -13.8887 139.254C-13.0945 137.924 -19.2347 142.882 -19.2347 142.882L-3.6809 113.7C-3.6809 113.7 -7.96159 117.509 -9.06565 118.271C-10.1697 119.033 -1.60836 107.747 -0.96916 106.986C-0.329962 106.224 -2.40251 107.825 -3.66154 108.587C-4.92056 109.349 -0.484919 103.319 -0.484919 103.319C-17.3752 121.848 12.7639 76.241 11.5049 76.2152L6.17823 79.7274L13.4031 67.7059C13.4031 67.7059 11.7567 68.8034 10.7301 69.4749C9.72287 70.1463 15.6693 63.4319 16.0567 62.7604C16.4441 62.089 12.8801 64.6456 11.1175 65.9369C9.39358 67.3831 25.0636 46 25.5672 46L34.0317 59.5581L31.2038 57.802L39.3002 74.6011L34.9615 71.9153C34.516 72.109 48.3265 91.3099 40.6755 83.4849C40.6755 83.4849 44.1039 89.1019 43.6003 88.6757C43.0967 88.2496 41.489 87.0617 41.489 87.0617C41.489 87.0617 56.946 111.014 55.9387 109.994C54.9315 108.961 49.508 105.397 49.508 105.397L55.9387 113.287L53.3626 112.331C53.3626 112.331 66.1465 134.967 65.7591 134.283C65.3717 133.598 57.8757 126.677 58.2244 127.413C58.573 128.162 61.6721 132.501 60.8393 132.049C60.0064 131.597 59.1735 131.481 59.1735 131.481C59.1735 131.481 65.333 140.61 71.3376 148.047C71.3957 148.125 65.7591 145.555 65.7591 145.555C65.9141 147.027 75.289 158.829 73.0421 158.7C63.706 155.524 41.1985 156.983 31.6105 156.634L-5.54039 156.686L-5.55976 156.673Z" fill="#38689B"/>
<path fill-rule="evenodd" clip-rule="evenodd" d="M260.833 219.914L237.533 225.626L252.09 207.46C252.09 207.46 248.757 208.75 247.307 209.69C245.858 210.641 251.268 205.389 252.09 204.178C252.927 202.968 246.471 207.45 246.471 207.45L262.806 181.111C262.806 181.111 258.307 184.552 257.141 185.242C255.976 185.932 264.973 175.739 265.63 175.049C266.303 174.358 264.136 175.809 262.806 176.499C261.476 177.189 266.138 171.748 266.138 171.748C248.234 188.883 280.008 147.299 278.737 147.279L273.148 150.45L280.74 139.597C280.74 139.597 279.006 140.587 277.945 141.197C276.884 141.807 283.146 135.745 283.535 135.135C283.938 134.525 280.202 136.846 278.334 137.996C276.466 139.157 292.846 120.53 293.414 119.89C293.488 119.92 302.261 132.134 302.366 132.234L299.392 130.644L307.895 145.809L303.337 143.388C302.919 143.638 317.401 160.944 309.33 153.832C309.33 153.832 312.932 158.903 312.394 158.523C311.856 158.143 310.167 157.063 310.167 157.063C310.167 157.063 326.383 178.69 325.337 177.76C324.29 176.829 318.596 173.608 318.596 173.608L325.337 180.731L322.646 179.86C322.646 179.86 336.067 200.297 335.664 199.677C335.245 199.057 327.384 192.805 327.758 193.475C328.131 194.145 331.374 198.076 330.508 197.656C329.626 197.246 328.759 197.136 328.759 197.136C328.759 197.136 335.215 205.379 341.522 212.081C341.582 212.151 335.664 209.83 335.664 209.83C335.723 210.911 345.871 222.294 343.301 221.694C340.865 220.784 330.627 219.894 330.627 219.894C313.605 219.824 277.99 219.834 260.818 219.884L260.833 219.914Z" fill="#38689B"/>
<path fill-rule="evenodd" clip-rule="evenodd" d="M191.068 254.439C221.518 237.477 331.151 122.652 356.743 122.104C382.32 121.55 403.038 137.222 417.643 130.976C448.646 113.913 487.393 82.6386 519.173 66.7866C530.818 60.463 554.392 72.3598 571.134 80.1529C571.134 80.1529 633.5 91.1977 670.228 75.9085C706.957 60.6193 925.766 110.09 933.3 117.5C942.628 126.669 1036.61 157 1052.13 184.184C1050.91 191.828 773.343 276.341 727.063 266.148C680.767 255.956 160.603 271.401 191.068 254.447" fill="#009CA7"/>
<path fill-rule="evenodd" clip-rule="evenodd" d="M528.676 65L521.194 65.8062C519.953 66.6878 516.327 68.9851 516.163 70.0695C513.248 88.6225 505.68 120.88 496.34 139.487C495.443 141.274 496.205 143.17 498.387 144.621L509.686 152.127C512.749 154.163 512.914 157.003 510.104 159.133L469.378 189.904C469.08 190.13 468.811 190.372 468.571 190.621C462.608 196.855 478.615 202.394 487.283 197.089L555.732 155.232C558.736 153.391 559.289 150.777 557.137 148.639L544.254 135.899C541.967 133.628 542.73 130.851 546.167 129.017L566.642 118.079C569.84 116.37 570.752 113.811 568.944 111.619L561.307 102.358C560.126 100.938 560.051 99.331 561.142 97.8877C569.153 87.4331 564.544 100.369 569.864 80.2087L546.167 68.8098L528.676 65Z" fill="#23353F"/>
<path fill-rule="evenodd" clip-rule="evenodd" d="M687.174 71.2396L672.054 75.1393C670.814 76.0209 663.876 78.3444 663.712 79.4289C660.798 97.9818 655.701 124.976 646.36 143.583C645.463 145.37 646.225 147.266 648.407 148.717L659.706 156.223C662.77 158.259 662.934 161.099 660.124 163.229L619.399 194C619.1 194.226 618.831 194.468 618.592 194.717C612.628 200.951 628.635 206.49 637.303 201.185L705.752 159.328C708.756 157.486 709.309 154.873 707.157 152.735L694.274 139.995C691.988 137.724 692.75 134.947 696.187 133.113L716.662 122.175C719.86 120.466 720.772 117.907 718.964 115.715L711.327 106.454C710.146 105.034 710.071 103.427 711.162 101.984C719.173 91.5291 715.222 90.0622 720.542 69.9021C720.542 69.9021 701.224 66.3088 694.274 71.2396H687.174Z" fill="#23353F"/>
<path fill-rule="evenodd" clip-rule="evenodd" d="M939.199 93.6014L924.08 97.5011C922.839 98.3827 915.747 107 894.684 105.5C891.77 124.053 907.726 147.338 898.385 165.945C897.489 167.732 898.251 169.628 900.433 171.079L911.732 178.584C914.795 180.621 914.96 183.461 912.15 185.591L871.424 216.361C871.125 216.588 870.856 216.829 870.617 217.079C864.654 223.313 880.66 228.852 889.329 223.547L957.778 181.69C960.782 179.848 961.335 177.235 959.183 175.097L946.3 162.356C944.013 160.086 944.775 157.309 948.213 155.475L968.688 144.537C971.886 142.828 972.798 140.269 970.989 138.077L963.352 128.816C962.172 127.396 962.097 125.789 963.188 124.345C971.199 113.891 967.247 112.424 972.568 92.2639C972.568 92.2639 953.249 88.6706 946.3 93.6014H939.199Z" fill="#23353F"/>
<path fill-rule="evenodd" clip-rule="evenodd" d="M368.872 119.413L361.922 120.724L350.116 126.973L363.282 151.651L334.946 177.888L301.917 195.006L300.318 203.588L271.803 236.863C282.817 226.861 310.018 202.847 325.471 194.936L378.751 176.305L394.458 165.031L400.481 158.212C405.084 155.817 431.851 142.702 434.945 140.088L393.666 129.61L381.291 122.261L368.857 119.413H368.872Z" fill="#23353F"/>
<path fill-rule="evenodd" clip-rule="evenodd" d="M400.974 127.051C405.189 125.397 481.589 84.6789 488.195 80.8247C494.8 76.9706 521.376 65.7798 521.376 65.7798C517.984 70.2503 465.627 127.231 465.627 127.231L478.689 132.091C467.854 136.078 412.796 186.533 406.713 191.55L355.077 218.848L348.038 240.343L292.98 247.934C299.586 240.546 374.626 193.594 386.447 185.745L380.559 174.487L395.146 155.2L433.674 140.829L403.545 132.06C403.545 132.06 396.76 128.697 400.974 127.051Z" fill="#38689B"/>
<path fill-rule="evenodd" clip-rule="evenodd" d="M570.139 79.998L596.455 83.3286L623.045 84.1085L621.76 105.815L619.742 123.977L584.277 165.211L610.372 188.967L510.642 247.942L461.114 238.588L548.797 188.273L490.212 203.643L549.47 150.247L528.367 125.382L554.148 112.797L548.125 94.2834L570.139 79.998Z" fill="#38689B"/>
<path fill-rule="evenodd" clip-rule="evenodd" d="M822.467 90.5L855.501 93.3305L883.149 103L880.807 115.817L878.789 133.979L843.324 175.213L869.418 198.969L769.689 257.944L720.16 248.59L807.844 198.275L749.259 213.645L808.517 160.248L787.414 135.384L813.194 122.799L807.172 104.285L822.467 90.5Z" fill="#38689B"/>
<path fill-rule="evenodd" clip-rule="evenodd" d="M719.499 69.6797L751.303 73.5793L767.803 80.5L763.53 93.7682L761.528 111.939L726.048 153.172L752.157 176.929L652.427 235.904L602.899 226.549L690.583 176.227L631.997 191.604L691.24 138.208L670.152 113.335L695.933 100.759L689.91 82.237L719.499 69.6797Z" fill="#38689B"/>
<path fill-rule="evenodd" clip-rule="evenodd" d="M971.525 92.0415L1003.33 95.9412L1012.21 97.9593L1015.56 116.13L1013.55 134.301L978.073 175.534L1004.18 199.291L904.453 258.265L854.925 248.911L942.608 198.588L884.023 213.966L943.266 160.57L922.178 135.697L947.959 123.121L941.936 104.599L971.525 92.0415Z" fill="#38689B"/>
</g>
<defs>
<clipPath id="clip0_323_893">
<rect width="1000" height="298" fill="white"/>
</clipPath>
</defs>
</svg>
