<svg width="578" height="452" viewBox="0 0 578 452" fill="none" xmlns="http://www.w3.org/2000/svg">
<g clip-path="url(#clip0_323_2186)">
<path fill-rule="evenodd" clip-rule="evenodd" d="M263.38 235.15C328.83 243.38 516.9 265.79 577.02 286.63L577.23 336.42L566.86 409.46L530.81 451.77L279.22 428.91L263.38 235.15Z" fill="#38689B"/>
<path d="M505.82 292.22L482.42 331.86C472.63 336.22 451.55 346.25 442.63 351.84L427.14 374.21H571.87L577.23 336.42L577.02 286.63L505.82 292.21V292.22Z" fill="#23353F"/>
<path d="M280.53 343.22L317.33 374.21H467.19L482.51 363.98L505.82 292.22L462.86 274.67L402.45 269.82L370.33 267.5L276.71 239.27L280.53 343.22Z" fill="#009CA7"/>
<path fill-rule="evenodd" clip-rule="evenodd" d="M361.88 327.35C363.28 323.43 402.46 269.82 402.46 269.82C402.46 269.82 304.57 226.8 300.72 226.45C296.87 226.1 252.02 230.3 248.17 230.65C244.32 231 269.77 313.13 269.77 313.13C269.77 313.13 360.49 331.26 361.89 327.34" fill="#38689B"/>
<path fill-rule="evenodd" clip-rule="evenodd" d="M380.18 395.75C370.86 374.96 292 230.66 281.5 229C255.35 228.14 160 210 119.5 203.5L70.5 188C70.5 188 50.4299 187.66 17.9999 200L0 214.5V388.26C0 388.26 389.5 416.53 380.18 395.74" fill="#38689B"/>
<path fill-rule="evenodd" clip-rule="evenodd" d="M198 216.5L154 209.5L64.9998 227.5L41.9998 264C23.7998 324.02 -3.00015 387 -3.00015 387L125.28 401.75L180.03 304.65L191 274.5L233 248L273.5 227.5" fill="#588BB5"/>
<path fill-rule="evenodd" clip-rule="evenodd" d="M420.64 435.39C409.17 412.25 339.21 245.84 302 227.5C283.79 269.75 253.5 247.5 241.45 278.8C234.84 292.24 263.31 329.18 269.47 342.85C273.27 349.29 246.28 391.59 243.06 395.61C239.84 399.64 249.51 413.18 249.51 413.18L420.64 435.38V435.39Z" fill="#009CA7"/>
</g>
<g clip-path="url(#clip1_323_2186)">
<path fill-rule="evenodd" clip-rule="evenodd" d="M492.29 247.1C492.46 248.53 492.77 263.07 492.77 263.07C492.77 263.07 499.76 263.04 501.03 266.93C501.97 269.8 502.32 272.42 501.01 272.9C499.69 273.37 478.85 271.7 478.85 271.7L476.54 245.95C476.54 245.95 492.12 245.67 492.29 247.11" fill="#583860"/>
<path fill-rule="evenodd" clip-rule="evenodd" d="M430.46 242L427.64 256.74C430.44 258.1 436.52 261.31 434.65 266.48C434.35 267.73 419.33 265.6 413.77 264.78L418.23 240.22L430.46 242Z" fill="#583860"/>
<path fill-rule="evenodd" clip-rule="evenodd" d="M524.3 91.8701L524.22 272.75C523.84 272.88 520.95 273.93 521.32 271.98L522.03 91.9801L524.29 91.8701H524.3Z" fill="#23353F"/>
<path fill-rule="evenodd" clip-rule="evenodd" d="M524.85 90.8899H521.24V107.87C521.22 108.87 522.15 109.68 523.14 109.58C524.06 109.6 524.87 108.79 524.85 107.87V90.8899Z" fill="#23353F"/>
<path fill-rule="evenodd" clip-rule="evenodd" d="M464.02 159.58C464.08 156.95 471.91 190.61 475.35 198.32C472.33 217.68 472.15 251.91 478.28 251.17C486.3 250.2 494.6 252.99 494.98 251.22C496.18 245.72 494.94 208.42 491.66 196.78C492 168.25 492.45 144.45 489.96 128.47C489.96 128.47 453.35 124.89 450.22 125.04C447.1 125.19 439.66 132.69 439.66 132.69L431.3 190.06C420 215.36 412.83 240.36 416.98 241.64C416.98 241.64 428.63 245.17 431.32 244.76C438.24 235.06 456.84 179.48 464 159.59" fill="#23353F"/>
<path fill-rule="evenodd" clip-rule="evenodd" d="M423 250C431.851 235.845 457.307 171.312 463.157 156L465 161.333C440.622 230.502 431.559 245.206 431.559 245.206C431.559 245.206 427.731 245.294 426.176 244.226" fill="#AB7AB4"/>
<path d="M490.26 216.54C492.33 232.63 491 245.5 489.5 251.5C490.833 251.834 493.8 252.3 495 251.5C495.527 247.546 496 215.5 491.5 196.5C493 173 491.06 135.5 491.06 135.5V134.45L483.29 134.45C483.29 134.45 488.77 167.62 486.94 178.93C485.11 190.24 488.19 200.45 490.26 216.54Z" fill="#AB7AB4"/>
<path fill-rule="evenodd" clip-rule="evenodd" d="M515.82 94.5099C517.14 91.5399 515.64 86.3399 519.8 88.1199C520.76 88.2099 521.77 85.2299 523.62 86.7799C525.47 88.3299 526.75 93.9199 525.13 95.4899C523.5 97.0699 520.81 97.6699 520.81 97.6699C520.81 97.6699 514.76 96.5299 515.82 94.4999" fill="#D4843B"/>
<path fill-rule="evenodd" clip-rule="evenodd" d="M475.75 37.6801C483.23 -4.6399 447.04 -0.119904 451.48 26.1801C452.78 32.1901 456.39 39.6801 456.39 39.6801L456.95 47.1101L473.2 47.7101L472.17 40.2101C472.17 40.2101 475.22 39.1001 475.76 37.6901" fill="#D4843B"/>
<path fill-rule="evenodd" clip-rule="evenodd" d="M474.59 19.38C476.8 22.61 479.62 25.07 475.87 26.67C475.87 26.67 473.38 17.12 474.59 19.38Z" fill="#D4843B"/>
<path fill-rule="evenodd" clip-rule="evenodd" d="M489.2 50.8301C471.06 42.4101 452.87 44.3401 437.1 53.8401C435.58 55.3601 429.75 103.18 429.91 121.61C430.07 140.04 441.43 133.58 444.86 133.73C464.99 134.58 480.69 136.09 490.34 134.86C494.59 138.37 495.08 53.7101 489.21 50.8401" fill="#588BB5"/>
<path fill-rule="evenodd" clip-rule="evenodd" d="M430.43 105.96C430.55 111.34 429.09 129.78 433.38 132.88C437.67 135.99 436.75 134.56 438.36 134.69C439.97 134.82 444.94 133.56 445.83 133.82C446.72 134.08 468.24 135.43 471.46 134.9C485.2 123.08 481.97 84.6401 480.3 65.5301C479.74 59.1901 477.01 50.5401 475.58 49.5701C473.65 48.2601 469.7 54.5401 466.37 53.9901C422.28 54.1301 428.45 74.7701 430.44 105.95" fill="#23353F"/>
<path fill-rule="evenodd" clip-rule="evenodd" d="M487.31 84.98L473.49 110.17L474.29 115.13L488.12 89.04L487.31 84.98Z" fill="#23353F"/>
<path fill-rule="evenodd" clip-rule="evenodd" d="M481.26 48.0099C476.65 48.5599 473.17 49.9699 470.93 54.7299L466.14 49.4599L469.81 45.3299C472.63 42.5099 482.14 45.8499 481.26 48.0099Z" fill="#23353F"/>
<path fill-rule="evenodd" clip-rule="evenodd" d="M472.34 15.26C479.38 14.66 482.42 3.18003 475.71 0.0300325C474.29 -0.259968 474.1 1.52003 473.21 2.00003C471.37 0.730032 469.27 1.02003 467.34 1.93003C463.43 0.430032 459.01 2.04003 456.92 5.74003C456.54 7.01003 456.31 8.74003 454.55 8.09003C444.87 9.31003 446.97 22.26 452 27.6C452.76 30.2 452.56 33.44 454.85 35.38C459.66 38.06 466.6 33.79 468.69 29.17C469.23 26.41 469.95 23.44 469.47 20.63C468.7 18.25 470.36 16.64 472.34 15.26Z" fill="#422B26"/>
<path fill-rule="evenodd" clip-rule="evenodd" d="M469.2 33.94C469.2 33.94 480.12 80.58 473.97 126.93C472.72 136.32 421.83 134.22 420.53 129.06C413.35 100.45 411.88 43.44 419.96 36.08C429.41 27.47 471.05 27.42 469.2 33.94Z" fill="#38689B"/>
<path fill-rule="evenodd" clip-rule="evenodd" d="M463.84 32.1301C461.41 32.8201 455.24 40.4601 454.38 46.7001C453.52 52.9401 471.66 137.54 447.69 133.5C443.54 132.8 476.11 137.3 478.4 131.99C480.7 126.69 475.5 66.2901 474.6 52.7301C472.63 35.8501 472.12 30.7901 463.84 32.1301Z" fill="#588BB5"/>
<path fill-rule="evenodd" clip-rule="evenodd" d="M468.64 22.57C471.25 22.35 471.61 29.74 468.98 29.77C466.37 29.99 466.01 22.6 468.64 22.57Z" fill="#D4843B"/>
<path fill-rule="evenodd" clip-rule="evenodd" d="M471.16 43.7901C471.16 43.7901 469.39 41.5901 464.7 42.3401C455.74 43.7701 457.07 57.4001 455.41 57.8401C450.63 59.0901 415.35 62.8401 414.4 59.0801C411.66 46.2101 411.67 33.5601 426.54 31.7801C437.33 29.0701 462.02 27.2001 467.48 29.7001C472.94 32.2001 471.16 43.8001 471.16 43.8001" fill="#23353F"/>
<mask id="mask0_323_2186" style="mask-type:luminance" maskUnits="userSpaceOnUse" x="412" y="28" width="60" height="33">
<path d="M426.54 31.7799C411.67 33.5599 411.65 46.2099 414.4 59.0799C415.35 62.8499 450.63 59.0999 455.41 57.8399C457.07 57.3999 455.75 43.7799 464.7 42.3399C469.4 41.5899 471.16 43.7899 471.16 43.7899C471.16 43.7899 472.94 32.1899 467.48 29.6899C456.91 26.7799 436.06 29.6999 426.54 31.7699" fill="white"/>
</mask>
<g mask="url(#mask0_323_2186)">
<path d="M426.7 55.8698C422.97 55.8698 419.22 55.5998 415.53 54.9498C415.51 54.9498 415.49 54.9298 415.49 54.8998C415.2 52.5598 414.67 46.4998 416.16 40.7598C417.65 35.0098 420.64 31.4798 425.05 30.2598C425.08 30.2598 425.11 30.2598 425.12 30.2998C425.12 30.3298 425.12 30.3598 425.08 30.3698C420.71 31.5798 417.74 35.0898 416.26 40.7898C414.78 46.4798 415.29 52.4898 415.59 54.8498C427.66 56.9698 440.3 55.0298 451.08 52.8398C450.42 49.4598 450.64 45.6098 451.72 41.9898C452.84 38.1998 454.78 34.9398 457.3 32.5598C460.05 29.9798 464.77 27.2898 471.66 29.1198C471.69 29.1198 471.7 29.1598 471.7 29.1798C471.7 29.2098 471.66 29.2198 471.64 29.2198C464.79 27.4098 460.11 30.0798 457.38 32.6398C454.86 34.9998 452.94 38.2498 451.82 42.0198C450.75 45.6398 450.52 49.4998 451.2 52.8698C451.2 52.8998 451.19 52.9298 451.16 52.9298C443.64 54.4498 435.22 55.8598 426.72 55.8598L426.7 55.8698Z" fill="#BCBFCC"/>
</g>
<path fill-rule="evenodd" clip-rule="evenodd" d="M492.09 111.78C487.45 110.29 475.81 59.11 475.86 54.7C476.45 50.64 476.45 48.25 481.62 48.2C493.49 45.19 499.68 78.42 503.93 89.56C509.16 90.11 514.18 91 514.18 91C515.25 89.12 524.76 94 521.57 99.42C518.8 102.61 497.92 115.3 492.09 111.79" fill="#588BB5"/>
<mask id="mask1_323_2186" style="mask-type:luminance" maskUnits="userSpaceOnUse" x="475" y="47" width="48" height="66">
<path d="M481.62 48.2C476.45 48.25 476.45 50.64 475.86 54.7C475.28 58.75 488.14 108.66 490.92 111.19C493.25 112.75 495.25 113.22 498.88 111.8C504.37 109.75 519.61 102.72 521.56 99.41C524.75 93.99 515.24 89.11 514.17 90.99C514.17 90.99 509.16 90.11 503.92 89.55C499.69 78.44 493.47 45.17 481.61 48.19" fill="white"/>
</mask>
<g mask="url(#mask1_323_2186)">
<path fill-rule="evenodd" clip-rule="evenodd" d="M476.37 51.5701C476.37 51.5701 489.45 102.56 494.08 105.59C498.71 108.62 523.67 96.7401 523.67 96.7401C523.67 96.7401 520.12 106.66 514.1 110.2C508.08 113.74 490.03 121.1 486.58 113.84C483.14 106.58 470.01 52.4001 473.19 47.7001C476.37 43.0001 476.36 51.5601 476.36 51.5601" fill="#4577A8"/>
</g>
<path fill-rule="evenodd" clip-rule="evenodd" d="M431.53 88.3699C431.09 86.6299 413.7 89.0099 413.97 90.0499L416.1 111.02C420.75 112.61 425.82 111.87 431.83 110.35C431.83 110.35 431.68 88.9699 431.53 88.3699Z" fill="#009CA7"/>
<mask id="mask2_323_2186" style="mask-type:luminance" maskUnits="userSpaceOnUse" x="413" y="87" width="19" height="25">
<path d="M413.97 90.0399L416.1 111.01C420.75 112.6 425.82 111.86 431.83 110.35C431.83 110.35 431.68 88.9699 431.53 88.3699C428.03 86.4399 413.58 89.4199 413.97 90.0399Z" fill="white"/>
</mask>
<g mask="url(#mask2_323_2186)">
<path fill-rule="evenodd" clip-rule="evenodd" d="M432.32 87.53C430.39 87.71 427.44 88.81 427.25 90.97C427.09 93.44 430.61 110.29 426.33 113.02C427.39 113.39 431.83 114.17 432.96 110.61C434.1 107.06 434.25 87.35 432.32 87.53Z" fill="#009CA7"/>
</g>
<path fill-rule="evenodd" clip-rule="evenodd" d="M460.86 66.49C461.13 64.71 478.67 65.42 478.5 66.48L478.39 87.56C473.91 89.59 468.8 89.34 462.67 88.4C462.67 88.4 460.77 67.11 460.86 66.49Z" fill="#4577A8"/>
<path fill-rule="evenodd" clip-rule="evenodd" d="M460.86 66.49C461.13 64.71 478.67 65.42 478.5 66.48L478.39 87.56C473.91 89.59 468.8 89.34 462.67 88.4C462.67 88.4 460.77 67.11 460.86 66.49Z" fill="#009CA7"/>
<mask id="mask3_323_2186" style="mask-type:luminance" maskUnits="userSpaceOnUse" x="460" y="65" width="19" height="25">
<path d="M460.85 66.4899C460.76 67.1099 462.66 88.3999 462.66 88.3999C468.79 89.3299 473.9 89.5899 478.38 87.5599L478.49 66.4799C478.93 65.5299 461.54 64.5999 460.85 66.4899Z" fill="white"/>
</mask>
<g mask="url(#mask3_323_2186)">
<path fill-rule="evenodd" clip-rule="evenodd" d="M459.99 65.73C461.93 65.73 464.97 66.53 465.37 68.67C465.77 71.11 463.87 88.23 468.39 90.53C467.37 91 463.03 92.2 461.56 88.77C460.09 85.34 458.05 65.74 459.99 65.73Z" fill="#009CA7"/>
</g>
<path fill-rule="evenodd" clip-rule="evenodd" d="M455.78 87.0401C455.34 85.3001 437.95 87.6801 438.22 88.7201L440.35 109.69C445 111.28 450.07 110.54 456.08 109.02C456.08 109.02 455.93 87.6401 455.78 87.0401Z" fill="#009CA7"/>
<mask id="mask4_323_2186" style="mask-type:luminance" maskUnits="userSpaceOnUse" x="438" y="86" width="19" height="25">
<path d="M438.22 88.72L440.35 109.69C445 111.28 450.07 110.54 456.08 109.02C456.08 109.02 455.93 87.64 455.78 87.04C452.27 85.12 437.83 88.09 438.22 88.72Z" fill="white"/>
</mask>
<g mask="url(#mask4_323_2186)">
<path fill-rule="evenodd" clip-rule="evenodd" d="M456.57 86.2C454.64 86.38 451.69 87.48 451.5 89.64C451.33 92.11 454.86 108.96 450.58 111.69C451.64 112.06 456.08 112.84 457.21 109.28C458.35 105.73 458.5 86.02 456.57 86.2Z" fill="#009CA7"/>
</g>
<path fill-rule="evenodd" clip-rule="evenodd" d="M431.63 90.3201C426.02 88.9401 426.34 94.4901 426.31 94.6501C426.12 95.8501 414.27 98.0901 413.63 95.4801C413.01 92.9301 413.45 90.0201 413.81 89.0501C414.4 86.7201 434.73 83.2901 431.62 90.3101" fill="#23353F"/>
<path fill-rule="evenodd" clip-rule="evenodd" d="M460.94 68.4501C466.39 66.5401 466.61 72.0901 466.65 72.2501C466.95 73.4301 478.96 74.5201 479.35 71.8601C479.73 69.2601 479.01 66.4101 478.55 65.4801C477.74 63.2201 457.17 61.7501 460.94 68.4401" fill="#23353F"/>
<path fill-rule="evenodd" clip-rule="evenodd" d="M455.88 89C450.27 87.62 450.59 93.17 450.56 93.33C450.37 94.53 438.52 96.77 437.88 94.16C437.26 91.61 437.7 88.7 438.06 87.73C438.65 85.4 458.98 81.97 455.87 88.99" fill="#23353F"/>
<path fill-rule="evenodd" clip-rule="evenodd" d="M449.66 57.1701C449.42 58.4901 450.39 80.1601 450.39 80.1601L447.46 80.3001L447.17 57.0601C447.17 57.0601 449.9 55.8501 449.66 57.1601" fill="#009CA7"/>
<path fill-rule="evenodd" clip-rule="evenodd" d="M421.42 58.5C421.18 59.76 422.2 81.52 422.2 81.52C421.04 81.13 420.08 81.23 419.24 81.66L418.46 58.15C418.46 58.15 421.66 57.24 421.42 58.5Z" fill="#009CA7"/>
<path fill-rule="evenodd" clip-rule="evenodd" d="M408.76 114.32L468.1 111.46L468.91 128.42L409.57 131.27C401.4 132.21 400.53 114.15 408.76 114.31" fill="#23353F"/>
<path fill-rule="evenodd" clip-rule="evenodd" d="M468.26 111.46C476.12 110.9 476.95 128.23 469.07 128.42C461.21 128.98 460.38 111.65 468.26 111.46Z" fill="#23353F"/>
<mask id="mask5_323_2186" style="mask-type:luminance" maskUnits="userSpaceOnUse" x="462" y="111" width="13" height="18">
<path d="M468.26 111.46C460.38 111.65 461.22 128.99 469.07 128.42C476.93 128.22 476.15 110.92 468.26 111.46Z" fill="white"/>
</mask>
<g mask="url(#mask5_323_2186)">
<path fill-rule="evenodd" clip-rule="evenodd" d="M466.59 128.34C473.48 127.89 475.92 115.84 469.3 113.54C466.14 113.57 464.06 115.68 464.19 120.3C464.59 127.92 472.27 127.51 471.78 119.09C470.42 111.6 463.49 118.46 467.1 122.9C469.01 125.09 470.86 121.71 469.57 120.18C469.68 121.64 469.63 124.6 467.33 122.7C464.06 118.75 470.19 112.17 471.47 119.12C471.3 122.83 470.64 126.13 467.29 125.35C462.43 123.05 464.29 113.16 469.24 113.85C474.08 115.28 473.28 122.45 470.99 125.79C470.27 126.61 468.04 127.85 466.66 128.05C466.47 128 466.39 128.31 466.58 128.35" fill="#009CA7"/>
</g>
<path fill-rule="evenodd" clip-rule="evenodd" d="M425.56 130.95C414.94 134.21 414.29 109.92 425.26 113.29C418.82 115.2 419.19 129.02 425.56 130.95Z" fill="#009CA7"/>
<path fill-rule="evenodd" clip-rule="evenodd" d="M455.2 129.53C444.58 132.79 443.93 108.5 454.9 111.87C448.46 113.78 448.83 127.6 455.2 129.53Z" fill="#009CA7"/>
<path fill-rule="evenodd" clip-rule="evenodd" d="M520.23 87.99C520.23 87.99 522.23 86.87 523.45 90.66C524.94 95.42 522.01 96.87 524.3 97.3C524.42 96.68 526.17 92.79 525.15 90.39C523.71 86.19 521.9 85.24 520.23 87.99Z" fill="#23353F"/>
<path d="M434.87 66.2599L434.89 66.7599L435.69 66.6899C435.29 65.1899 437.19 63.8699 438.37 64.9899C437.68 65.2499 437.12 65.8499 436.98 66.5699L437.82 66.4999C438.15 65.4699 439.81 65.2399 440.27 66.2799L441.11 66.1999C440.89 65.3999 440.11 64.8499 439.27 64.8299C438.11 62.8499 434.71 64.0399 434.88 66.2599" fill="white"/>
<path d="M440.34 66.52C439.61 66.47 439.19 67.64 440.16 67.38C441.38 66.8 441.7 68.01 441.51 68.91L442.68 68.81C442.57 68.7 442.46 68.61 442.33 68.52C442.61 67.66 442.04 66.72 441.16 66.53C441.15 66.42 441.13 66.32 441.1 66.21L440.26 66.29C440.3 66.37 440.33 66.44 440.34 66.52Z" fill="white"/>
<path d="M437.54 69.22L437.58 69.26L438.27 69.2L437.87 68.83C438.31 67.64 436.26 67.49 436.31 68.66C436.31 69.31 437.06 69.43 437.53 69.22M436.83 68.62C436.81 68.27 437.41 68.19 437.42 68.57C437.44 68.92 436.84 69 436.83 68.62Z" fill="white"/>
<path d="M437.29 67.06C437.64 67.1 437.75 66.78 437.81 66.51L436.97 66.59C436.9 66.81 437.04 67.04 437.28 67.07" fill="white"/>
<path d="M435.78 69.4199L435.69 66.6899L434.89 66.7699L434.98 69.4999L435.78 69.4199Z" fill="white"/>
<path d="M439.73 70.65C440.25 70.9 440.95 70.45 440.91 69.88C440.83 68.66 438.85 69.26 439.37 70.32L437.69 71.99L438.45 71.92L439.73 70.65ZM440.09 69.68C440.48 69.64 440.48 70.22 440.11 70.24C439.72 70.27 439.72 69.7 440.09 69.68Z" fill="white"/>
<path d="M435.87 72.15L435.83 70.89C435.95 70.86 437.44 70.8 437.49 70.68C437.69 70.35 439.13 69.6 438.28 69.2L437.59 69.26L437.94 69.58L437.21 70.27L435.82 70.39L435.79 69.41L434.99 69.48L435.08 72.21L435.88 72.14L435.87 72.15Z" fill="white"/>
<path d="M441.68 69.06C442.63 69.5 442.84 70.8 442.18 71.59L443.13 71.5C443.57 70.61 443.4 69.49 442.69 68.8L441.52 68.91C441.56 68.97 441.61 69.02 441.68 69.06Z" fill="white"/>
<path d="M437.43 69.27L436.84 69.32C437.03 69.38 437.26 69.36 437.43 69.27Z" fill="white"/>
<path d="M440.89 72.33C438.95 70.77 439.05 74.92 440.9 73.09C441.46 73.03 441.99 72.78 442.41 72.43C442.91 73.23 441.76 73.7 441.87 74.35L442.77 74.27C442.77 74.27 442.75 74.22 442.74 74.2C443.36 73.56 443.5 72.51 442.97 71.79C443.03 71.7 443.08 71.6 443.13 71.51L442.18 71.59C441.87 71.99 441.4 72.26 440.89 72.33ZM440.21 73.04C439.82 73.07 439.82 72.5 440.19 72.48C440.58 72.45 440.58 73.02 440.21 73.04Z" fill="white"/>
<path d="M438.41 74.2299L435.95 74.4499L435.9 72.8999C436.02 72.8699 437.65 72.7999 437.69 72.6799L438.46 71.9199L437.7 71.9899L437.4 72.2799L435.88 72.4199V72.1499L435.07 72.2199L435.16 74.9499L438.94 74.6099C438.82 74.5299 438.58 74.1899 438.41 74.2299Z" fill="white"/>
<path d="M441.9 74.41C442.41 74.99 442.11 75.95 441.42 76.26C441.26 75.5 439.74 75.3 440.34 76.26C440.65 76.47 440.85 76.82 440.84 77.19L441.64 77.12C441.64 77.12 441.64 77.04 441.64 76.99C442.68 76.58 443.29 75.28 442.77 74.28L441.87 74.36C441.87 74.36 441.89 74.4 441.9 74.42" fill="white"/>
<path d="M435.96 74.9401L438.31 74.7301L438.82 75.2101L438.29 75.8501C437.13 75.4701 436.7 77.4101 438.01 77.3401C438.59 77.3001 439 76.6301 438.68 76.1401C439.08 75.6201 439.84 75.1301 438.95 74.6101L435.17 74.9501L435.26 77.6801L436.06 77.6101L435.97 74.9401H435.96ZM437.99 76.8501C437.6 76.8901 437.6 76.3101 437.97 76.2901C438.36 76.2601 438.36 76.8301 437.99 76.8501Z" fill="white"/>
<path d="M440.54 77.9801C440.14 78.4801 439.49 78.5101 438.91 78.3701C437.73 79.8101 435.91 79.9901 436.05 77.6201L435.25 77.6901C434.78 80.0201 437.84 81.1901 439.1 79.1901C440.34 79.4401 441.68 78.3901 441.64 77.1201L440.83 77.1901C440.83 77.4801 440.73 77.7501 440.53 77.9801" fill="white"/>
<path d="M429.59 65.7C428.76 65.87 428.02 66.56 427.85 67.39L428.69 67.31C429.02 66.27 430.7 66.07 431.14 67.09L431.98 67.02C431.79 66.33 431.19 65.83 430.49 65.69C431.49 64.4 433.57 65.28 433.27 66.9L434.07 66.83C434.45 64.19 430.64 63.39 429.59 65.7Z" fill="white"/>
<path d="M434.16 69.5701L434.07 66.8401L433.27 66.9101L433.36 69.6401L434.16 69.5701Z" fill="white"/>
<path d="M427.66 69.9501C427.13 69.1401 427.91 68.0301 428.86 68.3901C429.8 68.5001 429.39 67.3901 428.62 67.5701C428.63 67.4901 428.66 67.4001 428.69 67.3201L427.85 67.4001C427.83 67.5101 427.81 67.6201 427.81 67.7301C426.97 68.0601 426.44 69.1001 426.78 69.9201C426.66 70.0301 426.55 70.1401 426.45 70.2701L427.62 70.1601C427.65 70.1001 427.67 70.0301 427.67 69.9601" fill="white"/>
<path d="M431.59 69.7499C432.1 69.8899 432.82 69.5999 432.77 68.9799C432.69 67.7599 430.7 68.3599 431.23 69.4199L430.86 69.8599L431.55 69.7999L431.59 69.7499ZM431.95 68.7799C432.34 68.7399 432.34 69.3199 431.97 69.3399C431.58 69.3799 431.58 68.7999 431.95 68.7799Z" fill="white"/>
<path d="M431.7 67.56C431.94 67.49 432.07 67.24 431.98 67.03L431.14 67.11C431.22 67.37 431.36 67.67 431.7 67.56Z" fill="white"/>
<path d="M431.99 69.82C432.1 69.81 432.2 69.78 432.29 69.73L431.7 69.78C431.79 69.81 431.88 69.82 431.99 69.81" fill="white"/>
<path d="M427 72.7699C426.3 71.8799 426.83 70.7699 427.62 70.1599L426.45 70.2599C425.82 71.0199 425.68 72.1799 426.19 73.0199L427.14 72.9299C427.09 72.8799 427.04 72.8199 427 72.7599" fill="white"/>
<path d="M429.9 70.87C429.06 68.58 427.02 72.34 429.51 71.57L430.87 72.6L431.63 72.53L429.85 71.18C429.89 71.08 429.91 70.98 429.91 70.87M429.1 71.22C428.71 71.26 428.71 70.68 429.08 70.66C429.47 70.62 429.47 71.2 429.1 71.22Z" fill="white"/>
<path d="M430.6 70.2801C430.56 70.4301 431.66 71.1101 431.74 71.2001C431.79 71.3101 433.29 71.1001 433.4 71.1101L433.44 72.3701L434.24 72.3001L434.15 69.5701L433.35 69.6401L433.38 70.6201L431.99 70.7401L431.21 70.1801L431.54 69.7901L430.85 69.8501C430.78 69.9501 430.57 70.1201 430.59 70.2601" fill="white"/>
<path d="M427.67 75.4399C427.35 74.9399 426.64 74.5599 426.97 73.8199C427.41 74.0999 427.96 74.2399 428.51 74.2099C430.5 75.6999 430.26 71.5699 428.47 73.4499C427.96 73.4699 427.48 73.2799 427.14 72.9399L426.19 73.0299C426.24 73.1199 426.3 73.1999 426.37 73.2799C425.91 74.0399 426.07 75.0799 426.77 75.6399C426.76 75.6699 426.75 75.6899 426.74 75.7199L427.64 75.6399C427.67 75.5799 427.68 75.5199 427.68 75.4499M429.18 73.4699C429.57 73.4399 429.57 74.0099 429.2 74.0299C428.81 74.0599 428.81 73.4899 429.18 73.4699Z" fill="white"/>
<path d="M433.45 72.3701V72.6401L431.94 72.7801L431.62 72.5401L430.86 72.6101C430.98 72.6701 431.7 73.3301 431.85 73.2701L433.47 73.1301L433.52 74.6801C433 74.8101 430.73 74.6401 430.56 75.3801L434.34 75.0401L434.25 72.3101L433.45 72.3801V72.3701Z" fill="white"/>
<path d="M430.56 75.37C429.73 76.05 430.41 76.32 430.93 76.84C430.64 77.35 431.07 77.98 431.67 77.91C432.94 77.79 432.46 75.89 431.29 76.48L430.72 75.94L431.2 75.37L433.55 75.16L433.64 77.83L434.44 77.76L434.35 75.03L430.57 75.37H430.56ZM431.64 76.86C432.03 76.82 432.03 77.4 431.66 77.42C431.27 77.45 431.27 76.88 431.64 76.86Z" fill="white"/>
<path d="M428.84 78.1601C428.84 77.8201 429 77.4801 429.28 77.2401C429.81 76.1501 428.28 76.7001 428.21 77.4401C427.43 77.2201 427.17 76.2601 427.64 75.6201L426.74 75.7001C426.3 76.7301 426.95 77.9701 428.05 78.1901C428.05 78.2301 428.05 78.2801 428.05 78.3201L428.86 78.2501C428.86 78.2501 428.86 78.1901 428.86 78.1501" fill="white"/>
<path d="M433.66 78.59C433.33 80.5 431.9 79.95 430.85 79.09C430.08 79.52 428.92 79.26 428.86 78.26L428.05 78.33C428.09 79.62 429.56 80.4 430.72 79.94C432.24 81.75 435.05 79.9 434.44 77.76L433.64 77.83L433.67 78.59H433.66Z" fill="white"/>
</g>
<defs>
<clipPath id="clip0_323_2186">
<rect width="577.23" height="374.77" fill="white" transform="translate(0 77)"/>
</clipPath>
<clipPath id="clip1_323_2186">
<rect width="122.87" height="273.14" fill="white" transform="translate(403)"/>
</clipPath>
</defs>
</svg>
