<svg width="123" height="274" viewBox="0 0 123 274" fill="none" xmlns="http://www.w3.org/2000/svg">
<g clip-path="url(#clip0_323_2084)">
<path fill-rule="evenodd" clip-rule="evenodd" d="M89.29 247.1C89.46 248.53 89.77 263.07 89.77 263.07C89.77 263.07 96.76 263.04 98.03 266.93C98.97 269.8 99.32 272.42 98.01 272.9C96.69 273.37 75.85 271.7 75.85 271.7L73.54 245.95C73.54 245.95 89.12 245.67 89.29 247.11" fill="#583860"/>
<path fill-rule="evenodd" clip-rule="evenodd" d="M27.46 242L24.64 256.74C27.44 258.1 33.52 261.31 31.65 266.48C31.35 267.73 16.33 265.6 10.77 264.78L15.23 240.22L27.46 242Z" fill="#583860"/>
<path fill-rule="evenodd" clip-rule="evenodd" d="M121.3 91.8701L121.22 272.75C120.84 272.88 117.95 273.93 118.32 271.98L119.03 91.9801L121.29 91.8701H121.3Z" fill="#23353F"/>
<path fill-rule="evenodd" clip-rule="evenodd" d="M121.85 90.8899H118.24V107.87C118.22 108.87 119.15 109.68 120.14 109.58C121.06 109.6 121.87 108.79 121.85 107.87V90.8899Z" fill="#23353F"/>
<path fill-rule="evenodd" clip-rule="evenodd" d="M61.02 159.58C61.08 156.95 68.91 190.61 72.35 198.32C69.33 217.68 69.15 251.91 75.28 251.17C83.3 250.2 91.6 252.99 91.98 251.22C93.18 245.72 91.94 208.42 88.66 196.78C89 168.25 89.45 144.45 86.96 128.47C86.96 128.47 50.35 124.89 47.22 125.04C44.1 125.19 36.66 132.69 36.66 132.69L28.3 190.06C17 215.36 9.83 240.36 13.98 241.64C13.98 241.64 25.63 245.17 28.32 244.76C35.24 235.06 53.84 179.48 61 159.59" fill="#23353F"/>
<path fill-rule="evenodd" clip-rule="evenodd" d="M20 250C28.8511 235.845 54.3069 171.312 60.1573 156L62 161.333C37.6217 230.502 28.5591 245.206 28.5591 245.206C28.5591 245.206 24.7308 245.294 23.1762 244.226" fill="#AB7AB4"/>
<path d="M87.26 216.54C89.33 232.63 87.9999 245.5 86.4999 251.5C87.8333 251.834 90.7999 252.3 91.9999 251.5C92.5271 247.546 92.9999 215.5 88.4999 196.5C89.9999 173 88.06 135.5 88.06 135.5V134.45L80.29 134.45C80.29 134.45 85.77 167.62 83.94 178.93C82.11 190.24 85.19 200.45 87.26 216.54Z" fill="#AB7AB4"/>
<path fill-rule="evenodd" clip-rule="evenodd" d="M112.82 94.5099C114.14 91.5399 112.64 86.3399 116.8 88.1199C117.76 88.2099 118.77 85.2299 120.62 86.7799C122.47 88.3299 123.75 93.9199 122.13 95.4899C120.5 97.0699 117.81 97.6699 117.81 97.6699C117.81 97.6699 111.76 96.5299 112.82 94.4999" fill="#D4843B"/>
<path fill-rule="evenodd" clip-rule="evenodd" d="M72.75 37.6801C80.23 -4.6399 44.04 -0.119904 48.48 26.1801C49.78 32.1901 53.39 39.6801 53.39 39.6801L53.95 47.1101L70.2 47.7101L69.17 40.2101C69.17 40.2101 72.22 39.1001 72.76 37.6901" fill="#D4843B"/>
<path fill-rule="evenodd" clip-rule="evenodd" d="M71.59 19.38C73.8 22.61 76.62 25.07 72.87 26.67C72.87 26.67 70.38 17.12 71.59 19.38Z" fill="#D4843B"/>
<path fill-rule="evenodd" clip-rule="evenodd" d="M86.2 50.8301C68.06 42.4101 49.87 44.3401 34.1 53.8401C32.58 55.3601 26.75 103.18 26.91 121.61C27.07 140.04 38.43 133.58 41.86 133.73C61.99 134.58 77.69 136.09 87.34 134.86C91.59 138.37 92.08 53.7101 86.21 50.8401" fill="#588BB5"/>
<path fill-rule="evenodd" clip-rule="evenodd" d="M27.43 105.96C27.55 111.34 26.09 129.78 30.38 132.88C34.67 135.99 33.75 134.56 35.36 134.69C36.97 134.82 41.94 133.56 42.83 133.82C43.72 134.08 65.24 135.43 68.46 134.9C82.2 123.08 78.97 84.6401 77.3 65.5301C76.74 59.1901 74.01 50.5401 72.58 49.5701C70.65 48.2601 66.7 54.5401 63.37 53.9901C19.28 54.1301 25.45 74.7701 27.44 105.95" fill="#23353F"/>
<path fill-rule="evenodd" clip-rule="evenodd" d="M84.31 84.98L70.49 110.17L71.29 115.13L85.12 89.04L84.31 84.98Z" fill="#23353F"/>
<path fill-rule="evenodd" clip-rule="evenodd" d="M78.26 48.0099C73.65 48.5599 70.17 49.9699 67.93 54.7299L63.14 49.4599L66.81 45.3299C69.63 42.5099 79.14 45.8499 78.26 48.0099Z" fill="#23353F"/>
<path fill-rule="evenodd" clip-rule="evenodd" d="M69.34 15.26C76.38 14.66 79.42 3.18003 72.71 0.0300325C71.29 -0.259968 71.1 1.52003 70.21 2.00003C68.37 0.730032 66.27 1.02003 64.34 1.93003C60.43 0.430032 56.01 2.04003 53.92 5.74003C53.54 7.01003 53.31 8.74003 51.55 8.09003C41.87 9.31003 43.97 22.26 49 27.6C49.76 30.2 49.56 33.44 51.85 35.38C56.66 38.06 63.6 33.79 65.69 29.17C66.23 26.41 66.95 23.44 66.47 20.63C65.7 18.25 67.36 16.64 69.34 15.26Z" fill="#422B26"/>
<path fill-rule="evenodd" clip-rule="evenodd" d="M66.2 33.94C66.2 33.94 77.12 80.58 70.97 126.93C69.72 136.32 18.83 134.22 17.53 129.06C10.35 100.45 8.88 43.44 16.96 36.08C26.41 27.47 68.05 27.42 66.2 33.94Z" fill="#38689B"/>
<path fill-rule="evenodd" clip-rule="evenodd" d="M60.84 32.1301C58.41 32.8201 52.24 40.4601 51.38 46.7001C50.52 52.9401 68.66 137.54 44.69 133.5C40.54 132.8 73.11 137.3 75.4 131.99C77.7 126.69 72.5 66.2901 71.6 52.7301C69.63 35.8501 69.12 30.7901 60.84 32.1301Z" fill="#588BB5"/>
<path fill-rule="evenodd" clip-rule="evenodd" d="M65.64 22.57C68.25 22.35 68.61 29.74 65.98 29.77C63.37 29.99 63.01 22.6 65.64 22.57Z" fill="#D4843B"/>
<path fill-rule="evenodd" clip-rule="evenodd" d="M68.16 43.7901C68.16 43.7901 66.39 41.5901 61.7 42.3401C52.74 43.7701 54.07 57.4001 52.41 57.8401C47.63 59.0901 12.35 62.8401 11.4 59.0801C8.66 46.2101 8.67 33.5601 23.54 31.7801C34.33 29.0701 59.02 27.2001 64.48 29.7001C69.94 32.2001 68.16 43.8001 68.16 43.8001" fill="#23353F"/>
<mask id="mask0_323_2084" style="mask-type:luminance" maskUnits="userSpaceOnUse" x="9" y="28" width="60" height="33">
<path d="M23.54 31.7799C8.67 33.5599 8.65 46.2099 11.4 59.0799C12.35 62.8499 47.63 59.0999 52.41 57.8399C54.07 57.3999 52.75 43.7799 61.7 42.3399C66.4 41.5899 68.16 43.7899 68.16 43.7899C68.16 43.7899 69.94 32.1899 64.48 29.6899C53.91 26.7799 33.06 29.6999 23.54 31.7699" fill="white"/>
</mask>
<g mask="url(#mask0_323_2084)">
<path d="M23.7 55.8698C19.97 55.8698 16.22 55.5998 12.53 54.9498C12.51 54.9498 12.49 54.9298 12.49 54.8998C12.2 52.5598 11.67 46.4998 13.16 40.7598C14.65 35.0098 17.64 31.4798 22.05 30.2598C22.08 30.2598 22.11 30.2598 22.12 30.2998C22.12 30.3298 22.12 30.3598 22.08 30.3698C17.71 31.5798 14.74 35.0898 13.26 40.7898C11.78 46.4798 12.29 52.4898 12.59 54.8498C24.66 56.9698 37.3 55.0298 48.08 52.8398C47.42 49.4598 47.64 45.6098 48.72 41.9898C49.84 38.1998 51.78 34.9398 54.3 32.5598C57.05 29.9798 61.77 27.2898 68.66 29.1198C68.69 29.1198 68.7 29.1598 68.7 29.1798C68.7 29.2098 68.66 29.2198 68.64 29.2198C61.79 27.4098 57.11 30.0798 54.38 32.6398C51.86 34.9998 49.94 38.2498 48.82 42.0198C47.75 45.6398 47.52 49.4998 48.2 52.8698C48.2 52.8998 48.19 52.9298 48.16 52.9298C40.64 54.4498 32.22 55.8598 23.72 55.8598L23.7 55.8698Z" fill="#BCBFCC"/>
</g>
<path fill-rule="evenodd" clip-rule="evenodd" d="M89.09 111.78C84.45 110.29 72.81 59.11 72.86 54.7C73.45 50.64 73.45 48.25 78.62 48.2C90.49 45.19 96.68 78.42 100.93 89.56C106.16 90.11 111.18 91 111.18 91C112.25 89.12 121.76 94 118.57 99.42C115.8 102.61 94.92 115.3 89.09 111.79" fill="#588BB5"/>
<mask id="mask1_323_2084" style="mask-type:luminance" maskUnits="userSpaceOnUse" x="72" y="47" width="48" height="66">
<path d="M78.62 48.2C73.45 48.25 73.45 50.64 72.86 54.7C72.28 58.75 85.14 108.66 87.92 111.19C90.25 112.75 92.25 113.22 95.88 111.8C101.37 109.75 116.61 102.72 118.56 99.41C121.75 93.99 112.24 89.11 111.17 90.99C111.17 90.99 106.16 90.11 100.92 89.55C96.69 78.44 90.47 45.17 78.61 48.19" fill="white"/>
</mask>
<g mask="url(#mask1_323_2084)">
<path fill-rule="evenodd" clip-rule="evenodd" d="M73.37 51.5701C73.37 51.5701 86.45 102.56 91.08 105.59C95.71 108.62 120.67 96.7401 120.67 96.7401C120.67 96.7401 117.12 106.66 111.1 110.2C105.08 113.74 87.03 121.1 83.58 113.84C80.14 106.58 67.01 52.4001 70.19 47.7001C73.37 43.0001 73.36 51.5601 73.36 51.5601" fill="#4577A8"/>
</g>
<path fill-rule="evenodd" clip-rule="evenodd" d="M28.53 88.3699C28.09 86.6299 10.7 89.0099 10.97 90.0499L13.1 111.02C17.75 112.61 22.82 111.87 28.83 110.35C28.83 110.35 28.68 88.9699 28.53 88.3699Z" fill="#009CA7"/>
<mask id="mask2_323_2084" style="mask-type:luminance" maskUnits="userSpaceOnUse" x="10" y="87" width="19" height="25">
<path d="M10.97 90.0399L13.1 111.01C17.75 112.6 22.82 111.86 28.83 110.35C28.83 110.35 28.68 88.9699 28.53 88.3699C25.03 86.4399 10.58 89.4199 10.97 90.0399Z" fill="white"/>
</mask>
<g mask="url(#mask2_323_2084)">
<path fill-rule="evenodd" clip-rule="evenodd" d="M29.32 87.53C27.39 87.71 24.44 88.81 24.25 90.97C24.09 93.44 27.61 110.29 23.33 113.02C24.39 113.39 28.83 114.17 29.96 110.61C31.1 107.06 31.25 87.35 29.32 87.53Z" fill="#009CA7"/>
</g>
<path fill-rule="evenodd" clip-rule="evenodd" d="M57.86 66.49C58.13 64.71 75.67 65.42 75.5 66.48L75.39 87.56C70.91 89.59 65.8 89.34 59.67 88.4C59.67 88.4 57.77 67.11 57.86 66.49Z" fill="#4577A8"/>
<path fill-rule="evenodd" clip-rule="evenodd" d="M57.86 66.49C58.13 64.71 75.67 65.42 75.5 66.48L75.39 87.56C70.91 89.59 65.8 89.34 59.67 88.4C59.67 88.4 57.77 67.11 57.86 66.49Z" fill="#009CA7"/>
<mask id="mask3_323_2084" style="mask-type:luminance" maskUnits="userSpaceOnUse" x="57" y="65" width="19" height="25">
<path d="M57.85 66.4899C57.76 67.1099 59.66 88.3999 59.66 88.3999C65.79 89.3299 70.9 89.5899 75.38 87.5599L75.49 66.4799C75.93 65.5299 58.54 64.5999 57.85 66.4899Z" fill="white"/>
</mask>
<g mask="url(#mask3_323_2084)">
<path fill-rule="evenodd" clip-rule="evenodd" d="M56.99 65.73C58.93 65.73 61.97 66.53 62.37 68.67C62.77 71.11 60.87 88.23 65.39 90.53C64.37 91 60.03 92.2 58.56 88.77C57.09 85.34 55.05 65.74 56.99 65.73Z" fill="#009CA7"/>
</g>
<path fill-rule="evenodd" clip-rule="evenodd" d="M52.78 87.0401C52.34 85.3001 34.95 87.6801 35.22 88.7201L37.35 109.69C42 111.28 47.07 110.54 53.08 109.02C53.08 109.02 52.93 87.6401 52.78 87.0401Z" fill="#009CA7"/>
<mask id="mask4_323_2084" style="mask-type:luminance" maskUnits="userSpaceOnUse" x="35" y="86" width="19" height="25">
<path d="M35.22 88.72L37.35 109.69C42 111.28 47.07 110.54 53.08 109.02C53.08 109.02 52.93 87.64 52.78 87.04C49.27 85.12 34.83 88.09 35.22 88.72Z" fill="white"/>
</mask>
<g mask="url(#mask4_323_2084)">
<path fill-rule="evenodd" clip-rule="evenodd" d="M53.57 86.2C51.64 86.38 48.69 87.48 48.5 89.64C48.33 92.11 51.86 108.96 47.58 111.69C48.64 112.06 53.08 112.84 54.21 109.28C55.35 105.73 55.5 86.02 53.57 86.2Z" fill="#009CA7"/>
</g>
<path fill-rule="evenodd" clip-rule="evenodd" d="M28.63 90.3201C23.02 88.9401 23.34 94.4901 23.31 94.6501C23.12 95.8501 11.27 98.0901 10.63 95.4801C10.01 92.9301 10.45 90.0201 10.81 89.0501C11.4 86.7201 31.73 83.2901 28.62 90.3101" fill="#23353F"/>
<path fill-rule="evenodd" clip-rule="evenodd" d="M57.94 68.4501C63.39 66.5401 63.61 72.0901 63.65 72.2501C63.95 73.4301 75.96 74.5201 76.35 71.8601C76.73 69.2601 76.01 66.4101 75.55 65.4801C74.74 63.2201 54.17 61.7501 57.94 68.4401" fill="#23353F"/>
<path fill-rule="evenodd" clip-rule="evenodd" d="M52.88 89C47.27 87.62 47.59 93.17 47.56 93.33C47.37 94.53 35.52 96.77 34.88 94.16C34.26 91.61 34.7 88.7 35.06 87.73C35.65 85.4 55.98 81.97 52.87 88.99" fill="#23353F"/>
<path fill-rule="evenodd" clip-rule="evenodd" d="M46.66 57.1701C46.42 58.4901 47.39 80.1601 47.39 80.1601L44.46 80.3001L44.17 57.0601C44.17 57.0601 46.9 55.8501 46.66 57.1601" fill="#009CA7"/>
<path fill-rule="evenodd" clip-rule="evenodd" d="M18.42 58.5C18.18 59.76 19.2 81.52 19.2 81.52C18.04 81.13 17.08 81.23 16.24 81.66L15.46 58.15C15.46 58.15 18.66 57.24 18.42 58.5Z" fill="#009CA7"/>
<path fill-rule="evenodd" clip-rule="evenodd" d="M5.76 114.32L65.1 111.46L65.91 128.42L6.57 131.27C-1.6 132.21 -2.47 114.15 5.76 114.31" fill="#23353F"/>
<path fill-rule="evenodd" clip-rule="evenodd" d="M65.26 111.46C73.12 110.9 73.95 128.23 66.07 128.42C58.21 128.98 57.38 111.65 65.26 111.46Z" fill="#23353F"/>
<mask id="mask5_323_2084" style="mask-type:luminance" maskUnits="userSpaceOnUse" x="59" y="111" width="13" height="18">
<path d="M65.26 111.46C57.38 111.65 58.22 128.99 66.07 128.42C73.93 128.22 73.15 110.92 65.26 111.46Z" fill="white"/>
</mask>
<g mask="url(#mask5_323_2084)">
<path fill-rule="evenodd" clip-rule="evenodd" d="M63.59 128.34C70.48 127.89 72.92 115.84 66.3 113.54C63.14 113.57 61.06 115.68 61.19 120.3C61.59 127.92 69.27 127.51 68.78 119.09C67.42 111.6 60.49 118.46 64.1 122.9C66.01 125.09 67.86 121.71 66.57 120.18C66.68 121.64 66.63 124.6 64.33 122.7C61.06 118.75 67.19 112.17 68.47 119.12C68.3 122.83 67.64 126.13 64.29 125.35C59.43 123.05 61.29 113.16 66.24 113.85C71.08 115.28 70.28 122.45 67.99 125.79C67.27 126.61 65.04 127.85 63.66 128.05C63.47 128 63.39 128.31 63.58 128.35" fill="#009CA7"/>
</g>
<path fill-rule="evenodd" clip-rule="evenodd" d="M22.56 130.95C11.94 134.21 11.29 109.92 22.26 113.29C15.82 115.2 16.19 129.02 22.56 130.95Z" fill="#009CA7"/>
<path fill-rule="evenodd" clip-rule="evenodd" d="M52.2 129.53C41.58 132.79 40.93 108.5 51.9 111.87C45.46 113.78 45.83 127.6 52.2 129.53Z" fill="#009CA7"/>
<path fill-rule="evenodd" clip-rule="evenodd" d="M117.23 87.99C117.23 87.99 119.23 86.87 120.45 90.66C121.94 95.42 119.01 96.87 121.3 97.3C121.42 96.68 123.17 92.79 122.15 90.39C120.71 86.19 118.9 85.24 117.23 87.99Z" fill="#23353F"/>
<path d="M31.87 66.2599L31.89 66.7599L32.69 66.6899C32.29 65.1899 34.19 63.8699 35.37 64.9899C34.68 65.2499 34.12 65.8499 33.98 66.5699L34.82 66.4999C35.15 65.4699 36.81 65.2399 37.27 66.2799L38.11 66.1999C37.89 65.3999 37.11 64.8499 36.27 64.8299C35.11 62.8499 31.71 64.0399 31.88 66.2599" fill="white"/>
<path d="M37.34 66.52C36.61 66.47 36.19 67.64 37.16 67.38C38.38 66.8 38.7 68.01 38.51 68.91L39.68 68.81C39.57 68.7 39.46 68.61 39.33 68.52C39.61 67.66 39.04 66.72 38.16 66.53C38.15 66.42 38.13 66.32 38.1 66.21L37.26 66.29C37.3 66.37 37.33 66.44 37.34 66.52Z" fill="white"/>
<path d="M34.54 69.22L34.58 69.26L35.27 69.2L34.87 68.83C35.31 67.64 33.26 67.49 33.31 68.66C33.31 69.31 34.06 69.43 34.53 69.22M33.83 68.62C33.81 68.27 34.41 68.19 34.42 68.57C34.44 68.92 33.84 69 33.83 68.62Z" fill="white"/>
<path d="M34.29 67.06C34.64 67.1 34.75 66.78 34.81 66.51L33.97 66.59C33.9 66.81 34.04 67.04 34.28 67.07" fill="white"/>
<path d="M32.78 69.4199L32.69 66.6899L31.89 66.7699L31.98 69.4999L32.78 69.4199Z" fill="white"/>
<path d="M36.73 70.65C37.25 70.9 37.95 70.45 37.91 69.88C37.83 68.66 35.85 69.26 36.37 70.32L34.69 71.99L35.45 71.92L36.73 70.65ZM37.09 69.68C37.48 69.64 37.48 70.22 37.11 70.24C36.72 70.27 36.72 69.7 37.09 69.68Z" fill="white"/>
<path d="M32.87 72.15L32.83 70.89C32.95 70.86 34.44 70.8 34.49 70.68C34.69 70.35 36.13 69.6 35.28 69.2L34.59 69.26L34.94 69.58L34.21 70.27L32.82 70.39L32.79 69.41L31.99 69.48L32.08 72.21L32.88 72.14L32.87 72.15Z" fill="white"/>
<path d="M38.68 69.06C39.63 69.5 39.84 70.8 39.18 71.59L40.13 71.5C40.57 70.61 40.4 69.49 39.69 68.8L38.52 68.91C38.56 68.97 38.61 69.02 38.68 69.06Z" fill="white"/>
<path d="M34.43 69.27L33.84 69.32C34.03 69.38 34.26 69.36 34.43 69.27Z" fill="white"/>
<path d="M37.89 72.33C35.95 70.77 36.05 74.92 37.9 73.09C38.46 73.03 38.99 72.78 39.41 72.43C39.91 73.23 38.76 73.7 38.87 74.35L39.77 74.27C39.77 74.27 39.75 74.22 39.74 74.2C40.36 73.56 40.5 72.51 39.97 71.79C40.03 71.7 40.08 71.6 40.13 71.51L39.18 71.59C38.87 71.99 38.4 72.26 37.89 72.33ZM37.21 73.04C36.82 73.07 36.82 72.5 37.19 72.48C37.58 72.45 37.58 73.02 37.21 73.04Z" fill="white"/>
<path d="M35.41 74.2299L32.95 74.4499L32.9 72.8999C33.02 72.8699 34.65 72.7999 34.69 72.6799L35.46 71.9199L34.7 71.9899L34.4 72.2799L32.88 72.4199V72.1499L32.07 72.2199L32.16 74.9499L35.94 74.6099C35.82 74.5299 35.58 74.1899 35.41 74.2299Z" fill="white"/>
<path d="M38.9 74.41C39.41 74.99 39.11 75.95 38.42 76.26C38.26 75.5 36.74 75.3 37.34 76.26C37.65 76.47 37.85 76.82 37.84 77.19L38.64 77.12C38.64 77.12 38.64 77.04 38.64 76.99C39.68 76.58 40.29 75.28 39.77 74.28L38.87 74.36C38.87 74.36 38.89 74.4 38.9 74.42" fill="white"/>
<path d="M32.96 74.9401L35.31 74.7301L35.82 75.2101L35.29 75.8501C34.13 75.4701 33.7 77.4101 35.01 77.3401C35.59 77.3001 36 76.6301 35.68 76.1401C36.08 75.6201 36.84 75.1301 35.95 74.6101L32.17 74.9501L32.26 77.6801L33.06 77.6101L32.97 74.9401H32.96ZM34.99 76.8501C34.6 76.8901 34.6 76.3101 34.97 76.2901C35.36 76.2601 35.36 76.8301 34.99 76.8501Z" fill="white"/>
<path d="M37.54 77.9801C37.14 78.4801 36.49 78.5101 35.91 78.3701C34.73 79.8101 32.91 79.9901 33.05 77.6201L32.25 77.6901C31.78 80.0201 34.84 81.1901 36.1 79.1901C37.34 79.4401 38.68 78.3901 38.64 77.1201L37.83 77.1901C37.83 77.4801 37.73 77.7501 37.53 77.9801" fill="white"/>
<path d="M26.59 65.7C25.76 65.87 25.02 66.56 24.85 67.39L25.69 67.31C26.02 66.27 27.7 66.07 28.14 67.09L28.98 67.02C28.79 66.33 28.19 65.83 27.49 65.69C28.49 64.4 30.57 65.28 30.27 66.9L31.07 66.83C31.45 64.19 27.64 63.39 26.59 65.7Z" fill="white"/>
<path d="M31.16 69.5701L31.07 66.8401L30.27 66.9101L30.36 69.6401L31.16 69.5701Z" fill="white"/>
<path d="M24.66 69.9501C24.13 69.1401 24.91 68.0301 25.86 68.3901C26.8 68.5001 26.39 67.3901 25.62 67.5701C25.63 67.4901 25.66 67.4001 25.69 67.3201L24.85 67.4001C24.83 67.5101 24.81 67.6201 24.81 67.7301C23.97 68.0601 23.44 69.1001 23.78 69.9201C23.66 70.0301 23.55 70.1401 23.45 70.2701L24.62 70.1601C24.65 70.1001 24.67 70.0301 24.67 69.9601" fill="white"/>
<path d="M28.59 69.7499C29.1 69.8899 29.82 69.5999 29.77 68.9799C29.69 67.7599 27.7 68.3599 28.23 69.4199L27.86 69.8599L28.55 69.7999L28.59 69.7499ZM28.95 68.7799C29.34 68.7399 29.34 69.3199 28.97 69.3399C28.58 69.3799 28.58 68.7999 28.95 68.7799Z" fill="white"/>
<path d="M28.7 67.56C28.94 67.49 29.07 67.24 28.98 67.03L28.14 67.11C28.22 67.37 28.36 67.67 28.7 67.56Z" fill="white"/>
<path d="M28.99 69.82C29.1 69.81 29.2 69.78 29.29 69.73L28.7 69.78C28.79 69.81 28.88 69.82 28.99 69.81" fill="white"/>
<path d="M24 72.7699C23.3 71.8799 23.83 70.7699 24.62 70.1599L23.45 70.2599C22.82 71.0199 22.68 72.1799 23.19 73.0199L24.14 72.9299C24.09 72.8799 24.04 72.8199 24 72.7599" fill="white"/>
<path d="M26.9 70.87C26.06 68.58 24.02 72.34 26.51 71.57L27.87 72.6L28.63 72.53L26.85 71.18C26.89 71.08 26.91 70.98 26.91 70.87M26.1 71.22C25.71 71.26 25.71 70.68 26.08 70.66C26.47 70.62 26.47 71.2 26.1 71.22Z" fill="white"/>
<path d="M27.6 70.2801C27.56 70.4301 28.66 71.1101 28.74 71.2001C28.79 71.3101 30.29 71.1001 30.4 71.1101L30.44 72.3701L31.24 72.3001L31.15 69.5701L30.35 69.6401L30.38 70.6201L28.99 70.7401L28.21 70.1801L28.54 69.7901L27.85 69.8501C27.78 69.9501 27.57 70.1201 27.59 70.2601" fill="white"/>
<path d="M24.67 75.4399C24.35 74.9399 23.64 74.5599 23.97 73.8199C24.41 74.0999 24.96 74.2399 25.51 74.2099C27.5 75.6999 27.26 71.5699 25.47 73.4499C24.96 73.4699 24.48 73.2799 24.14 72.9399L23.19 73.0299C23.24 73.1199 23.3 73.1999 23.37 73.2799C22.91 74.0399 23.07 75.0799 23.77 75.6399C23.76 75.6699 23.75 75.6899 23.74 75.7199L24.64 75.6399C24.67 75.5799 24.68 75.5199 24.68 75.4499M26.18 73.4699C26.57 73.4399 26.57 74.0099 26.2 74.0299C25.81 74.0599 25.81 73.4899 26.18 73.4699Z" fill="white"/>
<path d="M30.45 72.3701V72.6401L28.94 72.7801L28.62 72.5401L27.86 72.6101C27.98 72.6701 28.7 73.3301 28.85 73.2701L30.47 73.1301L30.52 74.6801C30 74.8101 27.73 74.6401 27.56 75.3801L31.34 75.0401L31.25 72.3101L30.45 72.3801V72.3701Z" fill="white"/>
<path d="M27.56 75.37C26.73 76.05 27.41 76.32 27.93 76.84C27.64 77.35 28.07 77.98 28.67 77.91C29.94 77.79 29.46 75.89 28.29 76.48L27.72 75.94L28.2 75.37L30.55 75.16L30.64 77.83L31.44 77.76L31.35 75.03L27.57 75.37H27.56ZM28.64 76.86C29.03 76.82 29.03 77.4 28.66 77.42C28.27 77.45 28.27 76.88 28.64 76.86Z" fill="white"/>
<path d="M25.84 78.1601C25.84 77.8201 26 77.4801 26.28 77.2401C26.81 76.1501 25.28 76.7001 25.21 77.4401C24.43 77.2201 24.17 76.2601 24.64 75.6201L23.74 75.7001C23.3 76.7301 23.95 77.9701 25.05 78.1901C25.05 78.2301 25.05 78.2801 25.05 78.3201L25.86 78.2501C25.86 78.2501 25.86 78.1901 25.86 78.1501" fill="white"/>
<path d="M30.66 78.59C30.33 80.5 28.9 79.95 27.85 79.09C27.08 79.52 25.92 79.26 25.86 78.26L25.05 78.33C25.09 79.62 26.56 80.4 27.72 79.94C29.24 81.75 32.05 79.9 31.44 77.76L30.64 77.83L30.67 78.59H30.66Z" fill="white"/>
</g>
<defs>
<clipPath id="clip0_323_2084">
<rect width="122.87" height="273.14" fill="white"/>
</clipPath>
</defs>
</svg>
