<svg width="578" height="375" viewBox="0 0 578 375" fill="none" xmlns="http://www.w3.org/2000/svg">
<g clip-path="url(#clip0_323_2076)">
<path fill-rule="evenodd" clip-rule="evenodd" d="M263.38 158.15C328.83 166.38 516.9 188.79 577.02 209.63L577.23 259.42L566.86 332.46L530.81 374.77L279.22 351.91L263.38 158.15Z" fill="#38689B"/>
<path d="M505.82 215.22L482.42 254.86C472.63 259.22 451.55 269.25 442.63 274.84L427.14 297.21H571.87L577.23 259.42L577.02 209.63L505.82 215.21V215.22Z" fill="#23353F"/>
<path d="M280.53 266.22L317.33 297.21H467.19L482.51 286.98L505.82 215.22L462.86 197.67L402.45 192.82L370.33 190.5L276.71 162.27L280.53 266.22Z" fill="#009CA7"/>
<path fill-rule="evenodd" clip-rule="evenodd" d="M361.88 250.35C363.28 246.43 402.46 192.82 402.46 192.82C402.46 192.82 304.57 149.8 300.72 149.45C296.87 149.1 252.02 153.3 248.17 153.65C244.32 154 269.77 236.13 269.77 236.13C269.77 236.13 360.49 254.26 361.89 250.34" fill="#38689B"/>
<path fill-rule="evenodd" clip-rule="evenodd" d="M380.18 318.75C370.86 297.96 292 153.66 281.5 152C255.35 151.14 160 133 119.5 126.5L70.5 111C70.5 111 50.4299 110.66 17.9999 123L0 137.5V311.26C0 311.26 389.5 339.53 380.18 318.74" fill="#38689B"/>
<path fill-rule="evenodd" clip-rule="evenodd" d="M198 139.5L154 132.5L64.9998 150.5L41.9998 187C23.7998 247.02 -3.00015 310 -3.00015 310L125.28 324.75L180.03 227.65L191 197.5L233 171L273.5 150.5" fill="#588BB5"/>
<path fill-rule="evenodd" clip-rule="evenodd" d="M420.64 358.39C409.17 335.25 339.21 168.84 302 150.5C283.79 192.75 253.5 170.5 241.45 201.8C234.84 215.24 263.31 252.18 269.47 265.85C273.27 272.29 246.28 314.59 243.06 318.61C239.84 322.64 249.51 336.18 249.51 336.18L420.64 358.38V358.39Z" fill="#009CA7"/>
</g>
<defs>
<clipPath id="clip0_323_2076">
<rect width="577.23" height="374.77" fill="white"/>
</clipPath>
</defs>
</svg>
