<svg width="296" height="173" viewBox="0 0 296 173" fill="none" xmlns="http://www.w3.org/2000/svg">
<g clip-path="url(#clip0_323_787)">
<path fill-rule="evenodd" clip-rule="evenodd" d="M160.35 33.0601C170.49 16.5601 172.18 4.75006 172.33 4.97006C176.57 22.9501 184.19 33.9901 192.24 45.3201L187.41 43.1701L196.17 55.7901L189.22 50.2401L195.33 60.8301L189.82 57.1901L208.05 93.5601L203.98 91.5401L206.89 97.2001L203.82 95.2301C203.82 95.2301 216.84 115.15 215.64 113.81C214.44 112.47 205.27 104.31 205.27 104.31L224.61 145.74L220.92 143.56C222.73 146.35 232.43 160.12 231.99 162.11C230.85 161.2 226.61 157.59 223.27 154.73C225.19 160.13 226.3 163.28 226.3 163.28L207.98 162.24C202.82 161.59 186.3 159.06 181.37 160.01L150.02 160.51C143.56 161.99 140.86 164.26 139.26 155.01C139.26 155.01 131.43 158.12 127.86 160.5C124.29 162.88 128.87 152.74 128.87 152.74C128.87 152.74 124.6 155.31 121.26 158.6C117.92 161.89 123.4 152.01 123.4 152.01C116.41 150.24 101.92 167.06 114.75 148.96L105.69 155.47C105.69 155.47 114.03 141.08 113.29 141.18C112.55 141.29 123.45 127.54 124.83 125.3C126.21 123.06 118.98 128.57 118.47 129.19C121.97 123.95 137.13 99.6201 139.97 94.3301C139.97 94.3301 138.31 95.2401 136.64 96.3601C134.97 97.4801 140.37 88.2901 141.21 85.8101C142.05 83.3301 136.48 89.6501 134.18 91.7101C131.88 93.7801 135.3 89.5901 142.36 79.5001C149.42 69.4101 157.8 52.6201 157.8 52.6201C157.8 52.6201 155.15 53.8801 153.79 55.4101C152.43 56.9401 156.89 46.6701 157.58 43.9001C158.27 41.1301 152.36 48.2801 150.84 50.1101C149.32 51.9501 154.52 42.5501 160.33 33.0801" fill="#4577A8"/>
<path fill-rule="evenodd" clip-rule="evenodd" d="M224.04 40.26C234.18 23.76 235.87 11.95 236.02 12.17C240.25 30.15 247.88 41.19 255.93 52.52L251.1 50.37L259.86 62.99L252.91 57.44L259.02 68.03L253.51 64.39L271.74 100.76L267.67 98.74L270.58 104.4L267.51 102.43C267.51 102.43 280.54 122.35 279.33 121.01C278.13 119.67 268.96 111.51 268.96 111.51L288.3 152.94L284.61 150.76C286.42 153.55 296.12 167.32 295.68 169.31C294.54 168.4 290.3 164.79 286.96 161.93C288.88 167.33 289.99 170.48 289.99 170.48L271.67 169.44C266.51 168.79 249.99 166.26 245.06 167.21L213.71 167.71C207.25 169.19 204.55 171.46 202.95 162.21C202.95 162.21 195.12 165.32 191.55 167.7C187.98 170.08 192.56 159.94 192.56 159.94C192.56 159.94 188.29 162.51 184.95 165.8C181.61 169.09 187.09 159.21 187.09 159.21C180.1 157.44 165.61 174.26 178.44 156.16L169.38 162.67C169.38 162.67 177.72 148.28 176.98 148.38C176.24 148.49 187.14 134.74 188.52 132.5C189.9 130.26 182.67 135.77 182.16 136.39C185.66 131.15 200.82 106.82 203.66 101.53C203.66 101.53 202 102.44 200.33 103.56C198.66 104.68 204.06 95.49 204.9 93.01C205.74 90.53 200.17 96.85 197.87 98.91C195.57 100.98 198.99 96.79 206.05 86.7C213.11 76.61 221.49 59.82 221.49 59.82C221.49 59.82 218.84 61.08 217.48 62.61C216.12 64.14 220.58 53.87 221.27 51.1C221.96 48.33 216.05 55.48 214.53 57.31C213.01 59.15 218.21 49.75 224.02 40.28" fill="#4577A8"/>
<path fill-rule="evenodd" clip-rule="evenodd" d="M176.33 150.38L155.73 158.19L169.52 131.2C169.52 131.2 166.55 133.03 165.22 134.41C163.89 135.79 168.92 128.03 169.72 126.23C170.52 124.43 164.63 130.99 164.63 130.99L180.47 91.66C180.47 91.66 176.35 96.72 175.29 97.72C174.24 98.72 182.68 83.6 183.3 82.58C183.92 81.56 181.95 83.67 180.75 84.67C179.55 85.66 183.94 77.59 183.94 77.59C167.62 102.24 197.48 41.1 196.42 40.97L191.36 45.57L198.63 29.4C198.63 29.4 197.06 30.84 196.1 31.72C195.14 32.6 200.95 23.64 201.34 22.74C201.72 21.84 198.34 25.21 196.65 26.89C194.96 28.58 210.35 0.95001 210.89 0.0100098C210.95 0.0500098 217.81 18.88 217.9 19.03L215.42 16.52L221.86 39.81L218.06 35.98C217.64 36.22 229.15 63.02 222.61 52.03C222.61 52.03 225.42 59.84 224.98 59.24C224.54 58.64 223.14 56.95 223.14 56.95C223.14 56.95 235.87 90.3 235.02 88.86C234.17 87.41 229.42 82.32 229.42 82.32L234.83 93.36L232.54 91.95C232.54 91.95 242.92 123.4 242.6 122.44C242.28 121.49 235.84 111.73 236.12 112.76C236.4 113.79 238.98 119.86 238.24 119.2C237.51 118.54 236.76 118.35 236.76 118.35C236.76 118.35 241.85 131.07 246.91 141.46C246.96 141.57 241.96 137.84 241.96 137.84C241.9 139.28 250.1 157.33 247.85 156.09C245.79 154.63 236.95 152.91 236.95 152.91C222.17 152.19 191.24 150.93 176.31 150.37L176.33 150.38Z" fill="#009CA7"/>
<path fill-rule="evenodd" clip-rule="evenodd" d="M103.18 16.4299C103.18 16.4299 112.34 34.2499 112.36 34.2899L109.65 31.8199L113.7 39.7799L110.56 36.8999L118.67 59.7599L115.74 57.0099L121.88 69.1499L119.89 67.0599L121.1 71.1799L119.56 69.4599L125.7 80.3999L123.27 77.8399C124.15 79.8899 125.56 84.2799 126.14 86.4499L123.68 82.8599L130.98 99.0399L128.34 95.2099L139.13 119.24L135.27 116.33L137.76 121.93L134.7 119.08L147.53 144.05L144.15 140.81L146.53 148.49L142.19 144.24L148.53 161.09L146.95 161.02C147.9 165.17 148.9 167.56 147.89 166.96L147.96 167.06C139.38 165.11 42.8099 159.5 42.6099 159.38L39.6899 159.21L54.6599 130.83L49.0699 134.53L54.0299 124.07L51.7299 124.93L59.8799 115.5L55.6799 117.48L60.2899 110.6L55.4499 113.28L69.5499 89.8499L67.0999 90.8999L70.3299 86.2199L66.9499 88.4899L71.1899 83.8799L70.4299 83.8499L71.7299 80.8899L68.2799 84.7499L85.3599 58.1999L82.6399 59.4599L85.2199 55.5799L82.2899 57.7299L86.8899 50.8599L84.9199 52.6199L91.6799 40.6499L89.5499 42.9899L95.0999 30.8499L93.5699 31.3499C93.6499 31.2299 103.08 16.5599 103.15 16.4499" fill="#4577A8"/>
<path fill-rule="evenodd" clip-rule="evenodd" d="M98.55 157L77.95 164.81L91.74 137.81C91.74 137.81 88.77 139.64 87.44 141.02C86.12 142.4 91.15 134.64 91.94 132.84C92.74 131.04 86.85 137.6 86.85 137.6L102.69 98.2701C102.69 98.2701 98.57 103.33 97.51 104.33C96.45 105.33 104.9 90.2101 105.52 89.1901C106.14 88.1701 104.17 90.2801 102.97 91.2801C101.77 92.2701 106.16 84.2001 106.16 84.2001C89.84 108.85 119.7 47.7101 118.64 47.5801L113.58 52.1801L120.85 36.0101C120.85 36.0101 119.28 37.4501 118.32 38.3301C117.35 39.2101 123.17 30.2501 123.56 29.3501C123.94 28.4501 120.56 31.8201 118.87 33.5001C117.18 35.1901 132.57 7.56012 133.11 6.62012C133.17 6.66012 140.02 25.4901 140.12 25.6401L137.64 23.1301L144.08 46.4201L140.28 42.5901C139.86 42.8301 151.37 69.6301 144.83 58.6401C144.83 58.6401 147.64 66.4501 147.2 65.8601C146.76 65.2601 145.36 63.5701 145.36 63.5701C145.36 63.5701 158.09 96.9201 157.24 95.4801C156.39 94.0301 151.64 88.9401 151.64 88.9401L157.05 99.9801L154.76 98.5701C154.76 98.5701 165.14 130.02 164.82 129.06C164.5 128.11 158.06 118.35 158.34 119.38C158.62 120.41 161.2 126.47 160.46 125.82C159.73 125.16 158.97 124.97 158.97 124.97C158.97 124.97 164.06 137.69 169.12 148.08C169.17 148.19 164.17 144.46 164.17 144.46C164.11 145.9 172.31 163.95 170.06 162.71C168 161.25 159.16 159.53 159.16 159.53C144.38 158.81 113.45 157.55 98.52 156.99L98.55 157Z" fill="#009CA7"/>
<path fill-rule="evenodd" clip-rule="evenodd" d="M63.46 18.04C63.46 18.04 72.62 35.86 72.64 35.9L69.93 33.43L73.98 41.39L70.84 38.51L78.95 61.37L76.02 58.62L82.16 70.76L80.17 68.67L81.38 72.79L79.84 71.07L85.98 82.01L83.56 79.45C84.44 81.5 85.85 85.89 86.42 88.06L83.96 84.47L91.26 100.65L88.62 96.82L99.41 120.85L95.55 117.94L98.04 123.54L94.98 120.69L107.81 145.66L104.43 142.42L106.81 150.1L102.47 145.85L108.81 162.7L107.23 162.63C108.18 166.78 109.19 169.17 108.17 168.57L108.24 168.67C99.66 166.72 3.08997 161.11 2.88997 160.99L-0.0300293 160.82L14.94 132.44L9.34997 136.14L14.31 125.68L12.01 126.54L20.16 117.11L15.96 119.09L20.57 112.21L15.73 114.89L29.83 91.46L27.38 92.52L30.61 87.84L27.23 90.11L31.47 85.5L30.71 85.47L32.01 82.51L28.56 86.37L45.64 59.82L42.92 61.08L45.5 57.2L42.57 59.35L47.17 52.48L45.2 54.24L51.96 42.27L49.83 44.61L55.38 32.47L53.85 32.97C53.93 32.85 63.36 18.18 63.43 18.07" fill="#009CA7"/>
<path fill-rule="evenodd" clip-rule="evenodd" d="M215.28 81.76C222.18 70.53 223.33 62.5 223.43 62.65C226.31 74.88 231.5 82.39 236.97 90.1L233.69 88.63L239.65 97.22L234.92 93.45L239.07 100.65L235.32 98.17L247.72 122.91L244.95 121.54L246.93 125.39L244.84 124.05C244.84 124.05 253.7 137.6 252.88 136.69C252.06 135.78 245.83 130.23 245.83 130.23L258.99 158.41L256.48 156.92C257.71 158.82 264.31 168.19 264.01 169.54C263.24 168.92 260.35 166.46 258.08 164.52C259.38 168.19 260.14 170.34 260.14 170.34L247.68 169.63C244.17 169.19 232.92 167.47 229.58 168.11L208.26 168.45C203.96 169.49 201.94 170.9 200.94 164.71C200.94 164.71 195.61 166.82 193.18 168.44C190.75 170.06 193.87 163.16 193.87 163.16C193.87 163.16 190.97 164.9 188.69 167.15C186.42 169.39 190.15 162.66 190.15 162.66C185.82 161.3 175.44 172.9 184.26 160.58L178.1 165.01C178.1 165.01 183.78 155.22 183.27 155.29C182.76 155.36 190.18 146.01 191.12 144.49C192.06 142.97 187.14 146.72 186.79 147.14C189.18 143.57 199.49 127.02 201.42 123.42C201.42 123.42 200.29 124.03 199.16 124.8C198.02 125.56 201.69 119.31 202.27 117.62C202.84 115.93 199.05 120.23 197.49 121.64C195.93 123.05 198.25 120.2 203.05 113.34C207.85 106.48 213.56 95.06 213.56 95.06C213.56 95.06 211.76 95.92 210.83 96.96C209.9 98 212.94 91.01 213.41 89.13C213.88 87.25 209.86 92.11 208.82 93.36C207.79 94.61 211.32 88.21 215.28 81.77" fill="#23353F"/>
<path fill-rule="evenodd" clip-rule="evenodd" d="M78.3 65.04C85.79 52.86 87.03 44.14 87.15 44.3C90.28 57.58 95.91 65.73 101.85 74.09L98.2799 72.5L104.74 81.82L99.61 77.72L104.12 85.54L100.05 82.85L113.51 109.7L110.5 108.21L112.65 112.39L110.39 110.93C110.39 110.93 120.01 125.64 119.12 124.65C118.23 123.66 111.46 117.64 111.46 117.64L125.74 148.23L123.02 146.62C124.36 148.68 131.52 158.85 131.19 160.31C130.35 159.64 127.22 156.97 124.75 154.86C126.17 158.84 126.99 161.17 126.99 161.17L113.47 160.4C109.66 159.92 97.45 158.05 93.82 158.75L70.68 159.12C65.91 160.21 63.91 161.89 62.74 155.06C62.74 155.06 56.9599 157.35 54.32 159.11C51.6899 160.87 55.07 153.38 55.07 153.38C55.07 153.38 51.92 155.27 49.45 157.7C46.98 160.13 51.0299 152.83 51.0299 152.83C46.2499 151.38 35.0799 163.94 44.6399 150.58L37.95 155.39C37.95 155.39 44.11 144.76 43.56 144.84C43.01 144.92 51.06 134.77 52.08 133.12C53.1 131.47 47.76 135.54 47.38 135.99C49.96 132.12 61.1599 114.16 63.2599 110.25C63.2599 110.25 62.0299 110.92 60.7999 111.75C59.57 112.58 63.5499 105.79 64.1699 103.96C64.7899 102.13 60.67 106.79 58.9799 108.32C57.2799 109.85 59.8099 106.76 65.0199 99.31C70.2299 91.86 76.4199 79.47 76.4199 79.47C76.4199 79.47 74.4699 80.4 73.4599 81.53C72.4599 82.66 75.75 75.08 76.26 73.03C76.77 70.99 72.3999 76.26 71.2799 77.62C70.16 78.98 74 72.03 78.29 65.04" fill="#23353F"/>
<path fill-rule="evenodd" clip-rule="evenodd" d="M121.94 166.25L101.04 172.93L114.9 149.5C114.9 149.5 111.89 151.08 110.55 152.28C109.21 153.48 114.28 146.74 115.08 145.18C115.88 143.62 109.94 149.3 109.94 149.3L125.8 115.14C125.8 115.14 121.64 119.52 120.58 120.38C119.51 121.25 128.01 108.13 128.64 107.24C129.27 106.36 127.27 108.18 126.06 109.04C124.85 109.9 129.26 102.89 129.26 102.89C112.76 124.46 142.7 71.3599 141.72 71.0599L136.61 75.0399L143.91 60.9999C143.91 60.9999 142.33 62.2399 141.35 63.0099C140.38 63.7699 146.24 55.9999 146.62 55.2199C147.01 54.4299 143.58 57.3499 141.88 58.8099C140.21 60.4699 155.79 35.5999 156.26 35.6199L163.44 52.0899L160.9 49.8899L167.59 70.2199L163.7 66.8599C163.32 67.1799 175.16 90.5399 168.42 80.8699C168.42 80.8699 171.33 87.6899 170.87 87.1699C170.42 86.6499 168.98 85.1599 168.98 85.1599C168.98 85.1599 182.13 114.29 181.25 113.03C180.37 111.76 175.52 107.3 175.52 107.3L181.09 116.95L178.76 115.71C178.76 115.71 189.5 143.17 189.17 142.33C188.84 141.5 182.23 132.96 182.53 133.86C182.82 134.76 185.48 140.06 184.73 139.48C183.98 138.9 183.21 138.73 183.21 138.73C183.21 138.73 188.46 149.85 193.67 158.93C193.73 159.02 188.61 155.75 188.61 155.75C188.56 156.97 197.05 172.96 194.71 171.68C192.61 170.39 183.61 168.84 183.61 168.84C168.58 168.12 137.13 166.84 121.95 166.27L121.94 166.25Z" fill="#23353F"/>
</g>
<defs>
<clipPath id="clip0_323_787">
<rect width="295.69" height="172.93" fill="white"/>
</clipPath>
</defs>
</svg>
