<svg width="240" height="56" viewBox="0 0 240 56" fill="none" xmlns="http://www.w3.org/2000/svg">
<g clip-path="url(#clip0_323_652)">
<path d="M126.943 44.5875C126.705 44.3187 126.585 43.8807 126.585 43.2735V34.4038H129.392V31.7657H126.585V29.0879L123.021 28.0825V43.4029C123.021 46.4291 124.395 47.9423 127.133 47.9423C127.889 47.9423 128.596 47.9323 129.482 47.9323V44.9956C128.895 44.9956 128.646 44.9956 128.238 44.9956C127.62 44.9956 127.192 44.8563 126.953 44.5875H126.943Z" fill="#12100B"/>
<path d="M81.5397 31.477C79.4492 31.477 77.8166 32.2933 76.6618 33.916C75.8754 32.2933 74.422 31.477 72.3016 31.477C70.3605 31.477 68.8374 32.1241 67.7224 33.4282L67.6229 31.7657H64.2582V47.6536H67.822V36.1458C68.4193 34.9811 69.4347 34.3938 70.8582 34.3938C72.7197 34.3938 73.6754 35.3295 73.7252 37.201V47.6536H77.289V36.763C77.4781 36.0562 77.8365 35.4888 78.3542 35.0508C78.8718 34.6128 79.5288 34.3938 80.3451 34.3938C81.3605 34.3938 82.0972 34.6327 82.5352 35.1006C82.9732 35.5685 83.1922 36.3051 83.1922 37.3205V47.6536H86.756V37.211C86.7361 35.3196 86.2981 33.8961 85.442 32.9205C84.5859 31.9549 83.2818 31.4671 81.5297 31.4671L81.5397 31.477Z" fill="#12100B"/>
<path d="M103.261 36.8228C103.231 35.1304 102.664 33.8164 101.559 32.8807C100.454 31.9449 98.9705 31.477 97.109 31.477C95.8846 31.477 94.7796 31.696 93.7841 32.1241C92.7886 32.5522 92.0022 33.1494 91.4248 33.906C90.8474 34.6626 90.5587 35.4789 90.5587 36.3449H94.1226C94.1226 35.7178 94.3814 35.2001 94.899 34.792C95.4167 34.3838 96.0836 34.1847 96.8999 34.1847C97.8357 34.1847 98.5425 34.4336 99.0004 34.9214C99.4583 35.4191 99.6873 36.0761 99.6873 36.8924V37.9377H97.4972C95.1579 37.9377 93.356 38.3956 92.1017 39.3015C90.8474 40.2074 90.2103 41.5015 90.2103 43.1938C90.2103 44.5377 90.718 45.6626 91.7235 46.5685C92.7289 47.4744 94.033 47.9323 95.6257 47.9323C97.2185 47.9323 98.6619 47.345 99.7968 46.1603C99.9162 46.8472 100.056 47.335 100.205 47.6436H103.848V47.3947C103.45 46.5386 103.251 45.4038 103.251 43.9703V36.8028L103.261 36.8228ZM99.6873 43.1938C99.3687 43.7712 98.9108 44.2291 98.2837 44.5775C97.6665 44.926 96.9995 45.0952 96.2927 45.0952C95.5262 45.0952 94.9189 44.8961 94.461 44.4879C94.0031 44.0798 93.7741 43.5323 93.7741 42.8454C93.7741 42.0092 94.1026 41.3522 94.7696 40.8943C95.4366 40.4363 96.4321 40.2074 97.7461 40.2074H99.6674V43.2038L99.6873 43.1938Z" fill="#12100B"/>
<path d="M117.347 39.4409C116.551 39.0128 115.446 38.6445 114.052 38.3359C112.648 38.0273 111.723 37.7187 111.265 37.42C110.807 37.1214 110.578 36.6933 110.578 36.1458C110.578 35.5386 110.827 35.0508 111.314 34.6924C111.812 34.3341 112.449 34.1449 113.226 34.1449C114.062 34.1449 114.739 34.3739 115.247 34.8318C115.754 35.2897 116.013 35.8571 116.013 36.544H119.577C119.577 35.0508 118.99 33.8264 117.825 32.8906C116.66 31.9549 115.117 31.477 113.226 31.477C111.444 31.477 109.971 31.935 108.826 32.8607C107.671 33.7865 107.094 34.9313 107.094 36.2952C107.094 37.9277 107.99 39.182 109.762 40.0382C110.578 40.4264 111.583 40.7549 112.798 41.0038C114.012 41.2626 114.878 41.5513 115.406 41.8897C115.934 42.2183 116.192 42.706 116.192 43.3431C116.192 43.9205 115.953 44.3884 115.456 44.7468C114.968 45.1051 114.251 45.2843 113.315 45.2843C112.38 45.2843 111.563 45.0554 110.976 44.6074C110.389 44.1495 110.07 43.5024 110.02 42.6662H106.556C106.556 43.6119 106.835 44.4979 107.412 45.3241C107.98 46.1504 108.776 46.7875 109.791 47.2653C110.807 47.7332 111.971 47.9721 113.266 47.9721C115.187 47.9721 116.73 47.5341 117.915 46.6481C119.099 45.7622 119.686 44.6074 119.686 43.1739C119.686 42.3278 119.497 41.6011 119.109 41.0038C118.721 40.4065 118.134 39.8988 117.337 39.4707L117.347 39.4409Z" fill="#12100B"/>
<path d="M138.989 31.477C137.625 31.477 136.401 31.8255 135.286 32.5223C134.181 33.2191 133.324 34.1847 132.707 35.439C132.1 36.6834 131.791 38.1069 131.791 39.6897V40.1277C131.791 42.497 132.498 44.3884 133.902 45.8119C135.305 47.2355 137.137 47.9522 139.397 47.9522C140.721 47.9522 141.906 47.6934 142.971 47.1658C144.036 46.6382 144.882 45.9015 145.519 44.9558L143.598 43.1241C142.572 44.4481 141.239 45.1051 139.606 45.1051C138.441 45.1051 137.476 44.7269 136.709 43.9603C135.943 43.1938 135.505 42.1585 135.395 40.8445H145.778V39.401C145.778 36.8725 145.191 34.9214 144.006 33.5476C142.831 32.1639 141.159 31.477 138.989 31.477ZM142.254 38.2264H135.455C135.624 37.0019 136.002 36.0463 136.61 35.3594C137.207 34.6725 138.003 34.3341 138.979 34.3341C139.954 34.3341 140.741 34.6427 141.298 35.2499C141.856 35.8571 142.174 36.763 142.254 37.9576V38.2264Z" fill="#12100B"/>
<path d="M202.192 31.477C200.28 31.477 198.737 32.1838 197.563 33.6074L197.463 31.7757H194.099V47.6635H197.662V36.3549C198.369 35.0508 199.434 34.4037 200.878 34.4037C201.863 34.4037 202.58 34.6427 203.018 35.1304C203.456 35.6182 203.675 36.3648 203.675 37.3703V47.6635H207.239V37.1712C207.179 33.3884 205.497 31.487 202.192 31.487V31.477Z" fill="#12100B"/>
<path d="M220.857 33.239C219.822 32.0644 218.458 31.477 216.775 31.477C214.864 31.477 213.341 32.2137 212.206 33.697C211.071 35.1802 210.504 37.1413 210.504 39.5902C210.504 42.1685 211.081 44.1993 212.226 45.7024C213.381 47.1956 214.884 47.9522 216.736 47.9522C218.587 47.9522 219.941 47.3052 221.006 46.011L221.185 47.6536H224.411V28.1123H220.847V33.239H220.857ZM220.857 43.0843C220.18 44.3884 219.115 45.0355 217.661 45.0355C216.517 45.0355 215.631 44.5875 215.013 43.6816C214.396 42.7757 214.078 41.5214 214.078 39.8988C214.078 38.0572 214.396 36.6834 215.013 35.7676C215.641 34.8517 216.527 34.3938 217.681 34.3938C219.145 34.3938 220.2 35.0309 220.847 36.3051V43.0843H220.857Z" fill="#12100B"/>
<path d="M176.986 31.477C174.896 31.477 173.263 32.2933 172.108 33.916C171.322 32.2933 169.869 31.477 167.748 31.477C165.807 31.477 164.284 32.1241 163.169 33.4282L163.069 31.7657H159.705V47.6536H163.269V36.1458C163.866 34.9811 164.881 34.3938 166.305 34.3938C168.166 34.3938 169.122 35.3295 169.172 37.201V47.6536H172.736L172.716 36.763C172.925 36.0562 173.283 35.4888 173.791 35.0508C174.308 34.6128 174.965 34.3938 175.782 34.3938C176.797 34.3938 177.534 34.6327 177.972 35.1006C178.41 35.5685 178.629 36.3051 178.629 37.3205V47.6536H182.193V37.211C182.173 35.3196 181.735 33.8961 180.879 32.9205C180.022 31.9549 178.718 31.4671 176.966 31.4671L176.986 31.477Z" fill="#12100B"/>
<path d="M152.328 33.5476L152.239 31.7757H148.834V47.6635H152.398V36.8029C152.965 35.5486 154.07 34.9214 155.703 34.9214C156.201 34.9214 156.688 34.9612 157.156 35.0409L157.176 31.6961C156.848 31.5567 156.42 31.487 155.912 31.487C154.389 31.487 153.194 32.1739 152.328 33.5576V33.5476Z" fill="#12100B"/>
<path d="M189.967 31.7657H186.403V47.6536H189.967V31.7657Z" fill="#12100B"/>
<path d="M239.423 40.964C239.034 40.3667 238.447 39.859 237.661 39.4409C236.864 39.0228 235.779 38.6544 234.386 38.3458C232.992 38.0372 232.066 37.7386 231.618 37.44C231.16 37.1413 230.931 36.7133 230.931 36.1657C230.931 35.5685 231.18 35.0807 231.668 34.7223C232.156 34.3639 232.793 34.1847 233.569 34.1847C234.405 34.1847 235.072 34.4137 235.58 34.8617C236.088 35.3096 236.337 35.8771 236.337 36.5639H239.881C239.881 35.0807 239.303 33.8662 238.138 32.9304C236.974 31.9947 235.451 31.5268 233.569 31.5268C231.797 31.5268 230.344 31.9847 229.199 32.9006C228.054 33.8164 227.477 34.9513 227.477 36.3151C227.477 37.9377 228.363 39.182 230.135 40.0282C230.941 40.4164 231.947 40.735 233.151 40.9938C234.356 41.2427 235.222 41.5413 235.739 41.8698C236.257 42.1983 236.516 42.6861 236.516 43.3133C236.516 43.8907 236.277 44.3486 235.789 44.707C235.301 45.0653 234.595 45.2346 233.659 45.2346C232.723 45.2346 231.927 45.0056 231.339 44.5576C230.752 44.0997 230.443 43.4626 230.394 42.6264H226.949C226.949 43.5721 227.228 44.4481 227.795 45.2644C228.363 46.0807 229.149 46.7278 230.155 47.1857C231.17 47.6536 232.315 47.8825 233.609 47.8825C235.51 47.8825 237.053 47.4445 238.228 46.5585C239.403 45.6825 239.99 44.5278 239.99 43.1142C239.99 42.268 239.801 41.5513 239.413 40.954L239.423 40.964Z" fill="#12100B"/>
<path d="M54.8907 28.7295C54.8907 28.7295 54.9604 28.6499 54.9803 28.6001C56.1948 26.6888 56.6029 24.4091 56.1052 22.1992C55.6871 20.3177 54.6617 18.6752 53.1984 17.4707C53.8355 15.4598 53.3179 13.2299 51.7848 11.7068C51.1676 11.0896 50.4409 10.6516 49.6545 10.3729C49.5549 8.84981 48.9577 7.42627 47.9224 6.27152C46.8174 5.04708 45.3441 4.28056 43.7314 4.07151C42.4373 1.59277 39.8689 0 37.0418 0C32.8707 0 29.4761 3.39458 29.4761 7.56564V48.9477C29.4761 52.6111 32.4526 55.5875 36.116 55.5875C38.3458 55.5875 40.4264 54.4427 41.6508 52.6111C42.2282 52.7703 42.8156 52.8599 43.4128 52.8599C43.5124 52.8599 43.602 52.8599 43.7015 52.8599C45.4735 52.7803 47.1061 52.0237 48.3106 50.7097C49.5052 49.4056 50.1224 47.7033 50.0527 45.9314C50.64 45.7223 51.1975 45.4436 51.7052 45.0753C53.1486 44.04 54.1043 42.5069 54.4029 40.7549C54.6319 39.4011 54.4427 38.0373 53.8753 36.8228C55.1197 35.5884 55.8364 33.8961 55.8364 32.1141C55.8364 30.8997 55.498 29.7549 54.8907 28.7295ZM45.8816 28.6001C44.4481 28.6001 43.2834 29.7648 43.2834 31.1983C43.2834 32.6318 44.4481 33.7965 45.8816 33.7965C46.8273 33.7965 47.6536 33.2789 48.1115 32.5223C48.1215 32.5223 48.1414 32.5223 48.1513 32.5223C48.1712 32.5223 48.1911 32.5223 48.211 32.5223C49.983 32.4427 51.6554 31.8055 53.0192 30.7503C53.1785 31.1884 53.2581 31.6463 53.2581 32.1241C53.2581 33.468 52.6011 34.7123 51.4961 35.4789C51.1676 35.6979 50.9685 36.0762 50.9387 36.4743C50.9187 36.773 50.9984 37.0716 51.1776 37.3105C51.8047 38.1965 52.0536 39.2716 51.8744 40.3468C51.6952 41.4219 51.1079 42.3676 50.2219 42.9947C49.973 43.1739 49.7142 43.3133 49.4355 43.4327C49.0174 42.5269 48.3902 41.7106 47.6038 41.0735C47.0463 40.6255 46.24 40.7151 45.792 41.2626C45.3441 41.8201 45.4337 42.6264 45.9812 43.0744C46.8871 43.811 47.4346 44.8961 47.4843 46.0608C47.5341 47.1459 47.1558 48.1812 46.4192 48.9776C45.6825 49.7739 44.6871 50.2418 43.602 50.2916C42.9947 50.3215 42.3875 50.202 41.8201 49.9631C41.621 49.8635 41.392 49.8038 41.1531 49.8038C40.4961 49.8038 39.9386 50.2319 39.7296 50.8192C39.0228 52.173 37.659 53.0192 36.1259 53.0192C33.8861 53.0192 32.0644 51.1975 32.0644 48.9576V37.2906H39.6201L41.2029 39.0626L39.421 41.0635C39.1024 40.9241 38.744 40.8345 38.3658 40.8345C36.9323 40.8345 35.7676 41.9993 35.7676 43.4327C35.7676 44.8662 36.9323 46.0309 38.3658 46.0309C39.7993 46.0309 40.964 44.8662 40.964 43.4327C40.964 42.9748 40.8345 42.5567 40.6255 42.1784L42.9151 39.6001C43.1938 39.2915 43.1938 38.8137 42.9151 38.5051L40.5956 35.9069C40.4364 35.7277 40.2174 35.6282 39.9784 35.6282H32.0544V30.3621H37.2608C37.4698 30.3621 37.6689 30.2825 37.8182 30.1431L44.6074 23.9014C44.9857 24.1205 45.4138 24.2499 45.8816 24.2499C47.3151 24.2499 48.4798 23.0852 48.4798 21.6517C48.4798 20.2182 47.3151 19.0535 45.8816 19.0535C44.4481 19.0535 43.2834 20.2182 43.2834 21.6517C43.2834 22.02 43.3631 22.3684 43.5024 22.687L36.9422 28.7196H32.0644V23.5232H36.8626C37.0617 23.5232 37.2508 23.4535 37.4101 23.3241L40.7051 20.4372C40.8744 20.2879 40.9739 20.0888 40.9839 19.8598C40.9938 19.6308 40.9241 19.4218 40.7748 19.2625L38.8735 17.172C39.0128 16.8535 39.0925 16.505 39.0925 16.1367C39.0925 14.7032 37.9278 13.5385 36.4943 13.5385C35.0608 13.5385 33.8961 14.7032 33.8961 16.1367C33.8961 17.5702 35.0608 18.7349 36.4943 18.7349C36.9522 18.7349 37.3902 18.6055 37.7585 18.3865L38.9929 19.7403L36.5639 21.8707H32.0843V7.56564C32.0843 4.81812 34.3241 2.57829 37.0716 2.57829C38.5549 2.57829 39.9287 3.23531 40.8644 4.32038C38.963 4.90771 37.3603 6.30138 36.5639 8.20275C36.3947 8.61089 36.2653 9.02899 36.1757 9.45705C36.0363 10.1539 36.4843 10.8408 37.1811 10.9801C37.878 11.1295 38.5649 10.6715 38.7042 9.9747C38.754 9.71587 38.8436 9.44709 38.9431 9.19822C39.64 7.54573 41.2925 6.49052 43.0943 6.59007C44.2291 6.6498 45.2744 7.14754 46.0409 7.9937C46.5785 8.59098 46.9169 9.30773 47.0563 10.0842C46.4291 10.1638 45.8119 10.343 45.2246 10.6317C44.5875 10.9503 44.3287 11.7267 44.6472 12.3638C44.9658 13.001 45.7423 13.2598 46.3794 12.9412C47.5839 12.334 49.0472 12.5729 50.0029 13.5286C50.9586 14.4842 51.1975 15.9376 50.5902 17.1521C50.5902 17.1621 50.5902 17.172 50.5803 17.182C50.4708 17.391 50.4011 17.62 50.4011 17.8688C50.4011 18.3765 50.6699 18.8345 51.0681 19.0933C51.2572 19.2227 51.3269 19.2526 51.5459 19.4118C52.6011 20.248 53.3378 21.4128 53.6265 22.7467C53.9649 24.2897 53.6862 25.8725 52.84 27.2064C51.8147 28.8092 50.0825 29.8245 48.1812 29.934C47.7332 29.1377 46.897 28.5902 45.9115 28.5902L45.8816 28.6001ZM46.8373 31.1983C46.8373 31.7259 46.4092 32.154 45.8816 32.154C45.354 32.154 44.926 31.7259 44.926 31.1983C44.926 30.6707 45.354 30.2426 45.8816 30.2426C46.4092 30.2426 46.8373 30.6707 46.8373 31.1983ZM39.3115 43.4327C39.3115 43.9603 38.8834 44.3884 38.3558 44.3884C37.8282 44.3884 37.4001 43.9603 37.4001 43.4327C37.4001 42.9051 37.8282 42.4771 38.3558 42.4771C38.8834 42.4771 39.3115 42.9051 39.3115 43.4327ZM44.926 21.6616C44.926 21.134 45.354 20.706 45.8816 20.706C46.4092 20.706 46.8373 21.134 46.8373 21.6616C46.8373 22.1892 46.4092 22.6173 45.8816 22.6173C45.354 22.6173 44.926 22.1892 44.926 21.6616ZM37.4201 16.1467C37.4201 16.6743 36.992 17.1023 36.4644 17.1023C35.9368 17.1023 35.5087 16.6743 35.5087 16.1467C35.5087 15.6191 35.9368 15.191 36.4644 15.191C36.992 15.191 37.4201 15.6191 37.4201 16.1467Z" fill="#12100B"/>
<path d="M0.477838 32.1241C0.477838 33.906 1.19458 35.5983 2.43893 36.8327C1.87151 38.0472 1.68237 39.411 1.91133 40.7649C2.20997 42.5169 3.16563 44.0499 4.60908 45.0852C5.12673 45.4536 5.68419 45.7323 6.26157 45.9414C6.18193 47.7133 6.79913 49.4056 8.00366 50.7197C9.20819 52.0237 10.8408 52.7902 12.6127 52.8699C12.7123 52.8699 12.8019 52.8699 12.9014 52.8699C13.4987 52.8699 14.096 52.7803 14.6634 52.621C15.8879 54.4527 17.9684 55.5975 20.1983 55.5975C23.8616 55.5975 26.8381 52.621 26.8381 48.9576V7.56564C26.8381 3.39458 23.4435 0 19.2725 0C16.4453 0 13.877 1.59277 12.5829 4.07151C10.9702 4.28056 9.49688 5.04708 8.3919 6.27152C7.3566 7.41632 6.75931 8.84981 6.65976 10.3729C5.88329 10.6516 5.14663 11.0896 4.52944 11.7068C2.9964 13.2299 2.47875 15.4598 3.11586 17.4707C1.64255 18.6752 0.62716 20.3177 0.209059 22.1992C-0.278726 24.4191 0.119466 26.6888 1.33395 28.6001C1.36381 28.6499 1.39368 28.6897 1.42354 28.7295C0.816301 29.7549 0.477838 30.9096 0.477838 32.1141V32.1241ZM8.17289 29.944C6.27153 29.8345 4.53939 28.8191 3.51405 27.2164C2.66789 25.8825 2.38916 24.2996 2.72762 22.7566C3.02626 21.4227 3.75296 20.258 4.80817 19.4218C5.02718 19.2526 5.09686 19.2227 5.286 19.1032C5.68419 18.8444 5.95297 18.3964 5.95297 17.8788C5.95297 17.6299 5.88329 17.401 5.77379 17.1919C5.77379 17.182 5.77379 17.172 5.76383 17.1621C5.15659 15.9575 5.3955 14.4942 6.35116 13.5385C7.30682 12.5829 8.76022 12.3439 9.97471 12.9512C10.6118 13.2697 11.3883 13.0109 11.7068 12.3738C12.0254 11.7367 11.7666 10.9602 11.1295 10.6417C10.5421 10.343 9.92493 10.1738 9.29778 10.0942C9.43715 9.32764 9.77561 8.60094 10.3132 8.00365C11.0697 7.15749 12.1249 6.65975 13.2598 6.60003C15.0616 6.50048 16.7241 7.55568 17.4109 9.20818C17.5204 9.45705 17.6001 9.72583 17.6498 9.98465C17.7892 10.6815 18.4761 11.1295 19.1729 10.9901C19.8698 10.8507 20.3177 10.1638 20.1784 9.467C20.0888 9.03895 19.9594 8.62085 19.7901 8.2127C18.9937 6.31134 17.391 4.91767 15.4897 4.33033C16.4254 3.24526 17.7992 2.58824 19.2824 2.58824C22.03 2.58824 24.2698 4.82807 24.2698 7.57559V21.8906H19.7901L17.3612 19.7603L18.5956 18.4064C18.9738 18.6155 19.4019 18.7548 19.8598 18.7548C21.2933 18.7548 22.458 17.5901 22.458 16.1566C22.458 14.7231 21.2933 13.5584 19.8598 13.5584C18.4263 13.5584 17.2616 14.7231 17.2616 16.1566C17.2616 16.5249 17.3413 16.8734 17.4806 17.1919L15.5793 19.2824C15.4299 19.4417 15.3503 19.6607 15.3702 19.8797C15.3901 20.0987 15.4797 20.3078 15.6489 20.4571L18.944 23.344C19.0933 23.4734 19.2924 23.5431 19.4915 23.5431H24.2897V28.7395H19.4118L12.8516 22.7069C12.991 22.3883 13.0706 22.0399 13.0706 21.6716C13.0706 20.2381 11.9059 19.0734 10.4724 19.0734C9.03896 19.0734 7.87425 20.2381 7.87425 21.6716C7.87425 23.1051 9.03896 24.2698 10.4724 24.2698C10.9403 24.2698 11.3684 24.1404 11.7467 23.9214L18.5358 30.163C18.6852 30.3024 18.8842 30.382 19.0933 30.382H24.2997V35.6481H16.3756C16.1367 35.6481 15.9177 35.7476 15.7584 35.9268L13.439 38.525C13.1602 38.8336 13.1602 39.3115 13.439 39.6201L15.7286 42.1983C15.5195 42.5667 15.3901 42.9947 15.3901 43.4527C15.3901 44.8861 16.5548 46.0508 17.9883 46.0508C19.4218 46.0508 20.5865 44.8861 20.5865 43.4527C20.5865 42.0192 19.4218 40.8545 17.9883 40.8545C17.61 40.8545 17.2616 40.9341 16.9331 41.0834L15.1512 39.0825L16.734 37.3105H24.2897V48.9776C24.2897 51.2174 22.468 53.0391 20.2281 53.0391C18.6951 53.0391 17.3213 52.193 16.6245 50.8391C16.4254 50.2518 15.8679 49.8237 15.201 49.8237C14.9621 49.8237 14.7431 49.8834 14.534 49.983C13.9666 50.2219 13.3593 50.3414 12.7521 50.3115C11.667 50.2617 10.6715 49.7939 9.93489 48.9975C9.19823 48.2011 8.81995 47.1558 8.86973 46.0807C8.9195 44.916 9.46701 43.8309 10.3729 43.0943C10.9304 42.6463 11.01 41.83 10.562 41.2825C10.1141 40.725 9.29778 40.6454 8.75027 41.0934C7.95389 41.7305 7.33669 42.5468 6.91859 43.4527C6.64981 43.3332 6.38103 43.1938 6.13216 43.0146C5.24618 42.3875 4.65885 41.4418 4.47966 40.3667C4.30048 39.2915 4.53939 38.2164 5.1765 37.3305C5.34573 37.0915 5.43532 36.7929 5.41541 36.4943C5.38555 36.0961 5.18645 35.7277 4.85795 35.4988C3.75296 34.7422 3.09595 33.4879 3.09595 32.144C3.09595 31.6662 3.18554 31.2083 3.33486 30.7703C4.69867 31.8255 6.37107 32.4626 8.14303 32.5422C8.16294 32.5422 8.18285 32.5422 8.20275 32.5422C8.21271 32.5422 8.23262 32.5422 8.24257 32.5422C8.70049 33.2988 9.51679 33.8164 10.4724 33.8164C11.9059 33.8164 13.0706 32.6517 13.0706 31.2182C13.0706 29.7847 11.9059 28.62 10.4724 28.62C9.49688 28.62 8.65072 29.1675 8.20275 29.9639L8.17289 29.944ZM10.4326 30.2426C10.9602 30.2426 11.3883 30.6707 11.3883 31.1983C11.3883 31.7259 10.9602 32.154 10.4326 32.154C9.90502 32.154 9.47697 31.7259 9.47697 31.1983C9.47697 30.6707 9.90502 30.2426 10.4326 30.2426ZM17.9585 42.487C18.4861 42.487 18.9141 42.9151 18.9141 43.4427C18.9141 43.9703 18.4861 44.3984 17.9585 44.3984C17.4308 44.3984 17.0028 43.9703 17.0028 43.4427C17.0028 42.9151 17.4308 42.487 17.9585 42.487ZM10.4326 22.6173C9.90502 22.6173 9.47697 22.1892 9.47697 21.6616C9.47697 21.134 9.90502 20.706 10.4326 20.706C10.9602 20.706 11.3883 21.134 11.3883 21.6616C11.3883 22.1892 10.9602 22.6173 10.4326 22.6173ZM19.8499 15.191C20.3775 15.191 20.8055 15.6191 20.8055 16.1467C20.8055 16.6743 20.3775 17.1023 19.8499 17.1023C19.3223 17.1023 18.8942 16.6743 18.8942 16.1467C18.8942 15.6191 19.3223 15.191 19.8499 15.191Z" fill="#4986C4"/>
<path d="M74.4419 20.5467H68.698L67.603 23.8218H64.1188L70.0319 7.93396H73.0681L79.0111 23.8218H75.527L74.422 20.5467H74.4419ZM69.584 17.8987H73.5559L71.555 11.9557L69.584 17.8987Z" fill="#4986C4"/>
<path d="M93.4256 23.8218H90.1505L83.7795 13.3693V23.8218H80.5043V7.93396H83.7795L90.1605 18.4064V7.93396H93.4256V23.8218Z" fill="#4986C4"/>
<path d="M105.451 20.5467H99.7071L98.6121 23.8218H95.1279L101.041 7.93396H104.077L110.02 23.8218H106.536L105.431 20.5467H105.451ZM100.593 17.8987H104.565L102.564 11.9557L100.593 17.8987Z" fill="#4986C4"/>
<path d="M114.789 21.1937H121.737V23.8218H111.514V7.93396H114.789V21.1937Z" fill="#4986C4"/>
<path d="M126.048 15.0915L129.353 7.93396H132.936L127.72 18.058V23.8218H124.385V18.058L119.169 7.93396H122.762L126.048 15.0915Z" fill="#4986C4"/>
<path d="M146.525 10.5819H141.657V23.8218H138.391V10.5819H133.583V7.93396H146.525V10.5819Z" fill="#4986C4"/>
<path d="M151.87 23.8218H148.595V7.93396H151.87V23.8218Z" fill="#4986C4"/>
<path d="M167.38 18.5259C167.26 20.2381 166.623 21.582 165.488 22.5576C164.354 23.5431 162.85 24.0309 160.989 24.0309C158.948 24.0309 157.355 23.344 156.181 21.9702C155.016 20.5965 154.429 18.715 154.429 16.3259V15.3503C154.429 13.8272 154.697 12.4734 155.235 11.3086C155.773 10.1439 156.539 9.248 157.544 8.6308C158.55 8.01361 159.705 7.69505 161.029 7.69505C162.86 7.69505 164.334 8.18284 165.459 9.16836C166.573 10.1539 167.221 11.5276 167.4 13.2996H164.125C164.045 12.2743 163.756 11.5276 163.268 11.0697C162.781 10.6118 162.034 10.3729 161.029 10.3729C159.934 10.3729 159.117 10.7611 158.58 11.5476C158.042 12.334 157.764 13.5385 157.744 15.191V16.3955C157.744 18.1078 158.002 19.3621 158.52 20.1584C159.038 20.9548 159.864 21.3431 160.979 21.3431C161.994 21.3431 162.741 21.1141 163.239 20.6462C163.736 20.1883 164.025 19.4716 164.095 18.506H167.37L167.38 18.5259Z" fill="#4986C4"/>
<path d="M177.763 19.6508C177.763 19.0336 177.544 18.5557 177.106 18.2272C176.668 17.8987 175.881 17.5503 174.746 17.182C173.611 16.8136 172.716 16.4553 172.049 16.0969C170.247 15.1213 169.341 13.8073 169.341 12.1548C169.341 11.2987 169.58 10.5322 170.068 9.85524C170.555 9.17832 171.242 8.66067 172.148 8.28239C173.054 7.90411 174.069 7.71497 175.194 7.71497C176.319 7.71497 177.345 7.92402 178.23 8.33216C179.116 8.74031 179.803 9.32764 180.301 10.0743C180.789 10.8209 181.038 11.677 181.038 12.6227H177.763C177.763 11.896 177.534 11.3286 177.076 10.9204C176.618 10.5123 175.971 10.3132 175.145 10.3132C174.318 10.3132 173.721 10.4824 173.283 10.8209C172.835 11.1593 172.616 11.6073 172.616 12.1548C172.616 12.6725 172.875 13.1005 173.392 13.4489C173.91 13.7973 174.677 14.1258 175.692 14.4344C177.554 14.9919 178.907 15.6888 179.764 16.515C180.61 17.3412 181.038 18.3765 181.038 19.6109C181.038 20.9847 180.52 22.0598 179.475 22.8462C178.44 23.6327 177.036 24.0209 175.274 24.0209C174.049 24.0209 172.935 23.8019 171.939 23.3539C170.934 22.906 170.167 22.2987 169.64 21.5123C169.112 20.7358 168.853 19.8299 168.853 18.8046H172.138C172.138 20.5566 173.183 21.4327 175.284 21.4327C176.06 21.4327 176.668 21.2734 177.106 20.9548C177.544 20.6363 177.763 20.1983 177.763 19.6308V19.6508Z" fill="#4986C4"/>
</g>
<defs>
<clipPath id="clip0_323_652">
<rect width="240" height="55.5975" fill="white"/>
</clipPath>
</defs>
</svg>
